<?xml version="1.0" encoding="UTF-8" standalone="no"?>
<!-- Created with Inkscape (http://www.inkscape.org/) -->

<svg
   width="211.36365"
   height="114.39394"
   viewBox="0 0 55.9233 30.266731"
   version="1.1"
   id="svg1"
   xml:space="preserve"
   sodipodi:docname="graph1_placeholder.svg"
   inkscape:version="1.4 (e7c3feb100, 2024-10-09)"
   inkscape:export-filename="screensaver-mockup.png"
   inkscape:export-xdpi="96"
   inkscape:export-ydpi="96"
   xmlns:inkscape="http://www.inkscape.org/namespaces/inkscape"
   xmlns:sodipodi="http://sodipodi.sourceforge.net/DTD/sodipodi-0.dtd"
   xmlns="http://www.w3.org/2000/svg"
   xmlns:svg="http://www.w3.org/2000/svg"><sodipodi:namedview
     id="namedview1"
     pagecolor="#ffffff"
     bordercolor="#000000"
     borderopacity="0.25"
     inkscape:showpageshadow="2"
     inkscape:pageopacity="0.0"
     inkscape:pagecheckerboard="0"
     inkscape:deskcolor="#d1d1d1"
     inkscape:document-units="mm"
     inkscape:zoom="3.72"
     inkscape:cx="48.387097"
     inkscape:cy="43.548387"
     inkscape:window-width="1536"
     inkscape:window-height="897"
     inkscape:window-x="0"
     inkscape:window-y="0"
     inkscape:window-maximized="1"
     inkscape:current-layer="g12" /><defs
     id="defs1"><clipPath
       clipPathUnits="userSpaceOnUse"
       id="clipPath27"><ellipse
         style="opacity:0.383255;fill:#ff00fc;fill-opacity:0.718918;stroke:none;stroke-width:12.8405"
         id="ellipse27"
         cx="-262.73123"
         cy="147.37291"
         rx="63.499996"
         ry="63.5" /></clipPath></defs><g
     inkscape:label="Layer 1"
     inkscape:groupmode="layer"
     id="layer1"
     transform="translate(-141.96099,-177.05434)"><g
       id="g12"
       transform="matrix(0.99620687,0,0,1,-5.3008065,398.94167)"><path
         style="fill:#16a98d;fill-opacity:1"
         d="m 194.57582,-203.86517 c -0.0137,-0.0136 -0.12112,0.0659 -0.33095,0.23047 -0.191,0.14979 -0.35595,0.30471 -0.4264,0.39584 -1.4e-4,1.9e-4 1.4e-4,3.4e-4 0,5.2e-4 -1.09986,0.59243 -2.90827,1.35262 -3.73747,1.53893 -0.016,0.004 -0.029,0.005 -0.0446,0.009 -0.17782,-0.0397 -0.40405,-0.0323 -0.55452,0.0284 -0.0455,0.0184 -0.0703,0.0357 -0.0762,0.0517 -0.51554,0.001 -1.00241,-0.20548 -2.11176,-0.79272 -0.97027,-0.51362 -1.8446,-1.06098 -1.94265,-1.21646 -0.04,-0.0634 -0.0924,-0.0937 -0.15044,-0.10904 0.0121,-0.0321 0.0128,-0.0621 -0.0109,-0.0858 -0.0407,-0.0407 -0.11424,-0.0403 -0.20023,-0.008 -0.086,0.0328 -0.18415,0.0982 -0.27389,0.18862 -0.11627,0.11714 -0.16503,0.18133 -0.15977,0.21084 -0.37552,0.23572 -1.19827,0.63045 -2.03239,0.96428 -0.96613,0.38667 -3.11142,1.25991 -4.76715,1.94045 l -3.0102,1.23713 -1.03383,-0.68419 c -0.63938,-0.42312 -0.96357,-0.80625 -0.84969,-1.00459 0.10128,-0.1764 0.084,-0.23004 -0.0384,-0.11886 -0.30026,0.27278 -1.71441,-1.11168 -1.71441,-1.67845 0,-0.65067 -1.66426,-1.13406 -1.89648,-0.55087 -0.0485,0.12182 -1.5761,0.8551 -3.39511,1.62987 -1.81901,0.77478 -4.37925,1.93299 -5.68893,2.57349 -2.5416,1.24298 -6.00319,2.32855 -6.64288,2.08308 -0.21354,-0.0819 -0.45613,0.0276 -0.53896,0.24339 -0.0828,0.21583 -0.31653,0.39223 -0.51925,0.39223 -0.1011,0 -0.19319,0.0396 -0.25989,0.10335 -0.0463,-0.0643 -0.0911,-0.0908 -0.12501,-0.0568 -0.0723,0.0723 -0.0608,0.31494 0.0254,0.5395 0.12516,0.32614 0.23387,0.43813 0.28219,0.37569 0.19184,0.11857 0.45544,0.12271 0.72881,-0.004 0.0445,0.0563 0.11828,0.012 0.20024,-0.12247 0.11114,-0.0769 0.22124,-0.16759 0.32472,-0.28784 0.2416,-0.28074 1.15693,-0.68813 2.03395,-0.90537 0.87701,-0.21724 3.02012,-1.07114 4.76248,-1.89756 4.8803,-2.31479 9.11569,-3.91585 9.66916,-3.65508 0.39921,0.18809 1.14711,0.83802 1.82179,1.50741 0.0905,0.11224 0.19538,0.23443 0.32576,0.37052 0.14767,0.15413 0.27689,0.27372 0.40669,0.39584 0.44647,0.50348 0.73372,0.90921 0.62455,0.97668 -0.18996,0.11741 -0.17648,0.30379 0.0306,0.60462 -0.0444,0.0185 -0.048,0.0671 -0.002,0.14211 0.0889,0.14385 0.27339,0.262 0.41032,0.262 0.14996,0 0.22523,-0.03 0.23654,-0.0765 0.21623,-0.0615 0.52566,-0.21353 1.03902,-0.47904 0.71821,-0.37146 2.99285,-1.38521 5.05504,-2.25257 2.16824,-0.91197 3.52458,-1.3942 4.60323,-1.49862 0.0284,0.0275 0.1207,0.0459 0.27389,0.0522 0.1899,0.008 0.31532,-0.0202 0.35326,-0.0656 0.79309,0.0382 1.47875,0.30966 2.32858,0.79685 0.57526,0.32978 1.09007,0.67524 1.29995,0.86196 0.0624,0.0704 0.11678,0.12493 0.16599,0.16795 0.0264,0.0282 0.0537,0.0547 0.0861,0.0755 0.0127,0.008 0.023,0.0121 0.0342,0.0176 0.3278,0.17514 0.89815,0.0193 1.37567,-0.42116 0.64952,-0.59909 3.61796,-1.8774 4.35943,-1.8774 0.70911,0 0.90076,-0.3949 0.39527,-0.81442 -0.15913,-0.13206 -0.28941,-0.20084 -0.42173,-0.20723 -0.13232,-0.006 -0.26665,0.0491 -0.43522,0.16537 -0.0209,0.0144 -0.0539,0.0325 -0.0768,0.0475 0.15069,-0.19261 0.22836,-0.29749 0.21528,-0.31057 z"
         id="path1" /><path
         style="fill:#3bffda;fill-opacity:1"
         d="m 193.30855,-215.75282 c -0.0342,-9.8e-4 -0.0737,0.007 -0.11671,0.0233 -0.086,0.0328 -0.18416,0.0982 -0.27389,0.18862 -0.22327,0.22493 -0.21649,0.27057 0.0259,0.18966 -0.0907,0.13646 -0.17681,0.33086 -0.26248,0.58859 -0.005,0.0136 -0.0188,0.0401 -0.0254,0.0563 -0.006,-0.0191 -0.009,-0.0388 -0.0161,-0.0574 -0.0422,-0.10554 -0.079,-0.14306 -0.10686,-0.11524 -0.0278,0.0278 -0.0466,0.12081 -0.0529,0.27492 -0.004,0.0893 0.002,0.15998 0.0119,0.22014 -0.11855,0.21086 -0.30345,0.50393 -0.50939,0.82217 -0.0299,0.0301 -0.0606,0.0569 -0.0887,0.0915 -0.21272,0.2623 -0.26587,0.34816 -0.17585,0.31471 -0.15908,0.23808 -0.33907,0.49824 -0.5234,0.76326 -0.0904,0.0377 -0.16706,0.0795 -0.20749,0.11989 -0.0563,0.0563 -0.0272,0.0925 0.0529,0.10593 -0.30712,0.43691 -0.63511,0.89316 -0.97522,1.35083 -2.12186,2.8553 -2.94326,3.89566 -3.4091,4.22558 -0.13182,0.0277 -0.26766,0.0742 -0.37193,0.13487 -0.20934,-0.0234 -0.94189,-0.415 -1.74917,-0.89348 -0.0232,-0.0427 -0.0478,-0.0795 -0.0737,-0.10542 -0.0323,-0.0323 -0.0542,-0.0207 -0.0674,0.0207 -1.17269,-0.70247 -2.43597,-1.54684 -2.43597,-1.70326 0,-0.27352 -0.42587,-0.27976 -0.734,-0.0966 -0.002,-0.0849 -0.049,-0.11396 -0.14473,-0.0548 -0.14385,0.0889 -0.26144,0.27389 -0.26144,0.41083 0,0.0187 0.005,0.0228 0.006,0.0393 -0.26761,0.23585 -0.82687,0.59181 -1.42703,0.894 -0.42605,0.21453 -0.81678,0.4376 -1.10334,0.62064 0.0838,-0.14586 0.12325,-0.22679 0.10582,-0.23668 -0.0183,-0.0104 -0.0954,0.0527 -0.2381,0.185 -0.0782,0.0725 -0.15502,0.18696 -0.22461,0.31316 -0.0189,0.0183 -0.0566,0.0451 -0.0648,0.0584 -0.0908,0.14685 -0.46833,0.16001 -0.91452,0.032 -0.45751,-0.13121 -1.79952,-0.93777 -3.05326,-1.76889 -0.009,-0.0117 -0.0172,-0.0274 -0.0265,-0.0367 -0.0192,-0.0192 -0.0343,-0.0194 -0.0467,-0.0109 -1.28484,-0.85511 -2.4562,-1.72384 -2.4562,-1.90221 0,-0.0489 -0.0415,-0.0922 -0.098,-0.13126 -0.0651,-0.088 -0.13148,-0.12912 -0.17533,-0.0853 -0.002,0.002 -0.002,0.005 -0.003,0.007 -0.0972,-0.0278 -0.20753,-0.0481 -0.33303,-0.0481 -0.99563,0 -6.04216,-1.80153 -6.39389,-2.28254 -0.0555,-0.0759 -0.11784,-0.12955 -0.18207,-0.17312 -0.0999,-0.0872 -0.18908,-0.15123 -0.26559,-0.17312 -0.13045,-0.0373 -0.23958,0.0165 -0.37141,0.14935 -0.20929,0.21081 -0.23058,0.27074 -0.0617,0.22272 -0.031,0.0756 -0.0534,0.1598 -0.0534,0.26097 0,0.19473 -1.10131,1.05962 -2.44738,1.92236 -0.80697,0.51722 -1.41884,0.90485 -1.96444,1.24747 -0.0121,-0.0876 -0.049,-0.12095 -0.10738,-0.0625 -0.0402,0.0402 -0.0818,0.11715 -0.1193,0.20671 -0.46556,0.29106 -0.78733,0.48196 -1.09453,0.66197 -0.01,-0.0977 -0.0477,-0.13561 -0.10893,-0.0744 -0.0415,0.0415 -0.0855,0.12135 -0.12398,0.21497 -0.67373,0.38504 -0.98999,0.50572 -1.22836,0.51935 -0.19079,-0.0611 -0.46934,0.0118 -0.62196,0.16433 -0.13036,0.13034 -0.11514,0.18237 0.0296,0.17364 -0.0277,0.0422 -0.0561,0.0845 -0.0731,0.13074 -0.0422,0.11473 -0.2088,0.40965 -0.4321,0.7798 -0.0672,0.031 -0.12404,0.062 -0.15355,0.0915 -0.0455,0.0455 -0.0225,0.0741 0.0451,0.0863 -0.2582,0.42057 -0.57659,0.91993 -0.914,1.42369 -0.19388,0.28944 -0.36863,0.53329 -0.53482,0.75602 -0.073,0.0334 -0.13656,0.0687 -0.17118,0.10336 -0.0471,0.0471 -0.0371,0.0816 0.0135,0.0997 -0.4956,0.63325 -0.86597,0.95912 -1.11372,0.95912 -0.18791,0 -0.32225,0.0829 -0.4098,0.20515 -0.006,-0.0224 -0.0101,-0.0478 -0.0181,-0.0677 -0.0367,-0.0909 -0.0697,-0.0992 -0.0939,-0.0393 -0.0242,0.0599 -0.0394,0.18811 -0.0394,0.37001 0,0.29377 0.0397,0.43715 0.0934,0.38964 0.0508,0.14266 0.13785,0.28567 0.26455,0.41237 0.41411,0.41411 0.99458,0.40649 1.04576,-0.0134 0.0222,-0.1819 0.0584,-0.44979 0.0809,-0.59531 0.0715,-0.46264 2.21726,-3.6044 2.88363,-4.22197 0.35249,-0.32667 1.1009,-0.87041 1.66254,-1.20871 0.56164,-0.33831 2.19281,-1.38814 3.62542,-2.33267 l 2.60507,-1.71721 2.81931,0.89038 c 1.55056,0.4898 3.00715,1.04532 3.23689,1.23455 0.0133,0.011 0.03,0.0203 0.0441,0.031 0.19657,0.21622 0.3316,0.3009 0.36985,0.21859 0.13111,0.0575 0.2569,0.0946 0.34704,0.0946 0.33303,0 1.75557,0.89855 3.04443,1.82263 0.0136,0.0561 0.023,0.11157 0.04,0.16691 0.0111,0.0363 0.0693,0.0656 0.12916,0.0656 0.0279,0 0.044,-0.0288 0.055,-0.0682 0.92589,0.67469 1.74666,1.33528 1.96599,1.64072 -0.002,0.0374 -0.009,0.0623 -0.009,0.10646 0.002,0.31135 0.0765,0.42347 0.17896,0.29714 0.10323,0.14948 0.26613,0.28306 0.45701,0.34364 0.0172,0.005 0.0334,0.007 0.0503,0.0119 0.0175,0.005 0.0351,0.01 0.0602,0.0139 0.0714,0.014 0.14147,0.0198 0.2106,0.014 0.19311,2.4e-4 0.30937,-0.0374 0.30553,-0.0951 0.19303,-0.10108 0.40189,-0.28231 0.66087,-0.56586 0.90828,-0.99445 3.34989,-2.25853 3.93562,-2.0376 0.57441,0.21667 1.68383,0.87101 2.54853,1.45159 0.0121,0.0487 0.0201,0.0967 0.0348,0.1447 0.0111,0.0363 0.0693,0.0656 0.12917,0.0656 0.0269,0 0.0428,-0.0271 0.054,-0.0641 0.55894,0.38619 0.97097,0.71717 0.97262,0.82475 0.008,0.53229 0.90844,0.69664 1.19516,0.21808 1.15437,-1.92669 6.09851,-8.12265 6.75077,-8.45995 0.79026,-0.40866 0.79434,-0.42183 0.33199,-1.05678 -0.22084,-0.30329 -0.40736,-0.47718 -0.57216,-0.52297 0.0519,-0.0563 0.0677,-0.1107 0.029,-0.14934 -0.0203,-0.0204 -0.0493,-0.03 -0.0835,-0.031 z"
         id="path5" /></g><g
       id="g34"
       transform="translate(65.098393,1.2899782)"
       style="stroke:#ffffff;stroke-opacity:1" /></g></svg>
