<?xml version="1.0" encoding="UTF-8" standalone="no"?>
<!-- Created with Inkscape (http://www.inkscape.org/) -->

<svg
   width="118.93941"
   height="74.242424"
   viewBox="0 0 31.469386 19.643308"
   version="1.1"
   id="svg1"
   xml:space="preserve"
   sodipodi:docname="graph3_placeholder.svg"
   inkscape:version="1.4 (e7c3feb100, 2024-10-09)"
   inkscape:export-filename="screensaver-mockup.png"
   inkscape:export-xdpi="96"
   inkscape:export-ydpi="96"
   xmlns:inkscape="http://www.inkscape.org/namespaces/inkscape"
   xmlns:sodipodi="http://sodipodi.sourceforge.net/DTD/sodipodi-0.dtd"
   xmlns="http://www.w3.org/2000/svg"
   xmlns:svg="http://www.w3.org/2000/svg"><sodipodi:namedview
     id="namedview1"
     pagecolor="#ffffff"
     bordercolor="#000000"
     borderopacity="0.25"
     inkscape:showpageshadow="2"
     inkscape:pageopacity="0.0"
     inkscape:pagecheckerboard="0"
     inkscape:deskcolor="#d1d1d1"
     inkscape:document-units="mm"
     inkscape:zoom="4.28"
     inkscape:cx="46.845794"
     inkscape:cy="16.588785"
     inkscape:window-width="1536"
     inkscape:window-height="897"
     inkscape:window-x="0"
     inkscape:window-y="0"
     inkscape:window-maximized="1"
     inkscape:current-layer="g12" /><defs
     id="defs1"><marker
       style="overflow:visible"
       id="Dot"
       refX="0"
       refY="0"
       orient="auto"
       inkscape:stockid="Dot"
       markerWidth="0.4"
       markerHeight="0.4"
       viewBox="0 0 1 1"
       inkscape:isstock="true"
       inkscape:collect="always"
       preserveAspectRatio="xMidYMid"
       markerUnits="strokeWidth"><path
         transform="scale(0.5)"
         style="fill:context-stroke;fill-rule:evenodd;stroke:none"
         d="M 5,0 C 5,2.76 2.76,5 0,5 -2.76,5 -5,2.76 -5,0 c 0,-2.76 2.3,-5 5,-5 2.76,0 5,2.24 5,5 z"
         sodipodi:nodetypes="sssss"
         id="path17" /></marker><clipPath
       clipPathUnits="userSpaceOnUse"
       id="clipPath27"><ellipse
         style="opacity:0.383255;fill:#ff00fc;fill-opacity:0.718918;stroke:none;stroke-width:12.8405"
         id="ellipse27"
         cx="-262.73123"
         cy="147.37291"
         rx="63.499996"
         ry="63.5" /></clipPath></defs><g
     inkscape:label="Layer 1"
     inkscape:groupmode="layer"
     id="layer1"
     transform="translate(-23.700252,-201.3078)"><g
       id="g12"
       transform="matrix(0.99620687,0,0,1,-5.3008065,398.94167)"><path
         id="path5"
         style="fill:#16a98d;fill-opacity:1"
         d="M 32.829753 -196.06239 L 32.723413 -195.20249 C 32.621084 -194.37787 32.56534 -194.34091 31.376266 -194.29661 L 30.136496 -194.2501 L 30.655747 -194.20255 L 30.218975 -194.18654 L 31.31298 -194.0868 C 31.77164 -194.04498 32.040719 -193.99938 32.216093 -193.89043 C 32.355097 -193.76198 32.421756 -193.56592 32.48739 -193.23776 C 32.833066 -191.50938 32.721602 -191.17112 31.790214 -191.12522 L 30.930156 -191.08285 L 31.323874 -191.03479 L 31.012635 -191.01929 L 31.88981 -190.91128 L 32.68347 -190.81361 L 32.647159 -189.09899 C 32.626689 -188.1269 32.642662 -187.21295 32.682952 -187.06707 C 32.697527 -187.01448 32.71731 -187.1193 32.737937 -187.28515 C 32.774873 -186.73662 32.859437 -187.19913 32.929349 -188.78893 L 33.01909 -190.83945 L 34.397361 -190.88855 L 35.775113 -190.93712 L 35.138629 -190.98156 L 35.692634 -191.0012 L 34.290502 -191.09887 L 32.973441 -191.19034 L 33.049695 -192.50705 L 33.12958 -193.88216 L 46.093728 -193.94211 C 53.224249 -193.97531 59.29646 -194.04873 59.587502 -194.10489 C 59.64955 -194.11687 59.380912 -194.12954 58.927675 -194.14158 C 59.233324 -194.15088 59.459885 -194.16025 59.505024 -194.16897 C 59.796065 -194.22507 53.93242 -194.28766 46.474478 -194.30746 L 32.994191 -194.34311 L 32.954767 -195.13893 L 32.912231 -195.99883 L 32.855689 -195.54046 L 32.829753 -196.06239 z M 30.340358 -193.52301 C 30.317616 -193.52243 30.303642 -193.51825 30.29886 -193.50957 C 30.27973 -193.47487 30.402193 -193.37158 30.650041 -193.17058 C 30.664043 -193.15922 30.680285 -193.151 30.694652 -193.14009 C 30.710539 -193.12716 30.715436 -193.1219 30.732519 -193.10805 C 31.306945 -192.6422 32.203125 -192.54961 32.203125 -192.95612 C 32.203125 -193.04834 32.140092 -193.12684 32.050099 -193.17523 C 31.989708 -193.24025 31.898024 -193.28566 31.790214 -193.28685 C 31.608313 -193.28885 31.161682 -193.35715 30.79788 -193.43878 C 30.558475 -193.49248 30.408583 -193.52476 30.340358 -193.52301 z M 57.749635 -191.95618 C 57.276423 -191.96018 56.756812 -191.00565 56.052863 -188.83544 C 55.623295 -187.51152 55.551163 -187.43492 54.795457 -187.51252 C 54.302712 -187.56312 53.967155 -187.46503 53.925025 -187.25776 C 53.887315 -187.07226 53.911015 -187.02485 53.977935 -187.15286 C 53.981499 -187.15967 53.988752 -187.16468 53.993497 -187.17094 C 54.057109 -187.06389 54.351632 -187.02987 54.820875 -187.08464 C 55.019267 -187.1078 55.173826 -187.11147 55.306408 -187.10428 C 55.499205 -187.02775 55.659761 -186.93415 55.73073 -186.82781 C 55.730958 -186.82747 55.731022 -186.82712 55.731249 -186.82678 C 55.733933 -186.69782 55.67052 -186.52225 55.540875 -186.28934 C 55.433315 -186.28213 55.32045 -186.21837 55.249347 -186.10331 C 55.133854 -185.91647 55.172874 -185.88031 55.351019 -185.97928 C 55.342875 -185.96671 55.33815 -185.95696 55.329751 -185.94414 L 54.908022 -185.30026 L 54.334304 -185.91521 C 54.3687 -185.98998 54.216671 -186.17442 53.860702 -186.49657 C 53.738953 -186.60673 53.64943 -186.68021 53.579549 -186.72601 C 52.890257 -187.469 52.320425 -188.18333 52.3071 -188.32591 C 52.2935 -188.47143 51.918485 -188.87863 51.473497 -189.23077 C 50.879481 -189.70083 50.615158 -189.79478 50.285082 -189.62661 C 50.289577 -189.64298 50.288972 -189.65968 50.29857 -189.6757 C 50.410593 -189.86268 50.325359 -189.8526 50.072921 -189.64831 C 49.857468 -189.47396 49.689717 -189.42365 49.565601 -189.48191 C 49.453247 -189.59485 49.401163 -189.8347 49.401163 -190.22192 C 49.401163 -190.71158 49.55185 -190.8456 50.128944 -190.86994 C 50.577468 -190.88887 50.678525 -190.91976 50.493094 -190.9826 C 50.535457 -191.00769 50.454643 -191.04259 50.244621 -191.09422 C 49.95358 -191.16572 49.566984 -191.34496 49.385083 -191.49264 C 49.320823 -191.54484 49.267848 -191.56765 49.224794 -191.55465 C 49.095633 -191.51565 49.054132 -191.15557 49.054132 -190.30977 L 49.054132 -189.23697 C 48.994569 -189.02923 48.888519 -188.84678 48.711769 -188.65251 C 48.719084 -188.68563 48.711501 -188.7041 48.67442 -188.69126 C 48.61731 -188.67146 48.511836 -188.59877 48.371999 -188.47784 C 46.985395 -187.27844 45.202977 -186.26648 44.866927 -186.47641 C 44.853584 -186.48669 44.841108 -186.49354 44.82906 -186.50018 C 44.634567 -186.68641 44.556207 -186.57335 44.556207 -186.10434 C 44.556207 -185.73569 44.635568 -185.35488 44.732576 -185.25788 C 44.891269 -185.09919 44.9609 -185.04321 45.233152 -185.2646 C 45.470236 -185.37888 45.783143 -185.63422 46.189694 -186.04078 L 47.231308 -187.08206 L 49.927157 -187.10118 L 52.623007 -187.1203 L 53.327445 -186.29451 C 53.714716 -185.84044 54.209913 -185.24988 54.428194 -184.98245 C 54.911534 -184.39029 54.897479 -184.39173 55.41171 -184.90596 C 55.732656 -185.2269 56.122643 -185.2819 57.112632 -185.14574 C 57.125992 -185.14391 57.13476 -185.14338 57.147906 -185.14161 C 57.220295 -185.10803 57.368866 -185.09457 57.575341 -185.09252 C 58.406775 -185.01292 58.573601 -185.11944 58.0505 -185.32144 C 58.017181 -185.34224 58.000924 -185.35653 57.958165 -185.38139 C 57.783109 -185.48317 57.640375 -185.53356 57.515168 -185.53228 C 57.480471 -185.53201 57.447328 -185.52664 57.415053 -185.51833 C 57.349261 -185.53604 57.29756 -185.55217 57.224678 -185.57052 C 56.918226 -185.64769 56.700499 -185.71025 56.539433 -185.7731 C 56.515702 -185.80502 56.467534 -185.83455 56.391595 -185.86301 C 56.339704 -185.88247 56.297723 -185.90819 56.261393 -185.93794 C 56.156567 -186.05373 56.174815 -186.1989 56.261393 -186.43455 C 56.435997 -186.9098 56.748062 -187.02826 58.161508 -187.15596 L 59.852056 -187.3084 L 59.247733 -187.3239 L 59.769577 -187.37093 L 57.983583 -187.41692 C 57.084439 -187.43993 56.554358 -187.5083 56.328828 -187.63241 C 56.300122 -187.66379 56.280586 -187.69701 56.280586 -187.73422 C 56.280586 -188.3553 57.325051 -190.93178 57.664044 -191.14693 C 57.846229 -191.26256 57.878332 -191.36037 57.740298 -191.36759 C 57.748493 -191.40278 57.722458 -191.42589 57.659894 -191.4296 C 57.671178 -191.47859 57.741888 -191.55177 57.867906 -191.6332 C 58.133286 -191.80471 58.186731 -191.86382 58.028194 -191.88383 C 58.061493 -191.94013 57.972394 -191.95381 57.749635 -191.95618 z M 36.883124 -191.43115 C 36.737604 -191.43115 36.618571 -191.31208 36.618571 -191.16656 C 36.618571 -191.06118 36.681899 -190.9708 36.771597 -190.92834 C 36.820077 -190.87503 36.888307 -190.83997 36.965602 -190.83997 C 37.111123 -190.83997 37.230156 -190.95902 37.230156 -191.10455 C 37.230156 -191.20993 37.166828 -191.30032 37.07713 -191.34278 C 37.02865 -191.39609 36.96042 -191.43115 36.883124 -191.43115 z M 40.999781 -191.43115 C 40.935611 -191.43115 40.809606 -191.31208 40.719666 -191.16656 C 40.64515 -191.04599 40.67268 -190.94751 40.770501 -190.91593 C 40.792295 -190.86936 40.84307 -190.83997 40.918859 -190.83997 C 41.072968 -190.83997 41.198974 -190.95902 41.198974 -191.10455 C 41.198974 -191.25007 41.146423 -191.36914 41.082259 -191.36914 C 41.079954 -191.36914 41.076419 -191.36634 41.073959 -191.36604 C 41.053647 -191.40477 41.028231 -191.43115 40.999781 -191.43115 z M 45.085314 -191.43115 C 44.939794 -191.43115 44.82076 -191.31208 44.82076 -191.16656 C 44.82076 -191.06118 44.884088 -190.9708 44.973786 -190.92834 C 45.022266 -190.87503 45.090497 -190.83997 45.167792 -190.83997 C 45.313313 -190.83997 45.432345 -190.95902 45.432345 -191.10455 C 45.432345 -191.20993 45.369017 -191.30032 45.279319 -191.34278 C 45.230839 -191.39609 45.162609 -191.43115 45.085314 -191.43115 z M 40.719666 -190.10823 C 40.501384 -190.10823 40.322836 -189.97771 40.322836 -189.81781 C 40.322836 -189.62062 39.679203 -188.90544 39.209118 -188.48869 C 39.099798 -188.40266 38.992626 -188.32078 38.879723 -188.23703 C 38.794163 -188.18669 38.729391 -188.16363 38.726697 -188.21636 C 38.721897 -188.31116 38.509549 -188.13976 38.25517 -187.8355 C 38.22268 -187.79664 38.181211 -187.76416 38.143643 -187.72853 C 37.890301 -187.56796 37.659396 -187.43631 37.483816 -187.36421 C 37.416771 -187.35211 37.352529 -187.34714 37.296035 -187.35543 C 37.022711 -187.39553 36.490288 -187.10524 36.113326 -186.71051 C 35.736364 -186.31577 35.070984 -185.73222 34.634421 -185.41343 L 34.634421 -185.41291 C 34.197859 -185.09412 33.945346 -184.83035 34.073153 -184.82535 C 34.08973 -184.82475 34.115593 -184.83062 34.14007 -184.83568 C 34.081414 -184.67705 34.642305 -184.89153 35.619493 -185.45942 C 36.287122 -185.84741 37.215317 -186.45298 37.681971 -186.80507 C 38.148625 -187.15716 38.652271 -187.36957 38.801395 -187.2774 C 39.030789 -187.13563 39.838454 -187.11519 43.051366 -187.16784 C 43.222597 -187.17098 43.651081 -187.11473 44.088311 -187.04382 L 43.894824 -186.98594 L 44.622605 -186.95959 C 44.623786 -186.95954 44.624538 -186.95963 44.625717 -186.95959 C 45.26286 -186.85426 45.432345 -186.91051 45.432345 -187.23295 C 45.432345 -187.37511 45.3781 -187.47762 45.265313 -187.54766 C 45.157261 -187.65858 44.944877 -187.70729 44.622605 -187.69132 C 44.546913 -187.68758 44.511843 -187.6847 44.451942 -187.68151 C 43.447166 -187.85045 41.210791 -189.21766 41.203642 -189.71497 C 41.202355 -189.80506 41.156936 -189.88668 41.085372 -189.94648 C 41.084398 -189.9473 41.083761 -189.94826 41.082778 -189.94907 C 41.021318 -190.04241 40.881707 -190.10823 40.719666 -190.10823 z M 50.505544 -188.95068 C 50.624392 -188.93598 50.738997 -188.91755 50.833382 -188.88453 C 51.051003 -188.75207 51.361087 -188.49519 51.652979 -188.19052 L 52.416552 -187.39367 L 52.19246 -187.39677 C 51.542064 -187.49002 49.685264 -187.54794 48.525025 -187.48617 L 48.092403 -187.46291 L 49.205601 -188.21739 C 49.742406 -188.58125 50.270495 -188.87506 50.505544 -188.95068 z M 40.698397 -188.93828 C 40.730082 -188.93794 40.756741 -188.92854 40.780876 -188.91451 C 40.790671 -188.80191 40.80049 -188.70336 40.809925 -188.54347 L 40.864392 -187.61639 C 40.823994 -187.54087 40.757686 -187.49325 40.657418 -187.4624 L 39.820184 -187.4624 C 39.464584 -187.4624 39.130379 -187.51778 38.890617 -187.59676 L 39.601798 -188.20447 C 40.175569 -188.69491 40.508612 -188.93981 40.698397 -188.93828 z M 41.416841 -188.67318 C 41.508048 -188.67265 41.638525 -188.61014 41.812634 -188.49386 C 41.846757 -188.45776 41.879702 -188.42581 41.915861 -188.38224 C 42.085973 -188.17723 42.27108 -188.05338 42.349003 -188.08613 C 42.363774 -188.0741 42.374842 -188.06598 42.389982 -188.05358 L 42.898858 -187.63603 C 42.873211 -187.53864 42.512051 -187.4624 42.042432 -187.4624 C 41.677379 -187.4624 41.458406 -187.48181 41.322432 -187.55283 C 41.224817 -187.64986 41.199009 -187.80473 41.198974 -188.06184 C 41.199026 -188.47039 41.245083 -188.67433 41.416841 -188.67318 z M 34.202836 -187.43139 C 34.011043 -187.43234 33.809759 -187.41715 33.645199 -187.3854 C 33.444739 -187.34685 33.463474 -187.31361 33.62445 -187.29135 C 33.501989 -187.24268 33.706565 -187.20438 34.187793 -187.20195 C 34.769877 -187.19895 35.038856 -187.25095 34.785891 -187.31719 L 34.785891 -187.3177 C 34.785302 -187.31786 34.784408 -187.31807 34.783816 -187.31822 C 34.812524 -187.33603 34.790884 -187.35733 34.703412 -187.38023 C 34.57693 -187.41318 34.394629 -187.43044 34.202836 -187.43139 z M 35.803124 -187.43088 C 35.711159 -187.43461 35.606057 -187.4174 35.510559 -187.3792 C 35.35799 -187.31812 35.35334 -187.26932 35.476323 -187.24174 C 35.452803 -187.19639 35.545841 -187.16502 35.753326 -187.15647 C 36.032241 -187.14497 36.188277 -187.20757 36.100358 -187.29548 C 36.084477 -187.31136 36.060034 -187.32196 36.036035 -187.33269 C 36.032023 -187.34115 36.026936 -187.34947 36.017879 -187.35853 C 35.973919 -187.40248 35.89509 -187.42714 35.803124 -187.43088 z M 30.533326 -187.42829 C 30.413326 -187.42829 30.293326 -187.41021 30.202375 -187.37351 C 30.092759 -187.32922 30.11521 -187.29147 30.220531 -187.26706 C 30.182912 -187.21522 30.328622 -187.17714 30.615805 -187.17714 C 30.979607 -187.17714 31.128657 -187.23704 30.946756 -187.31047 C 30.944325 -187.31145 30.940927 -187.31158 30.938456 -187.31254 C 30.940023 -187.33087 30.918553 -187.35163 30.864277 -187.37351 C 30.773327 -187.41021 30.653327 -187.42829 30.533326 -187.42829 z M 49.217013 -186.53636 L 49.123123 -184.89253 L 49.029232 -183.2487 L 41.087446 -183.23682 C 36.308997 -183.22984 33.87129 -183.2918 33.401395 -183.43474 C 33.402089 -183.43687 33.398505 -183.43878 33.399839 -183.44094 C 33.494289 -183.59376 33.432319 -183.88719 33.261856 -184.09258 C 33.195433 -184.17261 33.132465 -184.22934 33.068369 -184.26776 C 32.873757 -184.45579 32.718714 -184.4538 32.476496 -184.25277 C 32.194006 -184.01832 31.863763 -184.05798 31.053615 -184.42331 C 29.999535 -184.89863 29.650199 -184.85208 30.054018 -184.53338 C 30.343538 -184.27567 31.107449 -183.84926 31.869061 -183.56961 L 32.384162 -183.38048 C 32.045611 -183.2889 31.616139 -183.22855 31.118456 -183.22855 C 30.311656 -183.22855 29.715613 -183.16445 29.794133 -183.08592 C 29.799654 -183.0804 29.873453 -183.0752 29.920185 -183.0699 C 29.881526 -183.05501 29.860759 -183.03976 29.876612 -183.02391 C 29.955132 -182.94541 34.32069 -182.88748 39.577937 -182.89523 L 49.056725 -182.90919 L 49.101855 -181.71081 L 49.149578 -180.45042 L 49.203526 -181.1372 L 49.232057 -180.38841 L 49.331134 -181.64518 L 49.430212 -182.90195 L 54.641393 -182.96241 L 59.852056 -183.02236 L 57.461739 -183.05802 L 59.769577 -183.08437 L 54.54439 -183.16189 L 49.399088 -183.23888 L 49.350328 -184.82587 L 49.299492 -186.47383 L 49.2471 -185.55812 L 49.217013 -186.53636 z M 40.965544 -186.45781 C 40.958767 -186.45413 40.952258 -186.44435 40.946351 -186.4299 C 40.922537 -186.37071 40.906511 -186.22511 40.903815 -186.00719 C 40.898744 -185.59723 40.947373 -185.39101 41.013268 -185.51523 C 41.035374 -185.40579 41.068421 -185.37816 41.108196 -185.47647 C 41.180676 -185.65561 41.185102 -186.01279 41.118052 -186.27022 C 41.084512 -186.39894 41.05271 -186.42689 41.02883 -186.36789 C 41.027852 -186.36547 41.027187 -186.3582 41.026236 -186.35549 C 41.004482 -186.42754 40.983556 -186.46758 40.965544 -186.45781 z M 32.781511 -181.91338 C 32.77573 -181.90223 32.770402 -181.87999 32.76543 -181.84724 C 32.74554 -181.71622 32.732462 -181.41615 32.731712 -180.97959 C 32.73022 -180.11148 32.778122 -179.723 32.838052 -180.11039 C 32.857678 -179.87875 32.88698 -179.82528 32.921568 -180.05303 C 32.981938 -180.45061 32.983042 -181.16498 32.924162 -181.64053 C 32.894712 -181.8783 32.867798 -181.91573 32.847908 -181.78471 C 32.845345 -181.76783 32.844009 -181.72495 32.841684 -181.70254 C 32.819604 -181.88088 32.798853 -181.94684 32.781511 -181.91338 z M 49.157878 -180.31813 C 49.100678 -180.31813 49.054132 -180.13954 49.054132 -179.92126 C 49.054132 -179.74076 49.1344 -179.59377 49.241394 -179.54609 C 49.393199 -179.38062 49.641994 -179.48173 49.497129 -179.85924 C 49.413369 -180.07752 49.297547 -180.25612 49.240356 -180.25612 C 49.239026 -180.25612 49.238043 -180.25321 49.236725 -180.25302 C 49.206248 -180.29079 49.177886 -180.31813 49.157878 -180.31813 z " /><path
         style="opacity:1;fill:none;fill-opacity:1;stroke:#3bffda;stroke-width:0.79526;stroke-dasharray:none;stroke-opacity:1;marker-start:url(#Dot);marker-mid:url(#Dot);marker-end:url(#Dot)"
         d="m 30.414614,-184.59015 2.171887,1.11272 8.067009,-6.18185 4.59199,3.58548 5.522798,-3.40002 4.219666,4.76002 2.730372,-7.10913"
         id="path15"
         sodipodi:nodetypes="ccccccc" /></g><g
       id="g34"
       transform="translate(65.098393,1.2899782)"
       style="stroke:#ffffff;stroke-opacity:1" /></g></svg>
