<?xml version="1.0" encoding="UTF-8" standalone="no"?>
<!-- Created with Inkscape (http://www.inkscape.org/) -->

<svg
   width="216.66667"
   height="155.30302"
   viewBox="0 0 57.326392 41.090592"
   version="1.1"
   id="svg1"
   xml:space="preserve"
   sodipodi:docname="graph2_placeholder.svg"
   inkscape:version="1.4 (e7c3feb100, 2024-10-09)"
   inkscape:export-filename="screensaver-mockup.png"
   inkscape:export-xdpi="96"
   inkscape:export-ydpi="96"
   xmlns:inkscape="http://www.inkscape.org/namespaces/inkscape"
   xmlns:sodipodi="http://sodipodi.sourceforge.net/DTD/sodipodi-0.dtd"
   xmlns="http://www.w3.org/2000/svg"
   xmlns:svg="http://www.w3.org/2000/svg"><sodipodi:namedview
     id="namedview1"
     pagecolor="#ffffff"
     bordercolor="#000000"
     borderopacity="0.25"
     inkscape:showpageshadow="2"
     inkscape:pageopacity="0.0"
     inkscape:pagecheckerboard="0"
     inkscape:deskcolor="#d1d1d1"
     inkscape:document-units="mm"
     inkscape:zoom="1.97"
     inkscape:cx="206.59898"
     inkscape:cy="75.126904"
     inkscape:window-width="1536"
     inkscape:window-height="897"
     inkscape:window-x="0"
     inkscape:window-y="0"
     inkscape:window-maximized="1"
     inkscape:current-layer="g12"
     showguides="true"><sodipodi:guide
       position="-4.8100459,147.98238"
       orientation="1,0"
       id="guide1"
       inkscape:locked="false" /></sodipodi:namedview><defs
     id="defs1"><clipPath
       clipPathUnits="userSpaceOnUse"
       id="clipPath27"><ellipse
         style="opacity:0.383255;fill:#ff00fc;fill-opacity:0.718918;stroke:none;stroke-width:12.8405"
         id="ellipse27"
         cx="-262.73123"
         cy="147.37291"
         rx="63.499996"
         ry="63.5" /></clipPath></defs><g
     inkscape:label="Layer 1"
     inkscape:groupmode="layer"
     id="layer1"
     transform="translate(39.839836,-178.98662)"><g
       id="g12"
       transform="matrix(0.99620687,0,0,1,-5.3008065,398.94167)"><path
         id="path5"
         style="fill:#3bffda;fill-opacity:1"
         d="m 12.483125,-214.65213 -11.90178602,0.0424 -11.90178598,0.0424 11.77002806,0.23202 11.76950894,0.23203 2.54853,2.43758 2.548011,2.43758 0.03527,11.8401 0.03579,11.84011 h -1.719597 -1.720115 l -0.03112,-2.05053 c -0.01724,-1.12778 -0.0092,-2.21264 0.01816,-2.4107 0.02733,-0.19807 -0.191633,-0.58461 -0.486571,-0.85938 -0.819834,-0.7638 -1.719451,-2.43046 -3.5668005,-6.60683 -0.92823,-2.09848 -2.1322304,-4.76777 -2.6756194,-5.93194 -0.543389,-1.16417 -1.004853,-2.47385 -1.025533,-2.91042 -0.03092,-0.65275 -0.1637677,-0.80847 -0.7474927,-0.87591 -0.68099,-0.0787 -1.3958549,0.63157 -1.2117579,1.20354 0.132382,0.41129 -5.6698382,9.59444 -5.9519302,9.4201 -0.152979,-0.0945 -0.205032,-0.0543 -0.116196,0.0894 0.161384,0.26112 -2.6302856,3.78892 -2.9982706,3.78892 -0.349482,0 -2.3848766,-2.18055 -3.7530256,-4.02043 -0.736414,-0.99033 -1.4772861,-1.80041 -1.6464551,-1.80041 -0.492344,0 -0.942536,0.58594 -0.942536,1.2268 0,0.51552 0.111127,0.57681 0.860058,0.47439 0.7801399,-0.10668 0.9698332,0.0195 2.0500282,1.36271 0.654843,0.81428 1.4741583,1.82731 1.8202303,2.25102 0.346072,0.42372 0.5606457,0.7705 0.4767147,0.7705 -0.08393,0 -1.3759236,-0.97443 -2.8706626,-2.16524 -2.6954666,-2.14739 -4.5723626,-3.38178 -5.1510086,-3.38791 -0.165426,-0.002 -1.550817,1.7222 -3.078674,3.83077 -2.359382,3.25614 -2.827739,3.77325 -3.109798,3.43339 -0.20876,-0.25154 -0.539404,-0.33651 -0.890144,-0.22893 -0.810284,0.24853 -0.826779,0.30658 -0.26974,0.95446 l 0.505763,0.58808 -0.661383,-0.43253 c -0.363803,-0.23801 -0.631884,-0.5616 -0.595504,-0.71882 0.03638,-0.15722 -0.06012,-0.28577 -0.214236,-0.28577 -0.154109,0 -0.195131,-0.1374 -0.0913,-0.30541 0.106763,-0.17274 0.07378,-0.23431 -0.07625,-0.14159 -0.145909,0.0902 -1.027648,-0.8989 -1.95925,-2.1978 -1.812132,-2.52661 -2.433916,-2.85194 -3.087493,-1.61541 -0.461701,0.87352 -0.18648,1.03029 0.566974,0.32246 0.513991,-0.48287 0.654016,-0.51837 0.777579,-0.19637 0.08285,0.2159 0.82517,1.2846 1.649568,2.37454 0.824397,1.08994 1.512156,2.08053 1.528703,2.20141 0.05246,0.38324 1.426792,1.41025 1.887147,1.41025 0.912113,0 1.520882,-0.63976 4.275907,-4.49378 l 2.827089,-3.9548 0.816484,0.45372 c 0.902698,0.5022 6.2465703,4.52964 6.2465703,4.70772 0,0.0617 -0.1855219,0.11214 -0.4123919,0.11214 -0.226869,0 -0.3441254,-0.11102 -0.2604034,-0.24649 0.23765,-0.38453 -0.3952491,-0.64315 -0.7371181,-0.30128 -0.230896,0.2309 -0.2195054,0.35865 0.047205,0.52348 0.254235,0.15713 0.1637873,0.25408 -0.3236887,0.34727 -0.372106,0.0711 -0.7101856,0.053 -0.7516426,-0.0403 -0.04146,-0.0934 -0.5770466,-0.5688 -1.1899716,-1.05626 -0.966182,-0.7684 -1.256473,-0.86736 -2.182824,-0.74311 -0.718135,0.0963 -1.011576,0.0514 -0.894812,-0.13746 0.113941,-0.18436 -0.04564,-0.22284 -0.463228,-0.11111 -0.350178,0.0937 -0.91891,0.17216 -1.26415,0.17415 -0.537927,0.003 -0.578668,0.0626 -0.285821,0.41548 0.292714,0.3527 0.06276,0.69254 -1.601844,2.36833 -1.068827,1.076 -2.044226,1.89383 -2.167781,1.81746 -0.123556,-0.0764 -0.191975,-0.0149 -0.151989,0.13695 0.08469,0.32145 -1.637368,1.87856 -2.078558,1.87947 -0.164467,3.5e-4 -1.393392,-1.24964 -2.731124,-2.77761 -2.262207,-2.58391 -3.148557,-3.25886 -3.214063,-2.4474 -0.01468,0.18191 -0.0047,1.84878 0.02282,3.70417 0.03533,2.38918 -0.03828,3.37344 -0.253141,3.37344 -0.166859,0 -0.218026,0.13851 -0.113603,0.30747 0.14231,0.23026 3.371046,0.26339 12.891527,0.13229 6.9858385,-0.0962 17.265797,-0.17518 22.844436,-0.17518 h 10.142767 v -12.10934 -12.10934 l -2.716599,-2.70732 z m -31.29043,5.49217 c -0.352044,0.0559 -0.658189,0.23916 -0.938905,0.55345 -0.651508,0.72943 -0.665893,3.21355 -0.0223,3.85713 0.543895,0.5439 1.928115,0.53225 2.54023,-0.0217 0.26612,-0.24084 0.483977,-0.59803 0.483977,-0.79375 0,-0.19573 0.119032,-0.35605 0.264553,-0.35605 0.145521,0 0.264554,0.35719 0.264554,0.79375 0,0.52916 0.132247,0.79375 0.39683,0.79375 0.286632,0 0.39683,-0.29397 0.39683,-1.05833 0,-1.03313 0.02194,-1.05834 0.925936,-1.05834 0.646759,0 0.925937,-0.11969 0.925937,-0.39687 0,-0.27719 -0.279178,-0.39688 -0.925937,-0.39688 -0.818718,0 -0.925936,-0.0789 -0.925936,-0.68161 0,-0.63641 0.07311,-0.67649 1.10438,-0.60203 0.698532,0.0504 1.144477,-0.0395 1.212795,-0.24443 0.07736,-0.23208 -0.3487,-0.32401 -1.50121,-0.32401 h -1.609625 l -0.02127,1.52135 c -0.02217,1.61455 -0.0966,1.61084 -0.369856,-0.0191 -0.134846,-0.80435 -0.336475,-1.08172 -0.985072,-1.35444 -0.465786,-0.19584 -0.863864,-0.26773 -1.215908,-0.21187 z m -8.785244,0.0641 v 2.33732 c 0,1.28543 0.07935,2.41654 0.176369,2.51355 0.420412,0.42041 0.617291,0.0967 0.617291,-1.01441 0,-1.17803 0.01021,-1.19098 0.926455,-1.2237 1.43604,-0.0513 1.592607,-0.0988 1.514697,-0.46147 -0.03999,-0.18611 0.0298,-0.27536 0.155101,-0.19792 0.1253,0.0774 0.248773,0.69575 0.27441,1.37356 0.04957,1.31045 0.183471,1.70015 0.58461,1.70015 0.136933,0 0.248992,-0.53578 0.248992,-1.19062 0,-1.09361 0.05382,-1.19063 0.661383,-1.19063 0.497627,0 0.671526,0.14745 0.701844,0.59531 0.02217,0.32743 0.05244,0.77223 0.06692,0.98857 0.01448,0.21634 0.219375,0.43048 0.455446,0.47594 0.512021,0.0986 0.828754,-1.09204 0.403574,-1.51722 -0.194782,-0.19478 -0.179602,-0.55179 0.05084,-1.18907 0.517193,-1.43027 0.02151,-1.99936 -1.741902,-1.99936 -1.389153,0 -1.391999,10e-4 -1.413545,0.85989 l -0.02127,0.8599 -0.376081,-0.8599 c -0.358712,-0.82025 -0.443215,-0.85989 -1.830605,-0.85989 z m 15.223745,0 c -0.337717,0 -0.407204,0.43078 -0.407204,2.53576 0,1.91053 0.08175,2.50827 0.33095,2.42569 0.224791,-0.0745 0.35498,-0.88634 0.406686,-2.53524 0.06395,-2.03935 0.01154,-2.42621 -0.330432,-2.42621 z m 1.312911,0 c -0.41936,0 -0.479901,0.4836 -0.397349,3.16983 0.02451,0.79746 0.100896,1.54161 0.170144,1.65365 0.149951,0.24263 1.4660446,0.26999 2.0578096,0.0429 0.732874,-0.28123 0.4504665,-0.63304 -0.5078385,-0.63304 h -0.9259361 v -2.11666 c 0,-1.70509 -0.07713,-2.11667 -0.39683,-2.11667 z m 2.5132559,0 v 2.33732 c 0,1.28543 0.084745,2.42188 0.1882997,2.52543 0.314496,0.31449 2.803806,0.06 2.922017,-0.29869 0.07526,-0.22838 -0.2255399,-0.33073 -0.9715849,-0.33073 -1.024036,0 -1.0799999,-0.0414 -1.0799999,-0.79375 0,-0.73427 0.070673,-0.79375 0.9477232,-0.79375 1.287086,0 1.0591617,-0.61033 -0.3070893,-0.82217 -0.570708,-0.0885 -0.7993983,-0.1875 -0.5083573,-0.21963 0.3005,-0.0332 0.3859676,-0.11593 0.1981556,-0.19171 -0.181901,-0.0734 -0.3304322,-0.30234 -0.3304322,-0.5085 0,-0.26091 0.3215301,-0.37465 1.0582131,-0.37465 0.582083,0 1.0582132,-0.11907 1.0582132,-0.26459 0,-0.14699 -0.7053748,-0.26458 -1.5873198,-0.26458 z m -17.6026499,0.52917 c 0.474324,0 0.611075,0.10931 0.499539,0.39997 -0.08447,0.22013 -0.0069,0.57732 0.172738,0.79375 0.277192,0.334 0.20167,0.39378 -0.499539,0.39378 -0.741552,0 -0.82634,-0.0813 -0.82634,-0.79375 0,-0.66758 0.104264,-0.79375 0.653602,-0.79375 z m 7.840115,0 c 0.454596,0 1.031758,1.20551 1.031758,2.15594 0,0.48874 -0.869412,1.54822 -1.270375,1.54822 -0.116417,0 -0.354482,-0.14266 -0.529107,-0.31729 -0.174625,-0.17462 -0.317463,-0.8654 -0.317463,-1.53479 0,-1.27981 0.335186,-1.85208 1.085187,-1.85208 z m -3.769625,0.0512 c 0.149195,0.0307 0.298324,0.0994 0.432622,0.21084 0.567605,0.47107 0.183094,1.02692 -0.693026,1.00201 -0.639815,-0.0182 -0.77052,-0.12455 -0.705994,-0.57412 0.06868,-0.4785 0.518813,-0.73069 0.966398,-0.63873 z m -4.121844,0.58136 c -0.06935,0.0693 -0.04716,0.25304 0.04876,0.40825 0.260892,0.42213 0.413371,0.34013 0.234466,-0.12609 -0.08617,-0.22456 -0.213872,-0.35152 -0.283226,-0.28216 z m 31.3407461,2.63085 c 0.546146,0 0.934787,0.68471 2.974409,5.24258 1.274176,2.84736 1.7234923,4.11622 1.5069163,4.254 -0.169751,0.10799 -0.214894,0.19827 -0.100634,0.2005 0.114261,0.002 0.077748,0.27203 -0.080922,0.59945 -0.275884,0.5693 -0.2705332,0.57281 0.1203458,0.0853 0.5217218,-0.65079 0.8249318,-0.37859 0.3771181,0.33848 -0.25173,0.40308 -0.4252248,0.46892 -0.6795388,0.25786 -0.187897,-0.15594 -0.3418444,-0.44756 -0.3418444,-0.64802 0,-0.20046 -0.1144564,-0.36432 -0.2546974,-0.36432 -0.329355,0 -2.9199421,-3.92225 -2.9199421,-4.42092 0,-0.20851 -0.1798045,-0.55914 -0.3994235,-0.77876 -0.219619,-0.21962 -0.3316774,-0.50855 -0.2489914,-0.64234 0.08269,-0.13379 0.026325,-0.24339 -0.1250144,-0.24339 -0.151337,0 -0.3496141,-0.29766 -0.4409221,-0.66146 -0.182643,-0.72771 -0.8316298,-0.88905 -1.0706628,-0.26614 -0.08344,0.21745 -0.2786569,0.31698 -0.4336599,0.22118 -0.176731,-0.10922 -0.2190325,-0.01 -0.1130835,0.26613 0.09292,0.24215 0.053813,0.44029 -0.087147,0.44029 -0.140954,0 -0.2423616,0.0893 -0.2251296,0.19843 0.08519,0.53956 -0.054816,1.14124 -0.2391355,1.02733 -0.114338,-0.0707 -0.2198968,0.0712 -0.2344668,0.31523 -0.03022,0.50606 -2.99694599,8.174 -3.396138,8.77776 -0.144321,0.21829 -0.6370212,0.65955 -1.0950432,0.9803 l -0.8330834,0.58291 -0.6883573,-1.04077 c -0.378723,-0.57229 -0.6844869,-1.1321 -0.6795389,-1.24436 0.0049,-0.11226 0.606631,-0.85896 1.337291,-1.65933 1.328361,-1.45508 2.73972381,-3.49883 6.1656478,-8.92814 1.002964,-1.58947 1.9955282,-2.88975 2.2056482,-2.88975 z m -1.3616713,3.30058 c 0.1307698,0.0181 0.3838008,0.38281 0.7381555,1.06918 0.88917,1.7224 0.7717045,2.03649 -0.2080115,0.55604 -0.393828,-0.59511 -0.6725729,-1.28193 -0.6193659,-1.52652 0.015637,-0.0719 0.045632,-0.10473 0.089222,-0.0987 z m -9.0176361,7.98814 c -0.478417,0 -0.51149,0.30892 -0.079366,0.74104 0.426981,0.42698 0.476196,0.40489 0.476196,-0.21187 0,-0.29398 -0.176344,-0.52917 -0.39683,-0.52917 z m 16.2217853,0.79375 c 0.25809,0 1.481846,2.36062 1.311873,2.53059 -0.07685,0.0768 -0.506889,-0.36027 -0.956023,-0.971 -0.735954,-1.00074 -0.863694,-1.55959 -0.35585,-1.55959 z m -31.239075,4.3274 c -0.01453,-0.0344 -0.10944,-0.009 -0.291009,0.0605 -0.238864,0.0917 -0.434178,0.27312 -0.434178,0.40308 0,0.34024 0.152741,0.29221 0.533775,-0.16691 h 5.19e-4 c 0.139803,-0.16846 0.205427,-0.26225 0.190893,-0.29663 z"
         sodipodi:nodetypes="sccsssssccsssscssssssscsssscccccsssssssssssssssssssscssccssscssssscssssssssssccsssssscsscssssssssssssscsscsssssssssssssscsscssscscsscsssscsssssssssssssssccssccscssssssssssccssssssssssssssscssssccsscssssssscccccsscscscccsccccc" /><path
         id="path6"
         style="fill:#16a98d;fill-opacity:1"
         d="m -10.137797,-214.64467 c -0.695615,0.0547 -0.193375,0.1 1.1163118,0.10077 1.309685,8.3e-4 1.8787404,-0.0442 1.2646684,-0.0997 -0.614073,-0.055 -1.6853658,-0.0552 -2.3809802,-5.2e-4 z m 15.7346966,0.26304 c -1.200547,0.049 -0.21827,0.0889 2.182824,0.0889 2.4010924,0 3.3833704,-0.0399 2.182824,-0.0889 -1.200547,-0.049 -3.165101,-0.049 -4.365648,0 z m 7.0988464,0.53846 c -0.30285,-0.24916 0.518765,0.64361 1.825418,1.98386 1.306653,1.34025 2.434881,2.43706 2.507031,2.43706 0.07215,0 -0.732866,-0.86988 -1.788588,-1.9327 -1.055722,-1.06281 -1.85635,-2.01531 -1.77925,-2.11666 0.07709,-0.1013 0.0605,-0.12426 -0.03683,-0.0512 -0.09733,0.0731 -0.42493,-0.0712 -0.727781,-0.3204 z m -21.1632255,4.55316 -0.089741,2.22674 c -0.04942,1.22476 -0.02934,2.38562 0.04513,2.57969 0.092747,0.2417 0.5756789,0.33736 1.5328529,0.30386 l 1.3974639,-0.0491 -1.3891642,-0.0971 -1.3891641,-0.0971 -0.053429,-2.43344 z m -16.6429955,0.13636 c -0.189341,0.002 -0.156508,0.10686 0.08196,0.26097 0.508297,0.32849 0.599846,0.32849 0.39683,0 -0.08994,-0.14552 -0.305477,-0.26297 -0.478789,-0.26097 z m 11.937059,0.12162 c -0.08146,-0.0815 -0.229516,0.0651 -0.328876,0.32608 -0.143585,0.37708 -0.11295,0.40767 0.148357,0.14831 0.180821,-0.17948 0.261979,-0.39289 0.180519,-0.47439 z m 5.4238615,0.56328 c -0.024188,0.0599 -0.039424,0.1881 -0.039424,0.37 0,0.36383 0.059914,0.51263 0.1333141,0.33073 0.0734,-0.1819 0.0734,-0.47956 0,-0.66146 -0.036701,-0.0909 -0.069703,-0.0992 -0.093891,-0.0393 z m -19.8508345,0.20513 c -0.02782,0.0278 -0.04708,0.12081 -0.05343,0.27492 -0.01149,0.27887 0.0511,0.43517 0.13902,0.34727 0.08792,-0.0879 0.0977,-0.31595 0.02127,-0.50695 -0.04223,-0.10553 -0.07904,-0.14306 -0.106859,-0.11524 z m 6.878905,0 c -0.02782,0.0278 -0.04656,0.12081 -0.05291,0.27492 -0.01149,0.27887 0.0511,0.43517 0.13902,0.34727 0.08792,-0.0879 0.09718,-0.31595 0.02075,-0.50695 -0.04223,-0.10553 -0.07904,-0.14306 -0.106858,-0.11524 z m -3.130029,0.076 c -0.01926,0.15478 -0.03156,0.5056 -0.03216,1.01492 -0.0012,1.01869 0.04582,1.46757 0.104265,0.99787 0.05842,-0.46969 0.05936,-1.30313 0.0021,-1.85208 -0.02864,-0.27448 -0.05492,-0.3155 -0.07418,-0.16071 z m -0.574236,0.18865 c -0.02782,0.0278 -0.04656,0.1208 -0.05291,0.27491 -0.01149,0.27886 0.0511,0.43517 0.13902,0.34727 0.08792,-0.0879 0.09718,-0.31596 0.02075,-0.50695 -0.04223,-0.10553 -0.07904,-0.14305 -0.10686,-0.11523 z m 7.703688,0.51885 c -0.02183,0.0834 -0.03642,0.28101 -0.03787,0.57205 -0.0029,0.58209 0.04894,0.85139 0.115159,0.59842 0.06618,-0.25296 0.06848,-0.72922 0.0052,-1.05834 -0.03164,-0.16456 -0.06065,-0.1955 -0.08248,-0.11213 z m -2.917867,0.186 c -0.02193,0.0839 -0.03579,0.26366 -0.03579,0.51832 0,0.50932 0.05483,0.71768 0.121384,0.46302 0.06655,-0.25466 0.06655,-0.67138 0,-0.92604 -0.03327,-0.12733 -0.06366,-0.13922 -0.08559,-0.0553 z m 12.2752726,0.0656 c -0.329118,0.0633 -0.1219678,0.11741 0.4601152,0.12041 0.582087,0.003 0.8510629,-0.0485 0.5980979,-0.11472 -0.252964,-0.0659 -0.7290941,-0.0685 -1.0582131,-0.005 z m -15.4763676,0.005 c -0.257431,0.0671 -0.110798,0.12678 0.325764,0.13178 0.436567,0.005 0.647546,-0.0495 0.468415,-0.12196 -0.179132,-0.0727 -0.536748,-0.0769 -0.794179,-0.01 z m 28.7237439,0.0739 c -0.1956671,-0.009 -0.4746141,0.12461 -0.7874351,0.40411 l -0.6229971,0.55604 0.7080691,-0.41858 c 0.533476,-0.31562 0.7399296,-0.33919 0.8387896,-0.0951 0.097536,0.24106 0.1364584,0.24362 0.1519884,0.009 0.019459,-0.29357 -0.092748,-0.44641 -0.2884149,-0.45579 z m -21.0506609,0.45528 c -0.257431,0.0671 -0.1108,0.12677 0.325763,0.13177 0.436566,0.005 0.647029,-0.0494 0.467897,-0.12195 -0.179131,-0.0727 -0.536229,-0.0769 -0.79366,-0.01 z m -6.604495,0.34261 c -0.02419,0.0599 -0.03942,0.18811 -0.03942,0.37001 0,0.36383 0.05991,0.51263 0.133314,0.33073 0.0734,-0.1819 0.0734,-0.47956 0,-0.66146 -0.0367,-0.0909 -0.0697,-0.0992 -0.09389,-0.0393 z m 14.0384424,0.11628 c -0.021931,0.0839 -0.035274,0.26365 -0.035274,0.51831 0,0.50932 0.054315,0.71768 0.1208645,0.46302 0.06655,-0.25466 0.06655,-0.67138 0,-0.92604 -0.033275,-0.12733 -0.063659,-0.13922 -0.085591,-0.0553 z m 12.8214974,0.27336 c -0.1336859,-0.0213 -0.2183861,0.10781 -0.2183861,0.39274 0,0.22687 0.1109316,0.34364 0.2463976,0.25994 0.135466,-0.0837 0.3209919,-0.0311 0.4123919,0.11679 0.091404,0.1479 0.2198926,0.26923 0.2853026,0.26923 0.065405,0 -0.029884,-0.23812 -0.2116426,-0.52917 -0.1976035,-0.31641 -0.3803775,-0.48823 -0.5140634,-0.50953 z m -22.8433988,0.63459 c -0.0444,-0.0186 -0.129705,-0.007 -0.247435,0.0382 -0.22584,0.0867 -0.410836,0.20428 -0.410836,0.26148 0,0.21429 0.504448,0.0938 0.659827,-0.15761 0.04635,-0.075 0.04284,-0.12356 -0.0016,-0.14211 z m -6.160979,0.55186 c -0.07446,0.0186 -0.06779,0.14417 0.06795,0.36381 0.09592,0.1552 0.29099,0.28215 0.43366,0.28215 0.142671,0 0.106198,-0.16691 -0.08144,-0.37052 -0.189925,-0.20609 -0.345709,-0.29405 -0.420173,-0.27544 z m 12.767549,0.32815 c -0.165015,0.0189 -0.249829,0.0583 -0.215274,0.1142 0.125743,0.20345 1.9462828,0.29578 1.9462828,0.0987 0,-0.0575 -0.4660649,-0.14879 -1.0359078,-0.20309 -0.284921,-0.0272 -0.530086,-0.0288 -0.695101,-0.01 z m 15.4380402,1.76309 c -0.081462,-0.0815 -0.2295161,0.0651 -0.3288761,0.32608 -0.143585,0.37708 -0.1134684,0.40767 0.1478386,0.14831 0.180821,-0.17948 0.2624975,-0.39289 0.1810375,-0.47439 z m -1.2096829,0.69146 c -0.00944,0.0391 0.01646,0.14132 0.079366,0.308 0.068655,0.1819 -0.8129946,2.74174 -1.9592506,5.68854 -1.14625698,2.9468 -2.05701328,5.35781 -2.02357328,5.35781 0.033441,0 1.22381516,-1.71975 2.64501418,-3.82147 1.421199,-2.10172 2.807511,-4.0615 3.080749,-4.35478 0.519969,-0.55813 0.6660652,-0.95602 0.2588472,-0.70435 -0.130712,0.0808 -0.6191649,-0.44756 -1.0857059,-1.1746 -0.6207833,-0.96741 -0.9671335,-1.41645 -0.9954466,-1.29915 z m 2.1226511,1.66654 c -0.069825,0.0132 -0.1324578,0.0524 -0.1706628,0.1142 -0.076415,0.12364 0.034518,0.2248 0.2463976,0.2248 0.446131,0 0.4851962,-0.0837 0.1390202,-0.29766 -0.067733,-0.0419 -0.1449305,-0.0545 -0.214755,-0.0413 z m -15.4141194,1.75028 c -0.01366,0.0137 0.06628,0.12091 0.2308355,0.33073 0.345643,0.44073 0.5628241,0.58053 0.5628241,0.36277 0,-0.0549 -0.2080479,-0.2633 -0.4627089,-0.46302 -0.2098247,-0.16455 -0.3172937,-0.24414 -0.3309507,-0.23048 z m 15.6019003,0 c -0.195636,0 -7.0709017,9.84333 -7.3094517,10.46499 -0.209214,0.5452 -0.7941577,0.17667 -2.4214407,-1.52548 l -1.5053601,-1.57407 -1.284899,0.1447 c -0.706632,0.0795 -1.4247642,0.26084 -1.5961382,0.40307 -0.178104,0.14778 -0.4678417,0.16218 -0.6759077,0.0336 -0.200204,-0.1237 -0.5370724,-0.15861 -0.7485299,-0.0775 -0.304886,0.117 -0.348008,-0.0172 -0.209568,-0.64751 0.145924,-0.66439 0.06259,-0.86802 -0.507839,-1.24178 -0.375333,-0.24593 -0.617176,-0.55255 -0.537406,-0.68162 0.07977,-0.12908 0.0054,-0.32104 -0.164957,-0.42633 -0.182269,-0.11266 -0.238844,-0.0774 -0.137982,0.0858 0.09968,0.16128 -0.0771,0.28077 -0.422248,0.28577 -1.953538,0.0273 -2.260148,0.21427 -5.854409,3.57601 -2.514486,2.35182 -3.702284,3.29622 -4.002017,3.1812 -0.500662,-0.19212 -4.098501,-4.2867 -4.098501,-4.66432 0,-0.14181 0.208048,-0.0943 0.462709,0.10542 0.419003,0.32859 0.428606,0.31922 0.10219,-0.0971 -0.19839,-0.25304 -0.452355,-0.40291 -0.564899,-0.33331 -0.112543,0.0696 -0.345461,-0.0432 -0.517176,-0.25012 -0.171715,-0.20691 -0.549269,-0.35831 -0.839308,-0.33641 -0.394391,0.0297 -0.490896,0.17551 -0.382824,0.57774 0.07947,0.2958 0.145839,1.82689 0.147839,3.40238 l 0.0036,2.86442 22.5560207,-0.0863 c 12.405651,-0.0475 21.7517733,-0.12184 20.7695083,-0.16484 l -1.785994,-0.078 -0.03112,-2.03864 c -0.01723,-1.12114 -0.01229,-2.14212 0.01089,-2.26911 0.02318,-0.127 -0.147403,-0.15815 -0.379193,-0.0693 -0.243988,0.0937 -0.353475,0.0517 -0.259885,-0.0997 0.08891,-0.14386 0.04229,-0.26149 -0.103227,-0.26149 -0.145521,0 -0.338293,0.11919 -0.428473,0.2651 -0.102591,0.16603 -0.332956,0.17483 -0.615216,0.0238 -0.596635,-0.31931 -2.3780878,-2.80958 -1.870547,-2.61482 0.245067,0.094 0.405927,-0.0135 0.426397,-0.28526 0.01808,-0.24 0.07228,-0.59911 0.120346,-0.79788 0.04806,-0.19876 -0.06128,-0.41596 -0.243285,-0.48266 -0.218183,-0.08 -0.272535,0.0307 -0.159769,0.32453 0.0986,0.25694 0.01422,0.54474 -0.198675,0.67954 -0.5031534,0.31858 -1.0307202,0.30093 -1.0307202,-0.0341 0,-0.35573 -3.4624465,-5.2803 -3.7125645,-5.2803 z M -10.75866,-198.295 c -0.02008,0.002 -0.07473,0.0404 -0.159769,0.11369 -0.382895,0.32993 -0.539516,1.47527 -0.262479,1.92029 0.113239,0.1819 0.272823,0.33073 0.354813,0.33073 0.08199,0 0.0012,-0.17904 -0.18,-0.39739 -0.27813,-0.33512 -0.203792,-0.42189 0.477233,-0.5581 0.5670441,-0.1134 0.7621596,-0.27693 0.6572336,-0.55036 -0.086403,-0.22518 -0.3565106,-0.33505 -0.6416716,-0.26045 -0.514184,0.13446 -0.633118,-0.0662 -0.29464,-0.49816 0.05457,-0.0697 0.06936,-0.10265 0.04928,-0.10025 z m -2.493026,1.16687 c -0.0444,0.0186 -0.0479,0.0671 -0.0016,0.14211 0.08891,0.14386 0.273903,0.262 0.410836,0.262 0.380585,0 0.296524,-0.18998 -0.161845,-0.36587 -0.117729,-0.0452 -0.203039,-0.0568 -0.247435,-0.0382 z m -1.193602,0.14005 c -0.0081,-0.0188 -0.103108,0.05 -0.289452,0.19533 -0.23167,0.1806 -0.51844,0.24017 -0.637522,0.1323 -0.11908,-0.10788 -0.131135,-0.047 -0.02646,0.13487 0.246006,0.42749 0.289277,0.41957 0.722075,-0.13229 0.160646,-0.20484 0.239452,-0.31145 0.231354,-0.33021 z m 5.8201725,0.52865 c -0.013657,0.0137 0.066282,0.1209 0.2308357,0.33073 0.345643,0.44072 0.5633429,0.58052 0.5633429,0.36276 0,-0.0549 -0.2085666,-0.2633 -0.4632276,-0.46302 -0.2098245,-0.16455 -0.3172936,-0.24413 -0.330951,-0.23047 z m 7.1439763,0 c -0.013657,-0.0137 -0.121129,0.0659 -0.330951,0.23047 -0.254661,0.19972 -0.4627089,0.40812 -0.4627089,0.46302 0,0.21776 0.2171802,0.078 0.5628242,-0.36276 0.164551,-0.20983 0.2444929,-0.31708 0.2308357,-0.33073 z m 11.7010362,0.0672 c -0.01689,0.0239 0.01541,0.16309 0.0887,0.42891 0.116593,0.42288 0.07836,0.56963 -0.116714,0.44907 -0.185787,-0.11482 -0.2294862,-0.0213 -0.121384,0.26045 0.154019,0.40133 0.189611,0.40277 0.407205,0.0139 0.148721,-0.26574 0.129328,-0.59989 -0.05187,-0.88883 -0.12282,-0.19585 -0.189046,-0.28742 -0.205937,-0.26355 z m -21.225992,0.72703 c -0.01366,0.0136 0.06628,0.1209 0.230836,0.33073 0.199719,0.25466 0.407768,0.46302 0.462708,0.46302 0.217761,0 0.07762,-0.21763 -0.363112,-0.56328 -0.209824,-0.16455 -0.316775,-0.24413 -0.330432,-0.23047 z m 0.79366,0 c -0.01366,0.0136 0.06628,0.1209 0.2308355,0.33073 0.199719,0.25466 0.4082876,0.46302 0.4632276,0.46302 0.217761,0 0.077617,-0.21763 -0.3631124,-0.56328 -0.2098247,-0.16455 -0.3172937,-0.24413 -0.3309507,-0.23047 z m -16.40386,0.26458 c -0.0058,-0.0165 -0.14352,0.0996 -0.418617,0.33125 -0.30285,0.25493 -0.630451,0.38358 -0.727781,0.28628 -0.09734,-0.0973 -0.176888,-0.038 -0.176888,0.13178 0,0.48423 0.400954,0.3638 0.951355,-0.28629 0.25181,-0.29741 0.377761,-0.44654 0.371931,-0.46302 z m 24.8706025,0 c -0.013657,-0.0137 -0.121129,0.0659 -0.330951,0.23048 -0.254662,0.19972 -0.4627089,0.40802 -0.4627089,0.46302 0,0.21776 0.2171802,0.078 0.5628242,-0.36277 0.164551,-0.20983 0.2444929,-0.31707 0.2308357,-0.33073 z m -5.9529678,0.13177 0.5036888,0.59583 c 0.277215,0.32742 0.5452942,0.59532 0.5955042,0.59532 0.211734,0 0.055239,-0.21312 -0.5042074,-0.68678 z m 4.8444376,0.3974 c -0.07276,0 -0.3476772,0.23812 -0.6110662,0.52916 -0.263387,0.29105 -0.4197917,0.52917 -0.3470317,0.52917 0.07276,0 0.348196,-0.23812 0.611585,-0.52917 0.263387,-0.29104 0.4192729,-0.52916 0.3465129,-0.52916 z m 12.545532,0.28785 c -0.039551,-0.005 -0.054423,0.0641 -0.056023,0.20671 -0.00341,0.30647 -0.076631,0.30736 -0.4668588,0.005 -0.3767841,-0.2918 -0.3688569,-0.24887 0.04098,0.23151 0.757147,0.88742 1.2892365,0.73044 0.6862824,-0.20257 -0.100726,-0.15584 -0.1648289,-0.2357 -0.2043804,-0.24082 z m -14.9560793,0.50592 c -0.584903,0 -0.7107821,0.58604 -0.2417291,1.12448 0.221846,0.25466 0.4893188,0.46302 0.5944668,0.46302 0.105149,0 0.3488552,-0.20836 0.5415562,-0.46302 0.298066,-0.39391 0.2947737,-0.41366 -0.020749,-0.1323 -0.559492,0.49891 -0.7344598,0.40159 -0.5944668,-0.33073 0.090406,-0.47293 0.010967,-0.66145 -0.2790781,-0.66145 z m -10.106973,0.26455 c -0.615558,0 -0.676004,0.0605 -0.39683,0.39687 0.181157,0.21828 0.35971,0.39688 0.39683,0.39688 0.03712,0 0.215673,-0.1786 0.39683,-0.39688 0.279174,-0.33638 0.218728,-0.39687 -0.39683,-0.39687 z m 2.380979,0.008 c -0.145521,0 -0.443102,0.11577 -0.661383,0.25683 -0.218282,0.14107 -0.277797,0.25632 -0.132276,0.25632 0.145521,0 0.443102,-0.11525 0.661383,-0.25632 0.218282,-0.14106 0.277797,-0.25683 0.132276,-0.25683 z m -12.302765,0.25632 c -0.01348,0.0129 0.05337,0.10637 0.194006,0.2868 0.338918,0.43482 1.217564,0.6007 0.958098,0.18087 -0.08093,-0.131 -0.21346,-0.17164 -0.29464,-0.0904 -0.08118,0.0812 -0.336859,-2.2e-4 -0.56853,-0.18086 -0.181423,-0.14146 -0.275457,-0.20925 -0.288934,-0.19637 z m 17.7468572,0.002 c -0.030053,0.004 0.015486,0.0914 0.1203458,0.26355 0.429941,0.70572 0.3547648,1.05793 -0.2297982,1.07693 -0.557115,0.0181 -0.5580161,0.0249 -0.042536,0.26924 0.415265,0.19685 0.3271813,0.22661 -0.4087607,0.13901 -0.76686,-0.0913 -0.9445973,-0.0223 -0.9746973,0.37723 -0.020321,0.26976 0.1036131,0.44198 0.2764841,0.38448 0.172234,-0.0573 0.8303071,-0.23685 1.4628241,-0.39894 1.077202,-0.27606 1.1234791,-0.32442 0.7272621,-0.76223 -0.23265,-0.25708 -0.3603363,-0.53008 -0.2837463,-0.60668 0.076594,-0.0766 -0.065139,-0.30484 -0.3148703,-0.50747 -0.196919,-0.1598 -0.3024541,-0.23914 -0.3325073,-0.23512 z m 1.2159077,0.3933 c -0.08395,-0.0397 -0.098259,0.0486 -0.070029,0.2527 0.039153,0.28315 0.2094883,0.56062 0.3786743,0.61702 0.169187,0.0564 0.307608,0.23389 0.307608,0.39429 0,0.16039 0.2588657,0.56754 0.5752737,0.90434 0.706862,0.75242 0.8583181,0.78229 0.4217291,0.0832 -0.181759,-0.29104 -0.4281572,-0.52917 -0.5472622,-0.52917 -0.1191,0 -0.1567246,-0.0963 -0.084035,-0.21394 0.072689,-0.11761 -0.1507077,-0.5641 -0.4959077,-0.99219 -0.2488795,-0.30864 -0.402102,-0.47649 -0.4860512,-0.51625 z m -9.2235729,0.39947 c -0.07276,0 -0.347677,0.23813 -0.611066,0.52917 -0.263387,0.29104 -0.419273,0.52917 -0.346513,0.52917 0.07276,0 0.347677,-0.23813 0.611066,-0.52917 0.263388,-0.29104 0.419273,-0.52917 0.346513,-0.52917 z m 27.699248,0.29042 c -0.08105,-0.0397 -0.06881,0.0959 0.05343,0.41445 0.122674,0.3197 0.07289,0.38049 -0.181556,0.22324 -0.234902,-0.14518 -0.287589,-0.11411 -0.159251,0.0935 0.1053,0.17086 0.294244,0.24648 0.419654,0.16898 0.12541,-0.0775 0.302836,-0.0203 0.394236,0.12764 0.0914,0.14789 0.221404,0.26923 0.288934,0.26923 0.06753,0 -0.07235,-0.29766 -0.31072,-0.66146 -0.2496,-0.38094 -0.423674,-0.59592 -0.504727,-0.63562 z m -1.455043,0.23883 c -0.01366,0.0137 0.06628,0.12091 0.230836,0.33073 0.19972,0.25466 0.407769,0.46302 0.462709,0.46302 0.217761,0 0.07762,-0.21763 -0.363112,-0.56327 -0.20982,-0.16455 -0.316777,-0.24414 -0.330433,-0.23048 z m 1.66098,1.15808 c -0.02782,0.0278 -0.04656,0.12081 -0.05291,0.27492 -0.01149,0.27887 0.0511,0.43516 0.13902,0.34726 0.08792,-0.0879 0.09718,-0.31595 0.02075,-0.50694 -0.04223,-0.10554 -0.07904,-0.14306 -0.10686,-0.11524 z m -33.611236,0.0713 c -0.631058,0.16502 -0.767664,0.48383 -0.324726,0.75758 0.147894,0.0914 0.204034,0.27056 0.125014,0.39842 -0.193627,0.3133 0.951226,0.0795 1.295274,-0.26458 0.42268,-0.42268 -0.382661,-1.07785 -1.095562,-0.89142 z m 34.514348,0.0971 c -0.18934,0.002 -0.157025,0.10686 0.08144,0.26097 0.508298,0.32849 0.599846,0.32849 0.39683,0 -0.08994,-0.14552 -0.304958,-0.26297 -0.47827,-0.26097 z m -33.971755,0.0951 c 0.04796,-0.0212 0.113983,-0.0114 0.186744,0.0336 0.145521,0.0899 0.264553,0.21588 0.264553,0.28008 0,0.0642 -0.119032,0.11679 -0.264553,0.11679 -0.145521,0 -0.264553,-0.12649 -0.264553,-0.2806 0,-0.077 0.02985,-0.12871 0.07781,-0.14986 z m -4.443457,0.29766 0.77706,0.8599 c 0.724371,0.8015 0.942536,0.98162 0.942536,0.77721 0,-0.0455 -0.387114,-0.43248 -0.860057,-0.85989 z m 2.116426,0 0.641671,0.72761 c 0.352788,0.40018 0.679873,0.7276 0.727263,0.7276 0.207506,0 0.0389,-0.21439 -0.641153,-0.8139 z m 20.9313525,0.0253 c -0.202694,0.0778 -0.3107303,0.35735 -0.2412103,0.62321 0.069357,0.26522 -0.00365,0.56211 -0.1618444,0.65991 -0.158198,0.0978 -0.2873775,0.0119 -0.2873775,-0.19068 0,-0.20262 -0.1795001,-0.36846 -0.3983861,-0.36846 -0.339329,0 -0.3327984,0.0716 0.041499,0.48524 0.515829,0.56998 0.6714437,0.59364 1.0976367,0.16744 0.454836,-0.45483 0.414588,-1.55506 -0.050317,-1.37666 z m -17.1451285,0.10748 c -0.07276,0 -0.347677,0.23813 -0.611066,0.52917 -0.263388,0.29104 -0.419273,0.52917 -0.346513,0.52917 0.07276,0 0.347678,-0.23813 0.611067,-0.52917 0.263387,-0.29104 0.419272,-0.52917 0.346512,-0.52917 z m 16.7192496,3.02373 c 0.291042,0 0.5291066,0.15293 0.5291066,0.34003 0,0.35745 -0.5803803,0.46529 -0.8818443,0.16382 -0.317041,-0.31704 -0.1862323,-0.50385 0.3527377,-0.50385 z m -20.0173466,2.20295 c -3.078616,-0.0371 -5.542347,0.0221 -5.474697,0.13126 0.06765,0.10914 3.95606,0.17237 8.640518,0.14107 8.485821,-0.0567 7.46953,-0.14402 -3.165821,-0.27233 z"
         sodipodi:nodetypes="sssssssssccscccccssssssssssssssssssssssssssscsssssssscsssccssssssssssscssccccsscccccsccsssssscsssssssssssssscsscssssscsccsssssssssssssssccccssssscsssscsssscscccscccssssssssscsssssssssccssssssssssssssssssssssssssssssssssscssssccssssscssscsccssssssssssssssssssssssssssssssssssssscssccsccsccccssssssssssscssscsscsssssscccsssssssssssssssssssscccssscsssccsssccccccccccscssssssssssssssscssscsscsscsssssscssc" /></g><g
       id="g34"
       transform="translate(65.098393,1.2899782)"
       style="stroke:#ffffff;stroke-opacity:1" /></g></svg>
