<?xml version="1.0" encoding="UTF-8" standalone="no"?>
<!-- Created with Inkscape (http://www.inkscape.org/) -->

<svg
   width="85.606071"
   height="74.242424"
   viewBox="0 0 22.649941 19.643308"
   version="1.1"
   id="svg1"
   xml:space="preserve"
   sodipodi:docname="graph4_placeholder.svg"
   inkscape:version="1.4 (e7c3feb100, 2024-10-09)"
   inkscape:export-filename="screensaver-mockup.png"
   inkscape:export-xdpi="96"
   inkscape:export-ydpi="96"
   xmlns:inkscape="http://www.inkscape.org/namespaces/inkscape"
   xmlns:sodipodi="http://sodipodi.sourceforge.net/DTD/sodipodi-0.dtd"
   xmlns="http://www.w3.org/2000/svg"
   xmlns:svg="http://www.w3.org/2000/svg"><sodipodi:namedview
     id="namedview1"
     pagecolor="#ffffff"
     bordercolor="#000000"
     borderopacity="0.25"
     inkscape:showpageshadow="2"
     inkscape:pageopacity="0.0"
     inkscape:pagecheckerboard="0"
     inkscape:deskcolor="#d1d1d1"
     inkscape:document-units="mm"
     inkscape:zoom="1.98"
     inkscape:cx="-39.141414"
     inkscape:cy="-30.808081"
     inkscape:window-width="1536"
     inkscape:window-height="897"
     inkscape:window-x="0"
     inkscape:window-y="0"
     inkscape:window-maximized="1"
     inkscape:current-layer="g12" /><defs
     id="defs1"><clipPath
       clipPathUnits="userSpaceOnUse"
       id="clipPath27"><ellipse
         style="opacity:0.383255;fill:#ff00fc;fill-opacity:0.718918;stroke:none;stroke-width:12.8405"
         id="ellipse27"
         cx="-262.73123"
         cy="147.37291"
         rx="63.499996"
         ry="63.5" /></clipPath></defs><g
     inkscape:label="Layer 1"
     inkscape:groupmode="layer"
     id="layer1"
     transform="translate(-111.89471,-201.10737)"><g
       id="g12"
       transform="matrix(0.99620687,0,0,1,-5.3008065,398.94167)"><path
         id="path5"
         style="fill:#3bffda;fill-opacity:1"
         d="m 126.13677,-194.70961 c -0.0243,-0.0106 -0.37257,-0.005 -1.06443,0.007 l -1.45557,0.0264 -0.0742,6.08542 c -0.0411,3.34698 -0.009,6.3533 0.0711,6.68073 0.40178,1.64012 0.52525,0.002 0.45337,-6.00429 l -0.0788,-6.5996 1.26933,-0.10748 c 0.60363,-0.0512 0.90359,-0.0777 0.87925,-0.0884 z m 5.72732,0.80874 c -0.38865,-0.0397 -0.7823,-0.0279 -1.17337,0.0429 -1.85959,0.33664 -2.99295,1.20834 -3.90034,3.00137 -0.57184,1.12998 -0.41755,3.54453 0.30553,4.7873 1.09904,1.88896 4.19498,2.87781 6.28132,2.00608 1.53887,-0.64298 2.82573,-2.30924 3.16686,-4.10001 0.50765,-2.66488 -1.95939,-5.45994 -4.68,-5.73763 z m -0.41187,0.70696 c 2.56871,-0.0396 4.46784,1.78355 4.46784,4.28863 0,3.27597 -3.0014,5.42147 -6.04323,4.32015 -4.6887,-1.69758 -3.43807,-8.53158 1.57539,-8.60878 z m 0.983,0.96842 c -0.16899,-0.0322 -0.29876,-0.0224 -0.34392,0.0506 -0.0851,0.13768 0.0984,0.38584 0.40772,0.55139 0.56162,0.30057 0.56181,0.30173 0.0291,0.67489 -0.29343,0.20553 -0.70054,0.30965 -0.90415,0.23151 -0.60717,-0.23299 -1.78911,0.88342 -1.78911,1.68982 0,1.6998 1.41088,2.39108 2.74254,1.34359 0.77708,-0.61125 0.8951,-1.46998 0.30865,-2.24534 -0.37985,-0.50221 -0.56935,-1.16221 -0.23862,-0.83148 0.21434,0.21435 1.15625,-0.28324 1.15625,-0.61081 0,-0.28283 -0.86145,-0.75771 -1.36841,-0.85421 z m -2.35971,0.0775 c -0.2578,0.002 -0.59137,0.17117 -0.89637,0.50798 -0.26028,0.28761 -0.55697,0.47169 -0.65879,0.40876 -0.10182,-0.0629 -0.20483,0.0292 -0.22928,0.20464 -0.318,2.28291 -0.63718,2.92135 -0.91971,1.8402 -0.0722,-0.27615 -0.13369,-0.16032 -0.15199,0.2868 -0.0201,0.49169 0.0834,0.71171 0.30034,0.63924 0.18649,-0.0623 0.44581,0.24111 0.59499,0.69608 0.5964,1.81882 3.52952,2.64762 5.18887,1.46606 v 5.2e-4 c 0.42485,-0.30252 0.94899,-0.89214 1.16508,-1.31 0.71788,-1.38824 0.33156,-3.25425 -0.48969,-2.36471 -0.23582,0.25543 -0.2307,0.28988 0.0228,0.14676 0.23835,-0.13456 0.33095,0.0837 0.33095,0.78135 0,0.74821 -0.20423,1.17233 -0.89948,1.86758 -1.03585,1.03585 -2.03126,1.16247 -3.62127,0.46096 -0.83105,-0.36666 -1.04156,-0.62783 -1.2849,-1.59422 -0.31554,-1.25313 -0.14935,-1.82272 0.85435,-2.92489 0.35503,-0.38985 0.64103,-0.50761 0.83672,-0.3452 0.2025,0.16806 0.29671,0.0829 0.29671,-0.26768 0,-0.33511 -0.18157,-0.5018 -0.43936,-0.50023 z"
         sodipodi:nodetypes="ssssssssssssscccsssccscssscccsscscssssssssssssssssssssss" /><path
         id="path6"
         style="fill:#16a98d;fill-opacity:1"
         d="m 126.05378,-194.77325 c -0.0243,-0.0106 -0.37206,-0.005 -1.06392,0.007 l -1.45556,0.0269 -0.0747,6.08541 c -0.041,3.34698 -0.009,6.3533 0.0716,6.68073 0.40174,1.64012 0.52528,0.002 0.45338,-6.00428 l -0.0789,-6.5996 1.26934,-0.108 c 0.60362,-0.0512 0.90307,-0.0777 0.87873,-0.0884 z m 5.09239,0.77667 c -0.25743,0.0671 -0.1108,0.12677 0.32576,0.13177 0.43655,0.005 0.64704,-0.0495 0.4679,-0.12195 -0.17913,-0.0727 -0.53622,-0.0769 -0.79366,-0.01 z m -0.40202,0.52627 c -0.32742,0.0631 -0.0593,0.11472 0.59551,0.11472 0.65481,0 0.92292,-0.0516 0.5955,-0.11472 -0.32742,-0.0631 -0.86358,-0.0631 -1.19101,0 z m 3.10928,0.58398 0.50369,0.59531 c 0.47366,0.55942 0.6868,0.71559 0.6868,0.50385 0,-0.0502 -0.26808,-0.31809 -0.5955,-0.59531 z m -1.76836,0.55914 c -0.1237,0.0764 -0.15632,0.24952 -0.0726,0.38499 0.21399,0.34617 0.29723,0.30712 0.29723,-0.13901 0,-0.2119 -0.10097,-0.32238 -0.22461,-0.24598 z m -2.07441,0.1742 c -0.28194,-0.0212 -0.56914,0.0529 -0.63804,0.16433 -0.0689,0.11144 0.10513,0.18555 0.38646,0.16485 0.70335,-0.0518 0.87916,-0.28188 0.25158,-0.32918 z m 3.23015,0.24499 c -0.0155,0.0264 0.013,0.0985 0.0856,0.216 0.15857,0.2566 0.0954,0.30378 -0.23706,0.17622 -0.26967,-0.10351 -0.38857,-0.068 -0.29257,0.0873 0.20363,0.32953 0.58193,0.33661 0.7807,0.015 0.0837,-0.13546 0.0127,-0.3324 -0.1577,-0.4377 -0.10382,-0.0642 -0.16347,-0.0833 -0.17896,-0.0568 z m -3.75303,0.47697 c -0.0137,-0.0137 -0.12112,0.0659 -0.33095,0.23048 -0.25466,0.19972 -0.46323,0.40802 -0.46323,0.46302 0,0.21776 0.21771,0.078 0.56335,-0.36277 0.16455,-0.20983 0.24449,-0.31707 0.23083,-0.33073 z m 1.45505,0.66142 -0.59551,0.50436 c -0.32742,0.27721 -0.59498,0.62431 -0.59498,0.77153 0,0.14723 0.0311,0.21821 0.069,0.15761 0.0379,-0.0606 0.30549,-0.40824 0.59498,-0.77204 z m 1.19049,0.13229 c -0.0137,0.0137 0.0663,0.12091 0.23083,0.33073 0.34564,0.44073 0.56283,0.58053 0.56283,0.36277 0,-0.0549 -0.20805,-0.2633 -0.46271,-0.46302 -0.20983,-0.16455 -0.3173,-0.24414 -0.33095,-0.23048 z m -5.67389,0.69139 c -0.0395,-0.0392 -0.0674,0.29528 -0.0674,0.89555 0,0.80041 0.0494,1.12779 0.10997,0.72761 0.0606,-0.40019 0.0606,-1.05503 0,-1.45521 -0.0151,-0.10005 -0.0294,-0.15488 -0.0425,-0.16795 z m 9.47515,0.37722 c -0.0219,0.0839 -0.0358,0.26365 -0.0358,0.51831 0,0.50932 0.0548,0.71768 0.12138,0.46302 0.0666,-0.25466 0.0666,-0.67138 0,-0.92604 -0.0333,-0.12733 -0.0637,-0.13921 -0.0856,-0.0553 z m 0.51303,0.14831 c -0.0242,0.0599 -0.0389,0.1881 -0.0389,0.37 0,0.36383 0.0599,0.51263 0.13332,0.33073 0.0734,-0.1819 0.0734,-0.47956 0,-0.66146 -0.0367,-0.0909 -0.0702,-0.0992 -0.0944,-0.0393 z m -3.42623,0.0791 c -0.0239,0.059 -0.04,0.20495 -0.0425,0.42323 h -5.2e-4 c -0.005,0.43656 0.0499,0.64732 0.12242,0.46819 0.0727,-0.17913 0.077,-0.53632 0.01,-0.79375 -0.0335,-0.12871 -0.0653,-0.1567 -0.0892,-0.0977 z m -3.00501,1.35031 c -0.005,0.0223 0.0734,0.12827 0.23135,0.3297 0.20016,0.25523 0.67501,0.44674 1.05822,0.42684 l 0.6951,-0.0362 -0.66138,-0.12144 c -0.36381,-0.0669 -0.83994,-0.25889 -1.05822,-0.42685 -0.17262,-0.13284 -0.26031,-0.19435 -0.26507,-0.17208 z m -1.3736,0.38912 c -0.0815,-0.0815 -0.22948,0.0657 -0.32888,0.3266 -0.14359,0.37708 -0.11295,0.40715 0.14836,0.14779 0.18082,-0.17948 0.26202,-0.39289 0.18052,-0.47439 z m 5.18939,0.51225 c -0.25513,0.0374 -0.4935,0.26645 -0.5291,0.50901 -0.0822,0.55993 -0.0307,0.55322 0.5317,-0.0682 0.43821,-0.48403 0.43845,-0.5055 -0.003,-0.4408 z m -2.4925,0.9803 c -0.36381,-0.0123 -0.83994,0.0935 -1.05822,0.23461 -0.35277,0.22816 -0.35277,0.25389 0,0.23409 0.21828,-0.0123 0.69441,-0.11758 1.05822,-0.23409 l 0.66138,-0.21187 z"
         sodipodi:nodetypes="ssscscsssssccssssssssssscssscsssscssscssccsssccssssccscccsssssssccsssssssssssscssssssssssssssssssssccsccc" /></g><g
       id="g34"
       transform="translate(65.098393,1.2899782)"
       style="stroke:#ffffff;stroke-opacity:1" /></g></svg>
