<?xml version="1.0" encoding="UTF-8" standalone="no"?>
<!-- Created with Inkscape (http://www.inkscape.org/) -->

<svg
   width="178.78789"
   height="57.586624"
   viewBox="0 0 47.304297 15.236461"
   version="1.1"
   id="svg1"
   xml:space="preserve"
   sodipodi:docname="graph6_placeholder.svg"
   inkscape:version="1.4 (e7c3feb100, 2024-10-09)"
   inkscape:export-filename="screensaver-mockup.png"
   inkscape:export-xdpi="96"
   inkscape:export-ydpi="96"
   xmlns:inkscape="http://www.inkscape.org/namespaces/inkscape"
   xmlns:sodipodi="http://sodipodi.sourceforge.net/DTD/sodipodi-0.dtd"
   xmlns="http://www.w3.org/2000/svg"
   xmlns:svg="http://www.w3.org/2000/svg"><sodipodi:namedview
     id="namedview1"
     pagecolor="#ffffff"
     bordercolor="#000000"
     borderopacity="0.25"
     inkscape:showpageshadow="2"
     inkscape:pageopacity="0.0"
     inkscape:pagecheckerboard="0"
     inkscape:deskcolor="#d1d1d1"
     inkscape:document-units="mm"
     inkscape:zoom="1.52"
     inkscape:cx="163.15789"
     inkscape:cy="-9.2105263"
     inkscape:window-width="1536"
     inkscape:window-height="897"
     inkscape:window-x="0"
     inkscape:window-y="0"
     inkscape:window-maximized="1"
     inkscape:current-layer="g12" /><defs
     id="defs1"><clipPath
       clipPathUnits="userSpaceOnUse"
       id="clipPath27"><ellipse
         style="opacity:0.383255;fill:#ff00fc;fill-opacity:0.718918;stroke:none;stroke-width:12.8405"
         id="ellipse27"
         cx="-262.73123"
         cy="147.37291"
         rx="63.499996"
         ry="63.5" /></clipPath></defs><g
     inkscape:label="Layer 1"
     inkscape:groupmode="layer"
     id="layer1"
     transform="translate(39.511109,-80.97054)"><g
       id="g12"
       transform="matrix(0.99620687,0,0,1,-5.3008065,398.94167)"><path
         id="path5"
         style="fill:#3bffda;fill-opacity:1"
         d="m 9.2509059,-317.78036 c -2.451954,-0.0477 -3.7706625,0.0217 -3.7706625,0.19844 0,0.17265 1.3034932,0.27182 3.5719882,0.27182 H 12.62422 v 4.41833 c 0,3.01924 0.08588,4.33297 0.271297,4.14755 0.169579,-0.16958 0.244244,-1.90159 0.198674,-4.61729 l -0.07314,-4.34547 z m -28.4425909,3.44723 c -2.946797,0.0426 -0.536131,0.077 5.357463,0.077 5.8935937,0 8.3047796,-0.0344 5.3579826,-0.077 -2.9467966,-0.0426 -7.7686496,-0.0426 -10.7154456,0 z m -12.798673,0.4191 c -1.605028,-0.0813 -1.770651,-0.0401 -1.973775,0.49558 -0.167154,0.44076 -0.34352,7.62591 -0.25366,10.3296 0.01414,0.42558 37.5816101,0.49175 37.5816101,0.0661 0,-0.17389 -6.3940544,-0.26459 -18.6530821,-0.26459 h -18.653082 l 0.05914,-4.56406 0.05914,-4.56406 0.07937,4.29948 0.07988,4.29948 h 1.713372 1.713371 v -5.00435 -5.00486 z m 2.281383,0.0434 -0.0088,1.78594 c -0.0047,0.98226 -0.03424,3.24708 -0.06588,5.03276 l -0.05758,3.24632 4.989164,-0.0713 4.988645,-0.0718 0.0057,-1.98437 c 0.003,-1.09141 -0.0096,-2.67709 -0.02801,-3.52382 l -0.03372,-1.53944 -2.514294,0.0842 c -1.38281,0.0464 -2.55393,0.0247 -2.602478,-0.048 -0.04855,-0.0728 -0.05202,0.0162 -0.0078,0.19792 0.04428,0.18174 -0.02707,0.59845 -0.158732,0.92604 -0.171332,0.42627 -0.24425,-0.0624 -0.256253,-1.71928 l -0.0166,-2.3151 h -2.116945 z m 36.1312356,1.05833 c -2.568049,0 -4.1166567,0.0995 -4.1166567,0.26459 0,0.16458 1.4942212,0.26458 3.9532562,0.26458 2.35002,0 4.0194489,-0.1073 4.1166569,-0.26458 0.106338,-0.17206 -1.2761934,-0.26459 -3.9532564,-0.26459 z m -12.3188461,2.38108 c -2.285894,0 -2.382158,0.0238 -2.40536,0.59531 -0.01329,0.32743 -0.058821,1.46432 -0.1011527,2.52646 -0.111797,2.80528 -0.4040922,2.67751 -0.4040922,-0.17673 v -2.43499 l -2.5796536,0.0755 c -2.565676,0.0753 -2.579387,0.0795 -2.544899,0.73742 0.01907,0.3638 0.04909,1.70326 0.0664,2.97656 l 0.03112,2.31511 h 2.513775 c 2.2057687,0 2.5174465,-0.0567 2.5443805,-0.46303 0.02923,-0.44097 0.036228,-0.44097 0.1514697,0 0.104445,0.39967 0.4620397,0.46303 2.6149277,0.46303 h 2.4945819 v -3.3073 -3.30729 z m 11.7580969,1.05834 c -2.677063,0 -4.0590754,0.0925 -3.9527374,0.26458 0.09721,0.15728 1.7666367,0.26458 4.1166567,0.26458 2.459035,0 3.9527374,-0.1 3.9527374,-0.26458 0,-0.16505 -1.5486087,-0.26458 -4.1166567,-0.26458 z m -20.6875484,1.79461 c -0.10914,-0.0487 -1.171032,-0.0469 -2.359193,0.004 l -2.16,0.0925 -0.0887,1.57252 c -0.04877,0.86503 -0.04903,1.69003 -5.19e-4,1.83296 0.0489,0.14408 1.139359,0.25942 2.447378,0.25942 h 2.359192 v -1.83659 c 0,-1.01006 -0.08902,-1.87619 -0.198155,-1.92494 z m 0.577867,1.1746 c -0.01989,0.13102 -0.03246,0.43057 -0.0332,0.86713 -0.0015,0.87313 0.047,1.26212 0.107378,0.86455 0.06037,-0.39758 0.06148,-1.11195 0.0026,-1.5875 -0.02944,-0.23777 -0.05688,-0.2752 -0.07677,-0.14418 z m 19.9115258,0.20981 c -2.898543,-0.003 -4.3902624,0.088 -4.2836884,0.26045 0.212563,0.34393 7.8017474,0.34393 8.3339474,0 0.264964,-0.17123 -1.081066,-0.25775 -4.050259,-0.26045 z"
         sodipodi:nodetypes="ssssssssscccccccccccccscsccccssssssssssssssscsssssscsscscccsssccssscsssccsccccssscscssssssss" /><path
         id="path6"
         style="fill:#16a98d;fill-opacity:1"
         d="m 5.4755748,-317.80405 c -0.047956,0.0212 -0.07781,0.0728 -0.07781,0.14986 0,0.15411 0.1195511,0.2806 0.2650721,0.2806 0.145521,0 0.2645533,-0.0526 0.2645533,-0.11679 0,-0.0642 -0.1190323,-0.19018 -0.2645533,-0.28008 -0.072761,-0.045 -0.1393066,-0.0547 -0.1872623,-0.0336 z m 7.4614402,0.0336 -0.131239,4.55114 c -0.07236,2.50334 -0.03921,4.45924 0.07366,4.34599 0.112865,-0.11324 0.171739,-2.16157 0.131239,-4.55166 z m -45.003187,3.79258 c -0.97638,-0.0496 -1.821811,0.0282 -1.918271,0.17622 -0.09486,0.14552 -0.231735,2.5568 -0.304495,5.35833 -0.07276,2.80153 -0.04326,5.09348 0.06588,5.09323 0.10914,-2.5e-4 0.212578,-2.05435 0.229798,-4.56458 0.01839,-2.68078 0.114795,-4.23654 0.233429,-3.77032 0.170539,0.67023 0.207,0.69797 0.23343,0.17932 0.0257,-0.50427 0.157239,-0.59896 0.735562,-0.52916 0.395531,0.0478 0.753455,-0.0602 0.815965,-0.24598 0.0741,-0.22017 -0.04347,-0.27156 -0.351182,-0.15348 -0.315337,0.121 -0.401248,0.0793 -0.270778,-0.13178 0.10522,-0.17025 0.362469,-0.30954 0.572162,-0.30954 0.537673,0 0.475703,-0.46573 -0.08144,-0.61133 -0.254661,-0.0666 -0.01909,-0.13503 0.5234,-0.15193 l 0.98611,-0.0305 0.07833,4.96094 0.07833,4.96093 0.05965,-5.071 0.06017,-5.0705 z m 6.50853,0.0439 -2.182824,0.0532 -2.182824,0.0532 2.058847,0.0899 c 1.222625,0.0536 1.995659,0.19325 1.902709,0.34365 -0.0861,0.13931 -0.595796,0.25534 -1.132911,0.25734 -1.646699,0.007 -1.879983,0.4422 -0.349625,0.65268 0.746152,0.10262 1.423331,0.29495 1.504841,0.42684 0.280529,0.45391 0.381787,0.23716 0.381787,-0.81855 z m -5.525533,0.52914 c -0.369026,0 -0.529483,0.98286 -0.212161,1.30018 0.412406,0.41241 0.446109,0.37503 0.446109,-0.50643 0,-0.43657 -0.105399,-0.79375 -0.233948,-0.79375 z m 41.275501,0.52917 c -0.14552,0 -0.3385329,0.11906 -0.4284729,0.26458 -0.089937,0.14552 -0.044367,0.26459 0.1011527,0.26459 0.1455202,0 0.3385322,-0.11907 0.4284722,-0.26459 0.08994,-0.14552 0.04437,-0.26458 -0.101152,-0.26458 z m -7.8520457,0.13643 c -0.071934,0.0188 -0.1167147,0.0659 -0.1167147,0.13642 0,0.14095 0.1785479,0.25632 0.3968299,0.25632 0.218281,0 0.3968299,-0.0472 0.3968299,-0.10439 0,-0.0572 -0.1785489,-0.17252 -0.3968299,-0.25632 -0.109141,-0.0419 -0.2081817,-0.0509 -0.2801152,-0.032 z m 4.5736595,0.19947 c -0.548948,-0.0574 -1.3821761,-0.0563 -1.8518731,0.002 -0.469697,0.0584 -0.020606,0.10539 0.9980403,0.10439 1.018646,-10e-4 1.4027818,-0.0491 0.8538328,-0.10645 z m -34.5885268,0.72246 c -0.881944,0 -1.58732,0.1176 -1.58732,0.26459 0,0.14699 0.705376,0.26458 1.58732,0.26458 0.881945,0 1.587838,-0.11759 1.587838,-0.26458 0,-0.14699 -0.705893,-0.26459 -1.587838,-0.26459 z m -1.974294,0.0605 c -0.04112,-0.0321 -0.07003,0.24112 -0.07003,0.73226 0,0.65481 0.05158,0.92273 0.11464,0.59531 0.06306,-0.32742 0.06306,-0.8632 0,-1.19062 -0.01577,-0.0819 -0.03091,-0.12625 -0.04461,-0.13695 z m -1.846686,0.20413 c -0.355214,0 -0.719282,0.11906 -0.809222,0.26458 -0.0954,0.15437 0.17362,0.26458 0.645822,0.26458 0.445151,0 0.80974,-0.11906 0.80974,-0.26458 0,-0.14552 -0.291126,-0.26458 -0.64634,-0.26458 z m 11.494063,0.50901 -2.447378,0.0765 -2.447377,0.076 -0.01297,3.57188 -0.01297,3.57187 0.08663,-3.17655 0.08663,-3.17706 2.142881,0.0977 c 1.598698,0.0726 2.093851,0.0179 1.949914,-0.21498 -0.106114,-0.1714 -0.355624,-0.24993 -0.554525,-0.17363 -0.198902,0.0763 -0.431684,0.025 -0.517694,-0.11421 -0.08635,-0.13971 0.202628,-0.25269 0.645302,-0.25269 h 0.801441 l 0.08248,3.50573 0.08196,3.50572 0.0581,-3.64835 z m -7.673083,0.2837 c -1.234722,0 -1.58732,0.0882 -1.58732,0.39688 0,0.30868 0.352598,0.39687 1.58732,0.39687 1.234723,0 1.587838,-0.0882 1.587838,-0.39687 0,-0.30867 -0.353115,-0.39688 -1.587838,-0.39688 z m 24.0769427,0.26552 -0.7272622,0.004 c -0.566985,0.003 -0.6402149,0.0606 -0.3309509,0.26045 0.218283,0.14106 0.3008413,0.25845 0.1831123,0.26045 -0.11772,0.002 -0.1272002,0.14506 -0.020749,0.3173 0.133053,0.21528 0.2565102,0.15326 0.3942362,-0.19844 0.11019,-0.28138 0.2086749,0.94692 0.2189049,2.72955 0.010228,1.78263 0.077672,3.24114 0.1504323,3.24114 0.072762,0 0.1322766,-1.48828 0.1322766,-3.30729 z m -27.7148097,0.003 c -0.395701,0.003 -0.405566,0.0413 -0.0664,0.26045 0.499328,0.32268 0.529625,0.32268 0.529625,0 0,-0.14553 -0.208566,-0.26245 -0.463227,-0.26045 z m 5.651065,0.28198 c -0.03274,-0.1034 -0.05602,0.77804 -0.05602,2.36058 0,2.11005 0.04108,2.97326 0.0913,1.91823 0.05022,-1.05502 0.05022,-2.78144 0,-3.83646 -0.01255,-0.26375 -0.02436,-0.40788 -0.03527,-0.44235 z m 12.197463,0.28991 c -0.03183,-0.0307 -0.10529,-0.0294 -0.21683,0.008 -0.202157,0.0673 -0.38086,0.3714 -0.39683,0.67541 -0.02513,0.47851 0.05721,0.51968 0.612623,0.30851 0.352861,-0.13416 1.467253,-0.24391 2.476426,-0.24391 h 1.8347549 v 1.85208 c 0,1.01865 0.059517,1.85208 0.1322767,1.85208 0.072762,0 0.1322766,-0.89296 0.1322766,-1.98437 v -1.98438 H -11.28621 c -1.71403,0 -2.344498,-0.0849 -2.212392,-0.29869 0.05606,-0.0908 0.06607,-0.15375 0.03424,-0.18448 z m 23.2438597,0.48276 c -0.064172,0 -0.1906939,0.11906 -0.2806339,0.26458 -0.089937,0.14552 -0.037394,0.26458 0.1167147,0.26458 0.154109,0 0.2801152,-0.11906 0.2801152,-0.26458 0,-0.14552 -0.052026,-0.26458 -0.116196,-0.26458 z m -17.979249,0.1803 c -0.033408,-0.12038 -0.057232,0.65029 -0.057579,2.06912 -4.61e-4,1.89174 0.041343,2.70025 0.092853,1.79679 0.051511,-0.90345 0.051569,-2.45126 5.187e-4,-3.43958 -0.01276,-0.24708 -0.024656,-0.38621 -0.035793,-0.42633 z m 12.1009787,0.0279 c -1.186935,-0.0428 -2.1027254,0.0118 -2.0349854,0.12144 0.067738,0.10964 1.2773102,0.1831 2.6875502,0.1633 2.881308,-0.0405 2.5891662,-0.1679 -0.6525648,-0.28474 z m -19.5831684,1.58016 c -0.436717,-0.0159 -1.007795,-0.0129 -1.608069,0.0124 l -2.182824,0.092 0.05187,1.89808 0.05187,1.89807 0.09233,-1.78593 0.09285,-1.78594 1.905821,-0.0419 c 1.048377,-0.0227 2.067879,-0.0338 2.265302,-0.0248 0.197422,0.009 0.256939,-0.0635 0.132277,-0.16227 -0.06233,-0.0494 -0.364724,-0.0839 -0.801441,-0.0997 z m -0.809222,0.67438 c -0.257431,0.0671 -0.110798,0.12677 0.325764,0.13177 0.436566,0.005 0.647028,-0.0495 0.467896,-0.12196 -0.179131,-0.0727 -0.536229,-0.0769 -0.79366,-0.01 z m -1.989337,0.27233 c -0.181901,0.0734 -0.03337,0.13384 0.330433,0.13384 0.363799,0 0.512852,-0.0604 0.330951,-0.13384 -0.181901,-0.0734 -0.479483,-0.0734 -0.661384,0 z m 22.514004,0.6423 c -1.550885,-0.0383 -2.7642486,0.0195 -2.6963686,0.12867 0.067885,0.1091 1.9319893,0.17676 4.1425933,0.14986 4.1124526,-0.0501 3.5691169,-0.15483 -1.4462247,-0.27853 z m -13.1067999,1.28041 c -0.024188,0.0599 -0.038905,0.18811 -0.038905,0.37001 0,0.36383 0.059914,0.51263 0.1333141,0.33073 0.0734,-0.1819 0.0734,-0.47956 0,-0.66146 -0.036701,-0.0909 -0.070222,-0.0992 -0.094409,-0.0393 z"
         sodipodi:nodetypes="scsssssssscssssssscsccccsssssssssssssssssssccscssscsssscssccsccssccssssssscccsscccsscsssssssssscsccccsscssscscsssssssssssscscccsscssssssscsscccccccccccssssscssscscssssccscsccccsssc" /></g><g
       id="g34"
       transform="translate(65.098393,1.2899782)"
       style="stroke:#ffffff;stroke-opacity:1" /></g></svg>
