<?xml version="1.0" encoding="UTF-8" standalone="no"?>
<!-- Created with Inkscape (http://www.inkscape.org/) -->

<svg
   width="274.64511"
   height="93.607018"
   viewBox="0 0 72.666522 24.766857"
   version="1.1"
   id="svg1"
   xml:space="preserve"
   sodipodi:docname="graph7_placeholder.svg"
   inkscape:version="1.4 (e7c3feb100, 2024-10-09)"
   inkscape:export-filename="screensaver-mockup.png"
   inkscape:export-xdpi="96"
   inkscape:export-ydpi="96"
   xmlns:inkscape="http://www.inkscape.org/namespaces/inkscape"
   xmlns:sodipodi="http://sodipodi.sourceforge.net/DTD/sodipodi-0.dtd"
   xmlns="http://www.w3.org/2000/svg"
   xmlns:svg="http://www.w3.org/2000/svg"><sodipodi:namedview
     id="namedview1"
     pagecolor="#ffffff"
     bordercolor="#000000"
     borderopacity="0.25"
     inkscape:showpageshadow="2"
     inkscape:pageopacity="0.0"
     inkscape:pagecheckerboard="0"
     inkscape:deskcolor="#d1d1d1"
     inkscape:document-units="mm"
     inkscape:zoom="2.12"
     inkscape:cx="200.23585"
     inkscape:cy="91.509434"
     inkscape:window-width="1536"
     inkscape:window-height="897"
     inkscape:window-x="0"
     inkscape:window-y="0"
     inkscape:window-maximized="1"
     inkscape:current-layer="g12" /><defs
     id="defs1" /><g
     inkscape:label="Layer 1"
     inkscape:groupmode="layer"
     id="layer1"
     transform="translate(-125.32388,-76.30601)"><g
       id="g12"
       transform="matrix(0.99620687,0,0,1,-5.3008065,398.94167)"><path
         id="path5"
         style="fill:#3bffda;fill-opacity:1"
         d="m 137.02599,-322.56028 c -2.50627,-0.0235 -5.16493,0.0718 -5.53746,0.3085 -0.25657,0.16301 -0.33095,2.87975 -0.33095,12.11658 v 11.83648 c 0.13328,0.14254 0.26591,0.28569 0.39787,0.42944 3.36017,0.20716 10.16708,0.27853 23.14997,0.23874 8.07641,-0.0247 22.32563,-0.0576 31.66495,-0.0729 15.10671,-0.0247 17.027,-0.0742 17.39931,-0.44649 0.37121,-0.37121 0.4107,-1.75347 0.34962,-12.23698 l -0.069,-11.8184 -4.98034,-0.0723 c -3.3428,-0.0484 -4.92501,0.0169 -4.8128,0.19843 0.10355,0.16755 1.9242,0.27079 4.78427,0.27079 h 4.61775 l -0.069,11.70781 -0.069,11.70781 -35.91699,0.063 -35.91752,0.0636 v -11.74295 c 0,-10.14909 0.0536,-11.76335 0.39371,-11.89385 0.21642,-0.0831 2.42792,-0.14404 4.91447,-0.13591 2.48656,0.008 4.58028,-0.045 4.65303,-0.11782 0.23794,-0.23794 -2.11563,-0.38006 -4.62191,-0.40359 z m 37.15574,1.54616 -16.02208,0.0315 c -8.81212,0.0172 -16.37917,0.12197 -16.81573,0.23306 -0.43656,0.11108 6.74846,0.21584 15.96657,0.23306 15.87436,0.0297 16.79741,0.0575 17.46259,0.52296 0.38626,0.2703 0.8809,0.55877 1.09919,0.64079 0.74122,0.27852 24.3415,0.2069 24.3415,-0.0739 0,-0.17254 -4.2159,-0.26459 -12.11913,-0.26459 h -12.11966 l -0.89637,-0.66146 z m -38.32755,0.33434 c -0.76399,0.0534 -0.13933,0.0971 1.38864,0.0971 1.52797,0 2.15316,-0.0437 1.38917,-0.0971 -0.76398,-0.0534 -2.01383,-0.0534 -2.77781,0 z m 5.80461,3.89904 c -0.15497,0 -1.24081,2.53193 -1.24081,2.89336 0,0.42453 0.5243,0.338 0.69822,-0.11524 0.0838,-0.21829 0.36464,-0.39687 0.62455,-0.39687 0.2599,0 0.54131,0.17859 0.62507,0.39687 0.21504,0.56038 0.6115,0.49239 0.77499,-0.1328 0.0762,-0.29124 0.049,-0.4742 -0.0602,-0.4067 -0.10921,0.0675 -0.32115,-0.27653 -0.471,-0.76481 -0.23446,-0.76393 -0.21246,-0.87613 0.15717,-0.80408 0.23626,0.046 0.57804,0.0927 0.75994,0.10386 0.21259,0.013 0.33095,0.44546 0.33095,1.21078 0,1.58578 0.47797,1.53131 0.58047,-0.0661 0.0558,-0.86994 0.19598,-1.25677 0.45544,-1.25677 0.20615,0 0.4249,-0.14883 0.48554,-0.33073 0.0785,-0.23567 -0.27673,-0.33073 -1.23511,-0.33073 -0.75072,0 -1.34455,0.121 -1.34455,0.27388 0,0.1888 -0.15922,0.1888 -0.51199,0 -0.28148,-0.15064 -0.56429,-0.27388 -0.6287,-0.27388 z m 7.63625,0 c -0.48509,0 -0.98771,0.67194 -0.92853,1.24127 0.0888,0.85437 -0.005,1.17507 -0.29256,0.99735 -0.15498,-0.0958 -0.26141,-0.49016 -0.23654,-0.87591 0.0747,-1.15797 0.008,-1.35323 -0.40773,-1.19373 -0.21828,0.0838 -0.39735,0.3708 -0.39735,0.63769 0,0.26688 -0.11903,0.55861 -0.26455,0.64854 -0.39988,0.24714 -0.31703,0.66146 0.13228,0.66146 0.21828,0 0.39735,0.11906 0.39735,0.26458 0,0.42705 -0.72251,0.30313 -0.89793,-0.154 -0.0883,-0.23018 -0.16081,-0.82549 -0.16081,-1.32291 0,-1.46938 -0.47195,-1.03123 -0.5706,0.52968 -0.0498,0.78871 -0.0473,1.39002 0.007,1.33584 0.0537,-0.0542 0.27055,0.0739 0.4819,0.28525 0.49377,0.49378 0.85491,0.48571 1.42807,-0.0331 0.41037,-0.37138 0.53021,-0.37441 1.07948,-0.0258 1.30788,0.82992 2.44305,-0.48298 1.2792,-1.4795 -0.29104,-0.2492 -0.52963,-0.38791 -0.52963,-0.30799 0,0.0799 -0.12918,0.0657 -0.28738,-0.032 -0.20652,-0.12763 -0.20634,-0.25877 -5.1e-4,-0.46457 0.20581,-0.20581 0.38708,-0.14895 0.64374,0.20205 0.2276,0.31127 0.42125,0.38608 0.53274,0.20568 0.20479,-0.33136 -0.50411,-1.11983 -1.00686,-1.11983 z m -9.27233,0.0682 c -0.31003,-0.0451 -0.84507,-0.0371 -1.74346,0.005 -1.4768,0.0682 -2.212,0.2155 -2.37683,0.47594 -0.37606,0.59421 -0.30018,0.76849 0.54519,1.24954 0.43564,0.24789 0.79274,0.53991 0.79366,0.64905 0.002,0.29363 -0.73462,0.2409 -0.92438,-0.0661 -0.20588,-0.33312 -0.66138,-0.34638 -0.66138,-0.0191 0,0.30337 0.75272,1.07745 1.04783,1.07745 0.11901,0 0.49732,-0.23812 0.84087,-0.52916 l 0.62507,-0.52917 -0.59914,-0.5085 c -0.32937,-0.27956 -0.74598,-0.56046 -0.92593,-0.62477 -0.17996,-0.0643 -0.23248,-0.21803 -0.11672,-0.34158 0.11576,-0.12356 0.44336,-0.0789 0.72778,0.0987 0.34125,0.21311 0.51666,0.2267 0.51666,0.0403 0,-0.15535 0.11955,-0.20879 0.26507,-0.11885 0.14552,0.0899 0.26456,0.0137 0.26456,-0.1695 0,-0.20958 0.0915,-0.23979 0.24743,-0.0817 0.13634,0.13825 0.28538,0.78693 0.33095,1.44177 0.10953,1.57399 0.59022,1.52808 0.69251,-0.0661 0.0566,-0.88236 0.19477,-1.25677 0.46323,-1.25677 0.21031,0 0.3823,-0.18447 0.3823,-0.4098 0,-0.17212 -0.0852,-0.27065 -0.39527,-0.31574 z m 1.79222,1.09037 c 0.0278,-0.0278 0.0646,0.009 0.10686,0.11473 0.0764,0.19099 0.0666,0.41902 -0.0213,0.50694 -0.0879,0.0879 -0.14998,-0.0684 -0.1385,-0.34726 0.006,-0.15411 0.0251,-0.24659 0.0529,-0.27441 z m 7.1419,0.70745 v 5.2e-4 c 0.30172,0.0186 0.72156,0.26887 0.72156,0.50643 0,0.3591 -0.71352,0.35194 -0.93683,-0.009 v -5.2e-4 c -0.0959,-0.1552 -0.10805,-0.34838 -0.027,-0.42943 0.0544,-0.0544 0.14168,-0.0739 0.24225,-0.0677 z m 41.59971,2.3673 c -3.96875,0 -6.21752,0.0957 -6.21752,0.26459 0,0.16889 2.24877,0.26406 6.21752,0.26406 3.96875,0 6.21752,-0.0952 6.21752,-0.26406 0,-0.16888 -2.24877,-0.26459 -6.21752,-0.26459 z m -42.46547,2.11098 v 0.64699 c 0,0.55645 0.11935,0.64366 0.85953,0.62891 0.47294,-0.009 1.00911,-0.13488 1.19101,-0.27906 0.19854,-0.15737 0.33044,-0.16226 0.33044,-0.0124 0,0.13733 0.59568,0.27686 1.32328,0.31006 0.86925,0.0397 1.32277,-0.0459 1.32277,-0.2496 0,-0.20587 0.11083,-0.22548 0.33043,-0.0584 0.46199,0.35153 3.37383,0.40004 3.37383,0.0563 0,-0.15314 0.14644,-0.18429 0.33043,-0.0703 0.54538,0.338 4.2111,0.38362 4.60427,0.0574 0.19799,-0.16432 0.35689,-0.18319 0.35689,-0.0424 0,0.13949 0.77371,0.24511 1.71959,0.23461 1.5958,-0.0177 1.72012,-0.0613 1.72012,-0.60771 v -0.58911 l -8.7313,-0.0129 z m 17.99169,0.003 v 0.64596 c 0,0.64393 0.008,0.64589 2.64554,0.61288 2.20643,-0.0276 2.64682,-0.10173 2.6502,-0.44648 0.003,-0.34033 0.0449,-0.3486 0.23654,-0.046 0.34451,0.54401 1.82996,0.58938 2.13614,0.0651 0.21538,-0.36878 0.25406,-0.37307 0.26092,-0.0279 0.006,0.31657 0.33978,0.40317 1.52922,0.39688 1.35065,-0.007 1.5306,-0.0713 1.60237,-0.57464 0.0803,-0.56345 0.0456,-0.56729 -5.49026,-0.59635 z m -30.1627,0.002 v 0.66146 c 0,0.3638 0.11903,0.66146 0.26455,0.66146 0.14552,0 0.26647,-0.14883 0.2687,-0.33073 0.003,-0.26371 0.0463,-0.26398 0.2132,-10e-4 0.13883,0.21862 0.80614,0.31235 1.98052,0.27853 1.40091,-0.0404 1.7719,-0.13689 1.7751,-0.46199 0.003,-0.34676 0.0413,-0.35182 0.24277,-0.0336 0.1313,0.20747 0.66503,0.4106 1.18634,0.45166 0.77685,0.0612 0.94824,-0.0147 0.94824,-0.42117 0,-0.27277 0.14853,-0.55602 0.33043,-0.62942 0.1819,-0.0734 -1.36604,-0.14302 -3.43971,-0.15451 z m 8.82674,0 c -0.77225,0 -0.88911,0.0871 -0.88911,0.66146 0,0.55262 0.12568,0.66146 0.76306,0.66146 0.60366,0 0.78906,-0.13807 0.88911,-0.66146 0.11459,-0.59944 0.0429,-0.66146 -0.76306,-0.66146 z m 2.16934,0 c -0.75307,0 -1.0585,0.3721 -0.81856,0.99736 0.14628,0.38122 0.20404,0.38895 0.41602,0.0537 0.16669,-0.26357 0.24781,-0.28277 0.25055,-0.0589 0.002,0.1819 0.18218,0.33073 0.40046,0.33073 0.24695,0 0.39735,-0.24989 0.39735,-0.66146 0,-0.5249 -0.13331,-0.66146 -0.64582,-0.66146 z m 49.85792,0.15865 c -0.14552,0.0145 -2.9433,0.0442 -6.21752,0.0661 -3.61493,0.0241 -5.95297,0.14026 -5.95297,0.29508 0,0.35223 12.28088,0.23012 12.36916,-0.12299 0.0364,-0.14552 -0.0531,-0.25278 -0.19867,-0.23823 z m -10.18634,2.2226 c -1.14653,0 -1.98415,0.11171 -1.98415,0.26459 0,0.15287 0.83762,0.26458 1.98415,0.26458 1.14653,0 1.98467,-0.11171 1.98467,-0.26458 0,-0.15288 -0.83814,-0.26459 -1.98467,-0.26459 z m 6.2336,0 c -1.82085,0 -3.22876,0.1121 -3.323,0.26459 -0.1057,0.17102 1.01119,0.26458 3.15908,0.26458 2.03888,0 3.323,-0.10224 3.323,-0.26458 0,-0.16162 -1.22921,-0.26459 -3.15908,-0.26459 z m -43.94178,0.3452 c -0.15641,0.0215 -0.32855,0.0792 -0.50888,0.1757 -0.30542,0.16346 -0.68119,0.21918 -0.83516,0.12402 -0.21984,-0.13587 -3.82241,-0.21794 -5.72835,-0.13074 -0.1819,0.008 -0.33095,0.25311 -0.33095,0.54416 0,0.5064 0.17644,0.52916 4.10109,0.52916 3.94578,0 4.1011,-0.0204 4.1011,-0.53743 0,-0.50838 -0.32962,-0.76924 -0.79885,-0.70487 z m 2.51274,0.017 c -0.23886,0.0917 -0.59581,0.16692 -0.79315,0.16692 -0.19733,0 -0.34094,0.23812 -0.31902,0.52917 0.0364,0.48339 0.22965,0.52916 2.23263,0.52916 1.56659,0 2.1985,-0.0944 2.21343,-0.33073 0.0167,-0.26458 0.0478,-0.26458 0.15458,0 0.10297,0.25521 2.12646,0.33073 8.86098,0.33073 8.71377,0 8.72752,-8.3e-4 8.64311,-0.555 -0.084,-0.5514 -0.14961,-0.55533 -9.94046,-0.59532 -9.22539,-0.0377 -9.85541,-0.0106 -9.85539,0.42272 4e-5,0.64971 -0.43773,0.57795 -0.61522,-0.10077 -0.10204,-0.39019 -0.28078,-0.51227 -0.58149,-0.39688 z m -11.43752,0.0346 c -0.58616,0 -0.86093,0.12634 -0.86369,0.39687 -0.004,0.35278 -0.0353,0.35278 -0.28479,0 -0.23018,-0.32547 -0.3066,-0.33192 -0.42484,-0.0362 -0.0823,0.2058 -0.21577,0.25168 -0.31072,0.10697 -0.0915,-0.13948 -0.61263,-0.32419 -1.15833,-0.41031 -0.90782,-0.14325 -0.99233,-0.104 -0.99233,0.46095 0,0.60067 0.0672,0.61867 2.47746,0.64957 2.41604,0.031 2.47686,0.0164 2.44738,-0.56844 -0.0249,-0.494 -0.18181,-0.59944 -0.89014,-0.59944 z m 36.22772,0.0191 c -3.11074,0.0542 -2.86569,0.002 -3.03303,0.64234 -0.13233,0.50604 -0.008,0.52916 2.84317,0.52916 2.96732,0 2.98063,-0.003 2.86496,-0.60823 -0.11242,-0.58808 -0.19956,-0.60639 -2.6751,-0.56327 z m 10.38345,2.26136 c -1.5219,0.0228 -1.8777,0.086 -1.30098,0.23202 0.73923,0.18711 3.03733,0.0758 3.28513,-0.15916 0.0606,-0.0575 -0.83211,-0.0901 -1.98415,-0.0729 z m 7.61706,0.0362 c -1.06139,-0.0503 -2.72836,-0.0497 -3.70426,10e-4 -0.9759,0.0508 -0.10761,0.092 1.92968,0.0915 2.03729,-4.1e-4 2.83598,-0.0421 1.77458,-0.0925 z m -21.72449,0.55707 -2.59262,0.063 c -1.42596,0.0346 -2.68216,0.0723 -2.7913,0.0842 -0.10914,0.0119 -0.19816,0.25192 -0.19816,0.5333 0,0.59544 0.48463,0.6884 3.43972,0.65991 1.91257,-0.0184 1.98674,-0.0427 2.06299,-0.67955 h 5.2e-4 z m -34.11648,0.0367 c -2.27801,0 -2.42195,0.033 -2.42196,0.55139 0,0.30317 0.0495,0.60082 0.10997,0.66146 0.163,0.16362 4.33775,0.04 4.62398,-0.13694 0.13528,-0.0836 0.21524,-0.35983 0.17792,-0.61392 -0.0589,-0.40098 -0.38753,-0.46199 -2.48991,-0.46199 z m 14.20547,0.0367 c -5.57987,-0.0344 -10.29389,-0.0141 -10.47579,0.045 -0.18191,0.0591 -0.33095,0.32615 -0.33095,0.59325 0,0.3819 0.24034,0.50299 1.12461,0.56844 0.61846,0.0458 1.20077,0.0539 1.29424,0.0176 0.0935,-0.0363 1.96901,-0.0809 4.16749,-0.0987 3.50607,-0.0285 3.99827,-0.0858 4.00565,-0.46509 0.007,-0.37753 0.0547,-0.37149 0.37348,0.0491 0.33349,0.43995 0.82113,0.4788 5.61424,0.44338 8.33261,-0.0616 8.15913,-0.0478 8.15913,-0.66042 0,-0.43655 -0.16198,-0.52166 -0.92593,-0.48628 -0.50933,0.0236 -1.19402,0.0534 -1.52144,0.0661 -0.37821,0.0148 -0.59846,0.19211 -0.60381,0.48628 -0.008,0.43329 -0.0317,0.43216 -0.37193,-0.0165 -0.33838,-0.44632 -1.06612,-0.48385 -10.50899,-0.54209 z m 38.12576,1.41852 c -3.47082,0 -5.25068,0.0915 -5.14374,0.26459 0.0999,0.1617 2.16337,0.26458 5.30714,0.26458 3.25278,0 5.14375,-0.0973 5.14375,-0.26458 0,-0.1676 -1.94535,-0.26459 -5.30715,-0.26459 z"
         sodipodi:nodetypes="csscccsscccsscccccscccscsscsssscccsccscsssccssscsssssssccssssssccsscsscsssssccsscscsccssssssssssssccscscsccsccscsssssssssssssccssssccccsscssccccccsscccccsssccssssssssssssscssscsscccccscssscssscssssssssssssscssssssssccsssccscccscccscscccsscscssssssccsssscssssssssssccsscsccccc" /><path
         id="path6"
         style="fill:#16a98d;fill-opacity:1"
         d="m 134.18386,-322.59801 c -1.05503,0.0502 -0.19179,0.0909 1.91827,0.0909 2.11005,0 2.97329,-0.0408 1.91827,-0.0909 -1.05503,-0.0502 -2.78152,-0.0502 -3.83654,0 z m -2.74928,0.32091 c -0.0926,0.009 -0.16658,0.0416 -0.20023,0.0961 -0.0673,0.10896 0.10705,0.21548 0.38801,0.23668 0.60763,0.0458 0.66109,-0.0791 0.12243,-0.28577 -0.10681,-0.041 -0.21761,-0.0554 -0.31021,-0.0465 z m 10.08778,0.001 c -0.0445,-0.0184 -0.12942,-0.007 -0.24691,0.0377 -0.22584,0.0867 -0.41084,0.20428 -0.41084,0.26148 0,0.21429 0.50445,0.0938 0.65983,-0.15761 0.0461,-0.0747 0.0423,-0.1229 -0.002,-0.14159 z m 55.7891,0.0749 c -1.76912,-0.0379 -3.16099,0.0206 -3.09319,0.12971 0.0678,0.10916 2.22956,0.17527 4.80397,0.14727 4.74678,-0.0517 4.12936,-0.15171 -1.71078,-0.27698 z m -51.73832,1.13843 c -1.15661,-0.0265 -3.72329,0.1021 -4.3117,0.26148 -0.46032,0.1247 0.37353,0.15309 1.98467,0.0677 1.52796,-0.081 2.8277,-0.192 2.8883,-0.2465 0.0533,-0.0479 -0.17573,-0.0738 -0.56127,-0.0827 z m 19.83164,0.0506 c -1.63711,0.0464 -0.29773,0.0842 2.97649,0.0842 3.27422,0 4.61359,-0.0378 2.97648,-0.0842 -1.6371,-0.0464 -4.31586,-0.0464 -5.95297,0 z m -17.05487,0.001 c -0.98832,0.051 -0.24894,0.0935 1.64283,0.094 1.89174,5e-4 2.70034,-0.0415 1.79688,-0.093 -0.90345,-0.0515 -2.45139,-0.0521 -3.43971,-10e-4 z m 10.58058,0.002 c -0.69561,0.0547 -0.19338,0.1 1.11631,0.10077 1.30965,8.3e-4 1.87874,-0.0442 1.26467,-0.0997 -0.61407,-0.055 -1.68536,-0.0557 -2.38098,-10e-4 z m -5.15101,0.0145 c -0.21107,0.0845 -0.14845,0.14698 0.15977,0.15968 0.27887,0.0115 0.43545,-0.0511 0.34755,-0.13901 -0.0879,-0.0879 -0.31632,-0.0971 -0.50732,-0.0207 z m -18.00778,0.25012 c -0.76399,0.0535 -0.13932,0.0971 1.38865,0.0971 1.52797,0 2.15315,-0.0437 1.38916,-0.0971 -0.76398,-0.0534 -2.01383,-0.0534 -2.77781,0 z m 38.64657,0.093 c -0.1237,0.0764 -0.15634,0.24953 -0.0726,0.38499 0.21398,0.34618 0.29775,0.30712 0.29775,-0.13901 0,-0.21191 -0.10149,-0.32238 -0.22513,-0.24598 z m 0.9747,0.71939 c -0.20553,0 -0.31258,0.0994 -0.23758,0.22066 0.075,0.12128 0.18198,0.22066 0.23758,0.22066 0.0556,0 0.16206,-0.0994 0.23706,-0.22066 0.075,-0.12129 -0.0316,-0.22066 -0.23706,-0.22066 z m 12.84795,0.17673 c -7.64169,0 -11.9492,0.0946 -12.05429,0.26459 -0.1081,0.17489 3.92165,0.26458 11.89037,0.26458 7.85972,0 12.05429,-0.0921 12.05429,-0.26458 0,-0.17248 -4.13967,-0.26459 -11.89037,-0.26459 z m -45.30605,2.95456 c -0.0288,-0.0236 -0.0684,-0.0168 -0.11205,0.0269 -0.0874,0.0873 -0.0803,0.28611 0.0156,0.44131 0.0959,0.15519 0.37537,0.26805 0.62144,0.25115 0.40338,-0.0277 0.40192,-0.0423 -0.0156,-0.15141 -0.25466,-0.0666 -0.46271,-0.25121 -0.46271,-0.41031 0,-0.0795 -0.0179,-0.13397 -0.0467,-0.15762 z m -4.38173,0.031 v 5.2e-4 c -0.40218,0.0608 -0.13573,0.1122 0.59187,0.1142 0.72725,0.002 1.05632,-0.0478 0.7309,-0.11059 -0.32542,-0.0632 -0.92059,-0.065 -1.32277,-0.004 z m 5.15568,0.003 c -0.32742,0.0631 -0.0593,0.11472 0.5955,0.11472 0.65481,0 0.92293,-0.0516 0.59551,-0.11472 -0.32742,-0.0631 -0.86359,-0.0631 -1.19101,0 z m 3.72242,0.0842 c -0.1192,0.0737 -0.21631,0.42458 -0.21631,0.7798 0,0.88732 0.17971,0.81175 0.3185,-0.13384 0.0629,-0.42888 0.017,-0.71966 -0.10219,-0.64596 z m -9.87043,0.2279 c -0.0444,0.0185 -0.048,0.0671 -0.002,0.14211 0.0889,0.14385 0.27391,0.262 0.41084,0.262 0.38059,0 0.29651,-0.18997 -0.16185,-0.36587 -0.11748,-0.0451 -0.20245,-0.0567 -0.24691,-0.0382 z m -0.89585,0.14314 c -0.28961,0.003 -0.21403,0.1242 0.23083,0.37104 0.87572,0.48589 0.91548,0.48778 0.52911,0.0222 -0.18115,-0.21828 -0.52309,-0.39526 -0.75994,-0.39326 z m 67.36875,0.0806 c -0.042,-3.32053 -0.0762,-0.67954 -0.0763,5.86889 0,6.54844 0.0342,9.26526 0.0763,6.03736 0.0421,-3.2279 0.042,-8.58571 0,-11.90625 z m -63.89429,0.009 c -0.0107,-0.0136 -0.0977,-0.0124 -0.26196,0.002 -0.36377,0.0323 -0.48591,0.32314 -0.54881,1.30276 -0.0535,0.83327 -0.17982,1.1998 -0.37193,1.08107 -0.1762,-0.10895 -0.21516,-0.0576 -0.0991,0.13023 0.3533,0.57165 0.6842,0.0154 0.6842,-1.15032 0,-0.80272 0.12274,-1.19384 0.40202,-1.28054 0.14107,-0.0436 0.20629,-0.0717 0.19556,-0.0853 z m 2.22951,0.23358 c -0.0465,0.024 -0.11102,0.0934 -0.18155,0.20257 -0.14106,0.21828 -0.25626,0.51594 -0.25626,0.66146 0,0.14552 0.1152,0.086 0.25626,-0.13229 0.14107,-0.21828 0.25677,-0.51594 0.25677,-0.66146 0,-0.0728 -0.0287,-0.0943 -0.0752,-0.0703 z m 7.62381,0.0258 c -0.20543,0 -0.31206,0.0994 -0.23706,0.22065 0.075,0.12129 0.18146,0.22066 0.23706,0.22066 0.0556,0 0.16258,-0.0994 0.23758,-0.22066 0.075,-0.12128 -0.0321,-0.22065 -0.23758,-0.22065 z m -14.38081,0.0501 c -0.0626,0.0626 0.0369,0.29498 0.22098,0.51677 0.47202,0.56875 0.59991,0.50139 0.21579,-0.11369 -0.17763,-0.28443 -0.37417,-0.46568 -0.43677,-0.40308 z m 3.21043,0.75551 c -0.0278,0.0278 -0.0466,0.12081 -0.0529,0.27492 -0.0115,0.27896 0.0511,0.43517 0.13902,0.34727 0.0879,-0.0879 0.0971,-0.31596 0.0207,-0.50695 -0.0422,-0.10553 -0.079,-0.14306 -0.10686,-0.11524 z m 11.36957,0.0734 c -0.10914,-0.0675 -0.19867,0.21187 -0.19867,0.62064 0,0.40877 0.0895,0.68751 0.19867,0.62011 0.10914,-0.0675 0.19816,-0.34624 0.19816,-0.62011 0,-0.27386 -0.089,-0.55314 -0.19816,-0.62064 z m -14.33827,0.35605 c -0.15411,0 -0.28011,0.11907 -0.28011,0.26459 0,0.14552 0.0525,0.26458 0.11671,0.26458 0.0642,0 0.19022,-0.11906 0.28012,-0.26458 0.0899,-0.14552 0.0374,-0.26459 -0.11672,-0.26459 z m 12.29914,0.0879 c -0.21202,0 -0.44771,0.16176 -0.52341,0.35915 -0.10803,0.28153 -0.025,0.29814 0.38542,0.0786 0.62326,-0.33356 0.65632,-0.4377 0.13799,-0.4377 z m -1.51626,1.0542 c -0.21107,0.0844 -0.14845,0.14698 0.15977,0.15968 0.27887,0.0115 0.43493,-0.0511 0.34703,-0.13901 -0.0879,-0.0879 -0.3158,-0.0971 -0.5068,-0.0207 z m 44.89625,1.10691 c -2.83764,0 -5.15938,0.0893 -5.15931,0.19844 7e-5,0.10914 2.32166,0.19844 5.15931,0.19844 2.83766,0 5.1594,-0.0893 5.15931,-0.19844 -1e-4,-0.10913 -2.32168,-0.19844 -5.15931,-0.19844 z m -25.53199,1.98128 v 0.63923 c 0,0.61686 0.0666,0.63894 1.91828,0.63924 1.05503,1.7e-4 2.05642,-0.11381 2.22536,-0.25373 0.1986,-0.1645 0.36742,-0.15658 0.47827,0.0227 0.26895,0.43518 0.66983,0.32501 0.67383,-0.18552 0.003,-0.36908 0.051,-0.38863 0.23654,-0.0956 0.34451,0.54399 1.82996,0.58936 2.13614,0.0651 0.21539,-0.36872 0.25392,-0.37311 0.26092,-0.0279 0.006,0.31658 0.33978,0.40288 1.52922,0.39688 1.35065,-0.007 1.53057,-0.0713 1.60237,-0.57464 0.0803,-0.56345 0.0457,-0.56725 -5.49026,-0.59635 z m -19.16662,0.002 c -0.75308,0 -1.05902,0.3721 -0.81908,0.99736 0.14628,0.38124 0.20456,0.38897 0.41654,0.0537 0.16665,-0.26354 0.24755,-0.28275 0.25055,-0.0589 0.002,0.1819 0.18218,0.33073 0.40046,0.33073 0.24695,0 0.39735,-0.24988 0.39735,-0.66146 0,-0.5249 -0.13331,-0.66146 -0.64582,-0.66146 z m 18.63752,0.01 -8.7313,0.0114 -8.73129,0.0109 v 0.62787 c 0,0.53494 0.12635,0.62438 0.85954,0.60978 0.47294,-0.009 1.0091,-0.13487 1.191,-0.27905 0.19854,-0.15743 0.33044,-0.1623 0.33044,-0.0124 0,0.13733 0.59516,0.27686 1.32276,0.31006 0.86925,0.0397 1.32329,-0.0459 1.32329,-0.2496 0,-0.20585 0.11083,-0.22548 0.33043,-0.0584 0.46199,0.35154 3.37383,0.4006 3.37383,0.0568 0,-0.1531 0.14644,-0.18429 0.33043,-0.0703 0.54538,0.33802 4.2111,0.38362 4.60427,0.0574 0.19799,-0.16432 0.35689,-0.18317 0.35689,-0.0424 0,0.13952 0.77371,0.24511 1.71959,0.23461 1.60015,-0.0178 1.72012,-0.0604 1.72012,-0.61289 z m -25.83285,0.0429 -3.74006,0.0191 0.0358,0.62529 c 0.0365,0.63545 0.42978,0.90085 0.43678,0.29507 0.003,-0.26367 0.0463,-0.26394 0.21319,-10e-4 0.13883,0.21858 0.80614,0.31233 1.98052,0.27853 1.40091,-0.0403 1.7721,-0.13688 1.7751,-0.46198 0.003,-0.3468 0.0413,-0.35185 0.24277,-0.0336 0.1313,0.20746 0.66503,0.41055 1.18634,0.45165 0.77685,0.0612 0.94824,-0.0147 0.94824,-0.42117 0,-0.27277 0.14853,-0.55795 0.33043,-0.63355 0.1819,-0.0757 -1.35205,-0.12884 -3.4091,-0.11834 z m 5.04259,0.0331 c -0.78455,-0.0209 -0.90571,0.0602 -0.90571,0.60616 0,0.53129 0.13149,0.63045 0.83776,0.63045 0.46082,0 0.76262,-0.075 0.67072,-0.16691 -0.0919,-0.0919 -0.0613,-0.36468 0.0679,-0.60617 0.19679,-0.36771 0.0878,-0.44333 -0.67072,-0.46353 z m 44.66853,0.51004 c -1.41883,0.0476 -0.25801,0.0868 2.57965,0.0868 2.83765,0 3.99847,-0.0392 2.57965,-0.0868 -1.41883,-0.0476 -3.74047,-0.0476 -5.1593,0 z m -4.36565,0.0109 c -0.32743,0.0631 -0.0593,0.11524 0.5955,0.11524 0.65481,0 0.92293,-0.0521 0.59551,-0.11524 -0.32742,-0.0631 -0.86359,-0.0631 -1.19101,0 z m -53.7453,1.73995 c -0.0463,-0.33393 -0.0832,0.97568 -0.10997,3.93774 -0.0293,3.23783 0.0361,5.88727 0.14525,5.8875 0.10919,2.2e-4 0.16728,-1.75594 0.12968,-3.9026 -0.0632,-3.61113 -0.11864,-5.58871 -0.16496,-5.92264 z m 55.26674,0.0346 c -1.09141,0 -1.98415,0.0893 -1.98415,0.19844 0,0.10914 0.89274,0.19844 1.98415,0.19844 1.09141,0 1.98467,-0.0893 1.98467,-0.19844 0,-0.10914 -0.89326,-0.19844 -1.98467,-0.19844 z m 6.3721,0.0584 c -1.73415,-0.0419 -3.24688,0.0173 -3.36138,0.13126 -0.1145,0.1139 1.30473,0.14802 3.15337,0.076 l 3.36087,-0.13074 z m -44.08028,0.28732 c -0.15641,0.0215 -0.32855,0.0792 -0.50888,0.1757 -0.30542,0.16347 -0.68119,0.21922 -0.83516,0.12402 -0.21984,-0.13616 -3.82241,-0.21846 -5.72835,-0.13126 -0.1819,0.008 -0.33095,0.25362 -0.33095,0.54467 0,0.50636 0.17644,0.52917 4.10109,0.52917 3.94578,0 4.1011,-0.0208 4.1011,-0.53795 0,-0.50837 -0.32962,-0.76872 -0.79885,-0.70435 z m 2.51274,0.017 c -0.23886,0.0917 -0.5958,0.1664 -0.79314,0.1664 -0.19771,0 -0.34029,0.24187 -0.31799,0.53847 0.0374,0.49726 0.20271,0.53476 2.16623,0.49506 1.23249,-0.0249 2.20759,-0.16744 2.32029,-0.33952 0.13754,-0.21003 0.19515,-0.20043 0.19815,0.0336 0.003,0.25783 1.93295,0.33073 8.75412,0.33073 8.73611,0 8.7493,-8e-4 8.6649,-0.555 -0.084,-0.55141 -0.14961,-0.55531 -9.94046,-0.59531 -9.22539,-0.0377 -9.85541,-0.0107 -9.85539,0.42271 4e-5,0.64971 -0.43773,0.57847 -0.61522,-0.10025 -0.10204,-0.38987 -0.28078,-0.51227 -0.58149,-0.39688 z m -11.43752,0.0346 c -0.58616,0 -0.86069,0.12583 -0.86369,0.39636 -0.004,0.35278 -0.033,0.35278 -0.26456,0 -0.23159,-0.35277 -0.28973,-0.35277 -0.52132,0 -0.14329,0.21829 -0.26255,0.26159 -0.26455,0.0956 -0.002,-0.16598 -0.41716,-0.35027 -0.92231,-0.40927 -0.86218,-0.10066 -1.19827,0.13399 -1.19827,0.83716 0,0.11856 1.11477,0.23003 2.47746,0.24753 2.416,0.031 2.47688,0.0169 2.44738,-0.56793 -0.0249,-0.494 -0.18181,-0.59945 -0.89014,-0.59945 z m 36.22772,0.0191 c -3.11071,0.0542 -2.86569,0.002 -3.03303,0.64234 -0.13233,0.50606 -0.008,0.52917 2.84317,0.52917 2.96732,0 2.98063,-0.003 2.86496,-0.60823 -0.11242,-0.58805 -0.19956,-0.60638 -2.6751,-0.56328 z m 9.95861,2.57814 v 5.2e-4 c -0.21107,0.0845 -0.14794,0.14698 0.16029,0.15968 0.27886,0.0115 0.43493,-0.0511 0.34703,-0.13901 -0.0879,-0.0879 -0.31633,-0.0976 -0.50732,-0.0212 z m -47.72956,0.31368 c -2.45776,0 -2.66007,0.0953 -2.35038,1.11156 0.0558,0.18295 0.35549,0.26073 0.70548,0.18293 0.76868,-0.1709 3.08774,-0.15628 3.37487,0.0212 0.27819,0.17194 0.71049,-0.40427 0.68939,-0.91881 -0.0132,-0.32248 -0.46677,-0.39687 -2.41936,-0.39687 z m 31.44138,0.0264 c -1.41882,0.0345 -2.66919,0.0723 -2.77833,0.0842 -0.10914,0.0119 -0.19816,0.25193 -0.19816,0.5333 0,0.35976 0.21561,0.53833 0.72727,0.60203 0.40018,0.0498 1.05776,0.006 1.46075,-0.0977 0.43574,-0.11197 0.67042,-0.0878 0.57942,0.0594 -0.0842,0.13616 0.099,0.24753 0.4072,0.24753 0.30822,0 0.49477,-0.10672 0.41447,-0.23668 -0.0841,-0.13608 0.24075,-0.14875 0.76513,-0.0305 1.03665,0.2338 1.2019,0.14343 1.2019,-0.65526 0,-0.5481 -0.0962,-0.56673 -2.57965,-0.50643 z m -17.30542,0.0103 c -5.57987,-0.0344 -10.29389,-0.0147 -10.47579,0.0444 -0.18191,0.0591 -0.33095,0.33647 -0.33095,0.6165 0,0.41641 0.16692,0.49802 0.9166,0.44752 0.50418,-0.034 0.99736,0.0186 1.09556,0.11679 0.0982,0.0983 0.31044,0.0962 0.47205,-0.004 0.1616,-0.10047 1.35128,-0.15472 2.64346,-0.12092 1.45535,0.0381 2.48733,-0.0529 2.71193,-0.23926 0.20828,-0.17283 0.36259,-0.19071 0.36259,-0.0419 0,0.14255 0.53565,0.2589 1.19049,0.2589 0.91374,0 1.19331,-0.0985 1.19931,-0.42478 0.007,-0.37576 0.0485,-0.37269 0.35429,0.03 0.40571,0.53413 0.19332,0.52291 7.83908,0.4191 5.7498,-0.0781 5.95348,-0.0987 5.95348,-0.60979 0,-0.43657 -0.16198,-0.52167 -0.92593,-0.48627 -0.50933,0.0235 -1.19402,0.0534 -1.52144,0.0661 -0.37821,0.0148 -0.59881,0.19211 -0.60381,0.48627 -0.008,0.4333 -0.0317,0.43217 -0.37193,-0.0165 -0.33838,-0.44629 -1.06612,-0.48388 -10.50899,-0.54208 z m 36.38023,1.61954 c -1.91461,-0.0378 -3.42607,0.0206 -3.35827,0.12971 0.0678,0.10916 2.46816,0.17462 5.3336,0.14572 5.21836,-0.0527 4.54498,-0.14652 -1.97533,-0.27543 z m -22.21106,4.86692 c -16.9366,0.0197 -32.74074,0.10255 -35.24784,0.22325 l 0.0394,0.0419 c 1.845,0.10308 15.87321,0.16901 34.74726,0.14263 20.39515,-0.0285 36.94482,-0.13999 36.77706,-0.24805 -0.20821,-0.13411 -18.22597,-0.18072 -36.3159,-0.15968 z"
         sodipodi:nodetypes="sscsccscccssccsssssssscsssscsscsccccssccscsccsscsccsssssssscsssscsccssscsscsccssccsscccssscccsscssssssssssssssssscssssscssssssssccsscccsccsscssssscscccscssssssscccsccssscscssssccccccscscscsssssccssssssssccscsssssssscsssssssscssssscsssscsscssssssssscsssccsscscsssscssscssssscssssccsssscccscccsssssscsccsccssssscsssssssssccsccssccc" /></g><g
       id="g34"
       transform="translate(65.098393,1.2899782)"
       style="stroke:#ffffff;stroke-opacity:1" /></g></svg>
