<?xml version="1.0" encoding="UTF-8" standalone="no"?>
<!-- Created with Inkscape (http://www.inkscape.org/) -->

<svg
   width="211.36365"
   height="114.39394"
   viewBox="0 0 55.9233 30.266731"
   version="1.1"
   id="svg1"
   xml:space="preserve"
   sodipodi:docname="graph1_placeholder.svg"
   inkscape:version="1.4 (e7c3feb100, 2024-10-09)"
   inkscape:export-filename="screensaver-mockup.png"
   inkscape:export-xdpi="96"
   inkscape:export-ydpi="96"
   xmlns:inkscape="http://www.inkscape.org/namespaces/inkscape"
   xmlns:sodipodi="http://sodipodi.sourceforge.net/DTD/sodipodi-0.dtd"
   xmlns="http://www.w3.org/2000/svg"
   xmlns:svg="http://www.w3.org/2000/svg"><sodipodi:namedview
     id="namedview1"
     pagecolor="#ffffff"
     bordercolor="#000000"
     borderopacity="0.25"
     inkscape:showpageshadow="2"
     inkscape:pageopacity="0.0"
     inkscape:pagecheckerboard="0"
     inkscape:deskcolor="#d1d1d1"
     inkscape:document-units="mm"
     inkscape:zoom="3.72"
     inkscape:cx="48.387097"
     inkscape:cy="43.548387"
     inkscape:window-width="1536"
     inkscape:window-height="897"
     inkscape:window-x="0"
     inkscape:window-y="0"
     inkscape:window-maximized="1"
     inkscape:current-layer="g12" /><defs
     id="defs1"><clipPath
       clipPathUnits="userSpaceOnUse"
       id="clipPath27"><ellipse
         style="opacity:0.383255;fill:#ff00fc;fill-opacity:0.718918;stroke:none;stroke-width:12.8405"
         id="ellipse27"
         cx="-262.73123"
         cy="147.37291"
         rx="63.499996"
         ry="63.5" /></clipPath></defs><g
     inkscape:label="Layer 1"
     inkscape:groupmode="layer"
     id="layer1"
     transform="translate(-141.96099,-177.05434)"><g
       id="g12"
       transform="matrix(0.99620687,0,0,1,-5.3008065,398.94167)"><path
         id="path5"
         style="fill:#3bffda;fill-opacity:1"
         d="M 193.30855 -215.75282 C 193.27433 -215.7538 193.23483 -215.74582 193.19184 -215.72957 C 193.10584 -215.69677 193.00768 -215.63137 192.91795 -215.54095 C 192.69468 -215.31602 192.70146 -215.27038 192.94389 -215.35129 C 192.85317 -215.21483 192.76708 -215.02043 192.68141 -214.7627 C 192.6769 -214.74914 192.66258 -214.72265 192.65599 -214.70637 C 192.65018 -214.72546 192.64733 -214.74519 192.63991 -214.76373 C 192.59771 -214.86927 192.56091 -214.90679 192.53305 -214.87897 C 192.50525 -214.85117 192.48644 -214.75816 192.48014 -214.60405 C 192.47646 -214.51479 192.48217 -214.44407 192.49207 -214.38391 C 192.37352 -214.17305 192.18862 -213.87998 191.98268 -213.56174 C 191.95274 -213.53165 191.92204 -213.50487 191.89397 -213.47027 C 191.68125 -213.20797 191.6281 -213.12211 191.71812 -213.15556 C 191.55904 -212.91748 191.37905 -212.65732 191.19472 -212.3923 C 191.10437 -212.35459 191.02766 -212.31285 190.98723 -212.27241 C 190.93092 -212.2161 190.96007 -212.17995 191.04014 -212.16648 C 190.73302 -211.72957 190.40503 -211.27332 190.06492 -210.81565 C 187.94306 -207.96035 187.12166 -206.91999 186.65582 -206.59007 C 186.524 -206.56236 186.38816 -206.51587 186.28389 -206.4552 C 186.07455 -206.47859 185.342 -206.8702 184.53472 -207.34868 C 184.51153 -207.39139 184.48691 -207.42819 184.46106 -207.4541 C 184.42876 -207.48639 184.40688 -207.47479 184.39363 -207.43343 C 183.22094 -208.1359 181.95766 -208.98027 181.95766 -209.13669 C 181.95766 -209.41021 181.53179 -209.41645 181.22366 -209.23332 C 181.22149 -209.3182 181.17467 -209.34728 181.07893 -209.2881 C 180.93508 -209.1992 180.81749 -209.01421 180.81749 -208.87727 C 180.81749 -208.85859 180.82282 -208.85445 180.82371 -208.838 C 180.5561 -208.60215 179.99684 -208.24619 179.39668 -207.944 C 178.97063 -207.72947 178.5799 -207.5064 178.29334 -207.32336 C 178.37711 -207.46922 178.41659 -207.55015 178.39916 -207.56004 C 178.38086 -207.57044 178.30376 -207.50734 178.16106 -207.37504 C 178.08285 -207.3025 178.00604 -207.18808 177.93645 -207.06188 C 177.91755 -207.04359 177.87981 -207.01675 177.87161 -207.00348 C 177.78081 -206.85663 177.40328 -206.84347 176.95709 -206.97144 C 176.49958 -207.10265 175.15757 -207.90921 173.90383 -208.74033 C 173.8949 -208.75198 173.8866 -208.76777 173.87737 -208.77702 C 173.85817 -208.79622 173.84308 -208.79642 173.83069 -208.78787 C 172.54585 -209.64298 171.37449 -210.51171 171.37449 -210.69008 C 171.37449 -210.73901 171.33303 -210.78224 171.27645 -210.82134 C 171.2114 -210.90937 171.14497 -210.95046 171.10112 -210.9066 C 171.09951 -210.90499 171.09952 -210.90162 171.09801 -210.89989 C 171.00078 -210.92769 170.89048 -210.94795 170.76498 -210.94795 C 169.76935 -210.94795 164.72282 -212.74948 164.37109 -213.23049 C 164.31562 -213.30636 164.25325 -213.36004 164.18902 -213.40361 C 164.08916 -213.49083 163.99994 -213.55484 163.92343 -213.57673 C 163.79298 -213.61403 163.68385 -213.56023 163.55202 -213.42738 C 163.34273 -213.21657 163.32144 -213.15664 163.49029 -213.20466 C 163.45928 -213.12908 163.43686 -213.04486 163.43686 -212.94369 C 163.43686 -212.74896 162.33555 -211.88407 160.98948 -211.02133 C 160.18251 -210.50411 159.57064 -210.11648 159.02504 -209.77386 C 159.01295 -209.86142 158.97606 -209.89481 158.91766 -209.83639 C 158.87749 -209.79621 158.83585 -209.71924 158.79836 -209.62968 C 158.3328 -209.33862 158.01103 -209.14772 157.70383 -208.96771 C 157.69416 -209.06544 157.65611 -209.10332 157.5949 -209.04212 C 157.55338 -209.0006 157.50945 -208.92077 157.47092 -208.82715 C 156.79719 -208.44211 156.48093 -208.32143 156.24256 -208.3078 C 156.05177 -208.36892 155.77322 -208.29604 155.6206 -208.14347 C 155.49024 -208.01313 155.50546 -207.9611 155.65017 -207.96983 C 155.62247 -207.92758 155.59404 -207.88537 155.57703 -207.83909 C 155.53486 -207.72436 155.36823 -207.42944 155.14493 -207.05929 C 155.07777 -207.02829 155.02089 -206.99733 154.99138 -206.96783 C 154.94586 -206.92231 154.96892 -206.89375 155.03651 -206.88153 C 154.77831 -206.46096 154.45992 -205.9616 154.12251 -205.45784 C 153.92863 -205.1684 153.75388 -204.92455 153.58769 -204.70182 C 153.51465 -204.66845 153.45113 -204.63308 153.41651 -204.59846 C 153.3694 -204.55135 153.37936 -204.51686 153.43 -204.49873 C 152.9344 -203.86548 152.56403 -203.53961 152.31628 -203.53961 C 152.12837 -203.53961 151.99403 -203.45669 151.90648 -203.33446 C 151.9002 -203.35687 151.89637 -203.38222 151.88833 -203.40215 C 151.85163 -203.49305 151.81864 -203.50133 151.79444 -203.44143 C 151.77024 -203.38153 151.75501 -203.25332 151.75501 -203.07142 C 151.75501 -202.77765 151.79469 -202.63427 151.84839 -202.68178 C 151.89916 -202.53912 151.98624 -202.39611 152.11294 -202.26941 C 152.52705 -201.8553 153.10752 -201.86292 153.1587 -202.28284 C 153.1809 -202.46474 153.21712 -202.73263 153.23962 -202.87815 C 153.31112 -203.34079 155.45688 -206.48255 156.12325 -207.10012 C 156.47574 -207.42679 157.22415 -207.97053 157.78579 -208.30883 C 158.34743 -208.64714 159.9786 -209.69697 161.41121 -210.6415 L 164.01628 -212.35871 L 166.83559 -211.46833 C 168.38615 -210.97853 169.84274 -210.42301 170.07248 -210.23378 C 170.08583 -210.22278 170.10251 -210.21351 170.11657 -210.20277 C 170.31314 -209.98655 170.44817 -209.90187 170.48642 -209.98418 C 170.61753 -209.92673 170.74332 -209.88961 170.83346 -209.88961 C 171.16649 -209.88961 172.58903 -208.99106 173.87789 -208.06698 C 173.89146 -208.01089 173.90089 -207.95541 173.91784 -207.90007 C 173.92894 -207.86377 173.98713 -207.83444 174.047 -207.83444 C 174.07488 -207.83444 174.091 -207.86328 174.10199 -207.90265 C 175.02788 -207.22796 175.84865 -206.56737 176.06798 -206.26193 C 176.06592 -206.22454 176.05887 -206.19968 176.05916 -206.15547 C 176.06104 -205.84412 176.13566 -205.732 176.23812 -205.85833 C 176.34135 -205.70885 176.50425 -205.57527 176.69513 -205.51469 C 176.71235 -205.50922 176.72851 -205.50727 176.74544 -205.5028 C 176.76297 -205.49762 176.78055 -205.49277 176.80562 -205.48885 C 176.87704 -205.47487 176.94709 -205.46903 177.01622 -205.4749 C 177.20933 -205.47466 177.32559 -205.51232 177.32175 -205.56998 C 177.51478 -205.67106 177.72364 -205.85229 177.98262 -206.13584 C 178.8909 -207.13029 181.33251 -208.39437 181.91824 -208.17344 C 182.49265 -207.95677 183.60207 -207.30243 184.46677 -206.72185 C 184.47892 -206.67317 184.48684 -206.62513 184.50152 -206.57715 C 184.51262 -206.54085 184.57082 -206.51152 184.63069 -206.51152 C 184.65763 -206.51152 184.67351 -206.53861 184.68464 -206.5756 C 185.24358 -206.18941 185.65561 -205.85843 185.65726 -205.75085 C 185.66526 -205.21856 186.5657 -205.05421 186.85242 -205.53277 C 188.00679 -207.45946 192.95093 -213.65542 193.60319 -213.99272 C 194.39345 -214.40138 194.39753 -214.41455 193.93518 -215.0495 C 193.71434 -215.35279 193.52782 -215.52668 193.36302 -215.57247 C 193.41489 -215.62882 193.43072 -215.68317 193.39207 -215.72181 C 193.37172 -215.74216 193.34278 -215.75185 193.30855 -215.75282 z M 194.57582 -203.86517 C 194.56212 -203.87877 194.4547 -203.79928 194.24487 -203.6347 C 194.05387 -203.48491 193.88892 -203.32999 193.81847 -203.23886 C 193.81833 -203.23867 193.81861 -203.23852 193.81847 -203.23834 C 192.71861 -202.64591 190.9102 -201.88572 190.081 -201.69941 C 190.06504 -201.69583 190.05201 -201.69403 190.03639 -201.69063 C 189.85857 -201.73037 189.63234 -201.72293 189.48187 -201.66221 C 189.43639 -201.64383 189.41153 -201.62653 189.40562 -201.61053 C 188.89008 -201.60935 188.40321 -201.81601 187.29386 -202.40325 C 186.32359 -202.91687 185.44926 -203.46423 185.35121 -203.61971 C 185.31124 -203.68308 185.25878 -203.71344 185.20077 -203.72875 C 185.21283 -203.76085 185.21355 -203.79086 185.18988 -203.81453 C 185.14918 -203.85523 185.07564 -203.85478 184.98965 -203.82228 C 184.90365 -203.78948 184.8055 -203.72408 184.71576 -203.63366 C 184.59949 -203.51652 184.55073 -203.45233 184.55599 -203.42282 C 184.18047 -203.1871 183.35772 -202.79237 182.5236 -202.45854 C 181.55747 -202.07187 179.41218 -201.19863 177.75645 -200.51809 L 174.74625 -199.28096 L 173.71242 -199.96515 C 173.07304 -200.38827 172.74885 -200.7714 172.86273 -200.96974 C 172.96401 -201.14614 172.94675 -201.19978 172.82435 -201.0886 C 172.52409 -200.81582 171.10994 -202.20028 171.10994 -202.76705 C 171.10994 -203.41772 169.44568 -203.90111 169.21346 -203.31792 C 169.16496 -203.1961 167.63736 -202.46282 165.81835 -201.68805 C 163.99934 -200.91327 161.4391 -199.75506 160.12942 -199.11456 C 157.58782 -197.87158 154.12623 -196.78601 153.48654 -197.03148 C 153.273 -197.11338 153.03041 -197.00388 152.94758 -196.78809 C 152.86478 -196.57226 152.63105 -196.39586 152.42833 -196.39586 C 152.32723 -196.39586 152.23514 -196.35621 152.16844 -196.29251 C 152.12217 -196.35676 152.07735 -196.38333 152.04343 -196.34935 C 151.97113 -196.27705 151.98265 -196.03441 152.06885 -195.80985 C 152.19401 -195.48371 152.30272 -195.37172 152.35104 -195.43416 C 152.54288 -195.31559 152.80648 -195.31145 153.07985 -195.43778 C 153.12436 -195.38144 153.19813 -195.42582 153.28009 -195.56025 C 153.39123 -195.63719 153.50133 -195.72784 153.60481 -195.84809 C 153.84641 -196.12883 154.76174 -196.53622 155.63876 -196.75346 C 156.51577 -196.9707 158.65888 -197.8246 160.40124 -198.65102 C 165.28154 -200.96581 169.51693 -202.56687 170.0704 -202.3061 C 170.46961 -202.11801 171.21751 -201.46808 171.89219 -200.79869 C 171.98264 -200.68645 172.08757 -200.56426 172.21795 -200.42817 C 172.36562 -200.27404 172.49484 -200.15445 172.62464 -200.03233 C 173.07111 -199.52885 173.35836 -199.12312 173.24919 -199.05565 C 173.05923 -198.93824 173.07271 -198.75186 173.2798 -198.45103 C 173.2354 -198.43253 173.23182 -198.38393 173.27772 -198.30892 C 173.36662 -198.16507 173.55111 -198.04692 173.68804 -198.04692 C 173.838 -198.04692 173.91327 -198.0769 173.92458 -198.12341 C 174.14081 -198.1849 174.45024 -198.33694 174.9636 -198.60245 C 175.68181 -198.97391 177.95645 -199.98766 180.01864 -200.85502 C 182.18688 -201.76699 183.54322 -202.24922 184.62187 -202.35364 C 184.65027 -202.32614 184.74257 -202.30776 184.89576 -202.30145 C 185.08566 -202.29362 185.21108 -202.32162 185.24902 -202.36707 C 186.04211 -202.32884 186.72777 -202.05741 187.5776 -201.57022 C 188.15286 -201.24044 188.66767 -200.89498 188.87755 -200.70826 C 188.93995 -200.63789 188.99433 -200.58333 189.04354 -200.54031 C 189.06993 -200.51214 189.09723 -200.48559 189.12965 -200.46486 C 189.14235 -200.45658 189.15266 -200.45279 189.16389 -200.4473 C 189.49169 -200.27216 190.06204 -200.42801 190.53956 -200.86846 C 191.18908 -201.46755 194.15752 -202.74586 194.89899 -202.74586 C 195.6081 -202.74586 195.79975 -203.14076 195.29426 -203.56028 C 195.13513 -203.69234 195.00485 -203.76112 194.87253 -203.76751 C 194.74021 -203.77351 194.60588 -203.7184 194.43731 -203.60214 C 194.41638 -203.58771 194.38343 -203.56962 194.36054 -203.5546 C 194.51123 -203.74721 194.5889 -203.85209 194.57582 -203.86517 z " /></g><g
       id="g34"
       transform="translate(65.098393,1.2899782)"
       style="stroke:#ffffff;stroke-opacity:1" /></g></svg>
