<?xml version="1.0" encoding="UTF-8" standalone="no"?>
<!-- Created with Inkscape (http://www.inkscape.org/) -->

<svg
   width="168.93941"
   height="85.606064"
   viewBox="0 0 44.698553 22.649938"
   version="1.1"
   id="svg1"
   xml:space="preserve"
   sodipodi:docname="graph5_placeholder.svg"
   inkscape:version="1.4 (e7c3feb100, 2024-10-09)"
   inkscape:export-filename="screensaver-mockup.png"
   inkscape:export-xdpi="96"
   inkscape:export-ydpi="96"
   xmlns:inkscape="http://www.inkscape.org/namespaces/inkscape"
   xmlns:sodipodi="http://sodipodi.sourceforge.net/DTD/sodipodi-0.dtd"
   xmlns="http://www.w3.org/2000/svg"
   xmlns:svg="http://www.w3.org/2000/svg"><sodipodi:namedview
     id="namedview1"
     pagecolor="#ffffff"
     bordercolor="#000000"
     borderopacity="0.25"
     inkscape:showpageshadow="2"
     inkscape:pageopacity="0.0"
     inkscape:pagecheckerboard="0"
     inkscape:deskcolor="#d1d1d1"
     inkscape:document-units="mm"
     inkscape:zoom="2.3"
     inkscape:cx="45"
     inkscape:cy="12.173913"
     inkscape:window-width="1536"
     inkscape:window-height="897"
     inkscape:window-x="0"
     inkscape:window-y="0"
     inkscape:window-maximized="1"
     inkscape:current-layer="g12" /><defs
     id="defs1"><clipPath
       clipPathUnits="userSpaceOnUse"
       id="clipPath27"><ellipse
         style="opacity:0.383255;fill:#ff00fc;fill-opacity:0.718918;stroke:none;stroke-width:12.8405"
         id="ellipse27"
         cx="-262.73123"
         cy="147.37291"
         rx="63.499996"
         ry="63.5" /></clipPath></defs><g
     inkscape:label="Layer 1"
     inkscape:groupmode="layer"
     id="layer1"
     transform="translate(-152.58441,-148.86417)"><g
       id="g12"
       transform="matrix(0.99620687,0,0,1,-5.3008065,398.94167)"><path
         id="path5"
         style="fill:#3bffda;fill-opacity:1"
         d="m 168.9249,-245.41872 c -0.4927,0.0799 -0.65748,0.49977 -0.79678,1.59629 -0.1533,1.20681 0.12572,1.62819 0.74075,1.11776 0.45827,-0.38033 1.18271,-0.15825 1.18271,0.36277 0,0.20503 -0.16647,0.51066 -0.36933,0.67902 -0.28412,0.2358 -0.46173,0.21302 -0.77447,-0.0997 -0.22331,-0.2233 -0.54253,-0.40618 -0.70911,-0.40618 -0.56726,0 -0.13444,0.88163 0.6619,1.34824 0.85977,0.50378 1.11369,0.60356 0.83931,0.32918 -0.0962,-0.0962 0.0926,-0.30736 0.41914,-0.46922 0.74316,-0.36834 1.00399,-2.17634 0.35014,-2.42725 -0.31825,-0.12212 -0.34654,-0.27193 -0.12812,-0.68006 0.40247,-0.75201 0.13681,-1.19221 -0.803,-1.33015 -0.24816,-0.0364 -0.44891,-0.0473 -0.61314,-0.0207 z m 3.99371,0.0749 c -0.59389,0 -2.07563,1.02987 -2.06974,1.43867 0.002,0.15454 0.10077,0.12954 0.21839,-0.0558 0.12443,-0.19607 0.20534,0.20134 0.19401,0.95085 -0.011,0.73006 0.1381,1.47777 0.34391,1.72599 0.52025,0.62744 1.69683,0.54724 2.3011,-0.15709 0.40311,-0.46987 0.48073,-0.85389 0.36934,-1.82212 -0.1595,-1.38651 -0.61206,-2.08049 -1.35701,-2.08049 z m 5.24594,0.0207 c -0.16417,-0.11928 -0.51485,0.14085 -0.6951,0.61495 -0.31939,0.84006 -0.80352,1.12378 -0.80352,0.47077 0,-1.2452 -1.53981,-1.44964 -1.95821,-0.25993 -0.31437,0.89391 0.15534,1.53325 1.13084,1.53893 0.54603,0.003 0.60998,0.059 0.29827,0.26045 -0.21828,0.14107 -0.29395,0.25821 -0.16807,0.26044 0.12588,0.002 0.0428,0.28799 -0.18467,0.63511 -0.38213,0.58321 -0.33765,1.08724 0.0737,0.83302 0.0971,-0.06 0.67628,-0.9459 1.28645,-1.96887 0.61017,-1.02297 1.10905,-1.98272 1.10905,-2.13269 0,-0.1302 -0.034,-0.21242 -0.0887,-0.25218 z m -4.80605,0.77773 -0.52911,0.2434 c -0.47064,0.21678 -0.47655,0.24597 -0.0539,0.26251 0.39369,0.0154 0.46449,0.22287 0.41343,1.20923 -0.0641,1.23862 -0.13,1.32793 -0.70755,0.9617 -0.22469,-0.14249 -0.31836,-0.63175 -0.26455,-1.38234 0.0667,-0.93035 0.18899,-1.17537 0.61262,-1.22835 z m -3.61868,0.0434 c 0.42898,-0.0631 0.53314,0.0201 0.41395,0.33073 -0.18846,0.49111 -1.25712,0.57321 -1.09608,0.0842 0.0599,-0.1819 0.36682,-0.36856 0.68213,-0.41496 z m 5.8596,0.0155 c 0.10456,-0.003 0.21117,0.0338 0.30242,0.12506 0.30531,0.30531 0.11455,0.86972 -0.29412,0.86972 -0.12834,0 -0.31358,-0.12964 -0.41135,-0.28784 -0.2045,-0.33088 0.0894,-0.69795 0.40305,-0.70694 z m 2.45568,1.30793 c -0.60487,0.0696 -0.74171,0.22766 -0.81026,0.93741 -0.0813,0.8415 0.36616,1.64803 0.86991,1.56838 0.14199,-0.0225 0.47013,-0.29863 0.72934,-0.61391 0.37393,-0.45483 0.41639,-0.71808 0.2049,-1.27434 -0.21308,-0.56045 -0.41235,-0.68445 -0.99389,-0.61754 z m -2.84421,0.38499 c -0.26995,-0.10359 -0.39683,0.0142 -0.39683,0.36846 0,0.2866 0.17845,0.5209 0.39683,0.5209 0.21828,0 0.39683,-0.16575 0.39683,-0.36846 0,-0.20271 -0.17855,-0.43713 -0.39683,-0.5209 z m 2.61648,0.14573 c 0.18715,-0.0817 0.57033,0.18831 0.64375,0.56689 0.0556,0.28685 -0.0832,0.43423 -0.39683,0.42065 -0.27793,-0.012 -0.34201,-0.0777 -0.15147,-0.15451 0.1819,-0.0734 0.33043,-0.24973 0.33043,-0.39171 0,-0.14198 -0.11903,-0.18454 -0.26455,-0.0946 -0.14552,0.0899 -0.26455,0.0277 -0.26455,-0.13849 0,-0.11443 0.0408,-0.18103 0.10322,-0.20826 z m 15.66986,3.20962 c -2.84388,-0.0131 -7.08694,0.009 -12.59792,0.0667 -10.64614,0.11163 -17.16526,0.27757 -17.33032,0.4408 -0.17443,0.1725 5.55073,0.19885 16.80121,0.0775 10.39797,-0.11215 17.1691,-0.28449 17.33031,-0.4408 0.0854,-0.0828 -1.35941,-0.13104 -4.20328,-0.14418 z m 3.07452,3.70831 c -0.056,-0.0293 -0.12643,-0.0193 -0.21579,0.015 -0.23018,0.0883 -7.7313,0.16072 -16.66893,0.16072 h -16.25032 v 1.67586 c 0,0.92163 0.0494,1.7253 0.10997,1.78594 0.0606,0.0606 7.56171,0.0783 16.66894,0.0398 l 16.55844,-0.0698 v -1.87637 c 0,-1.2018 -0.0343,-1.64343 -0.20231,-1.73116 z m -6.14749,0.44028 h 2.91061 2.91008 v 1.45521 1.45521 h -2.91008 -2.91061 v -1.45521 z"
         sodipodi:nodetypes="ssscssssssssssssssssssssssssscsssssssssssssssssssssssssscccscccccsccccssssccccccccssssscccccccccccccc" /><path
         id="path6"
         style="fill:#16a98d;fill-opacity:1"
         d="m 172.64879,-245.3698 -0.6951,0.0362 0.66139,0.11886 c 0.3638,0.0653 0.77472,0.2275 0.91297,0.3607 0.4029,0.3882 0.50525,0.27927 0.14524,-0.15452 -0.18116,-0.21828 -0.64213,-0.38101 -1.0245,-0.36121 z m 5.19666,0.007 c -0.086,0.0327 -0.18415,0.0982 -0.27389,0.18862 -0.25936,0.26131 -0.22873,0.29189 0.14836,0.14831 0.26091,-0.0994 0.40778,-0.24768 0.32628,-0.32918 -0.0407,-0.0407 -0.11476,-0.0405 -0.20075,-0.008 z m -2.14962,0.0114 c -0.27012,-0.0573 -0.6064,0.0113 -0.7475,0.15245 -0.16567,0.1657 0.008,0.20227 0.49124,0.10387 0.55377,-0.11291 0.62001,-0.17922 0.25626,-0.25632 z m -5.32946,0.0145 -1.05613,0.0315 c -0.73467,0.0219 -1.06485,0.15232 -1.08415,0.4284 v 5.2e-4 c -0.0152,0.21825 0.0209,0.25479 0.0804,0.0811 0.0595,-0.17366 0.54753,-0.3664 1.08415,-0.4284 z m 5.15931,0.48679 c -0.0876,0 -0.17525,0.0425 -0.26092,0.12816 -0.17135,0.1713 -0.0818,0.26096 0.26092,0.26096 0.34271,0 0.43175,-0.0896 0.26041,-0.26096 -0.0857,-0.0857 -0.17284,-0.12816 -0.26041,-0.12816 z m -1.50691,0.66197 c -0.0242,0.0599 -0.0389,0.1881 -0.0389,0.37 0,0.36383 0.0599,0.51263 0.13332,0.33073 0.0734,-0.1819 0.0734,-0.47956 0,-0.66146 -0.0367,-0.0909 -0.0702,-0.0992 -0.0944,-0.0393 z m 2.95366,0.25114 c -0.007,-0.0553 -0.0861,-0.0424 -0.23966,0.0165 -0.2049,0.0786 -0.43777,0.31232 -0.51717,0.51935 -0.21432,0.55852 0.19139,0.45576 0.56541,-0.14315 0.13368,-0.21405 0.1985,-0.33742 0.19142,-0.39274 z m -3.71724,0.0605 c -0.0207,0.10724 -0.0343,0.35605 -0.0353,0.71985 h -5.2e-4 c -0.002,0.72724 0.0477,1.05664 0.11049,0.73122 0.0632,-0.32542 0.0649,-0.92074 0.004,-1.32292 -0.0304,-0.20109 -0.0581,-0.2354 -0.0788,-0.12815 z m -4.1457,0.14727 c -0.1819,0.0734 -0.0334,0.13385 0.33043,0.13385 0.36382,0 0.51286,-0.0605 0.33095,-0.13385 -0.1819,-0.0734 -0.47948,-0.0734 -0.66138,0 z m 2.81619,5.2e-4 c -0.0218,0.0834 -0.0359,0.28102 -0.0374,0.57206 -0.003,0.5821 0.049,0.85137 0.11516,0.59841 0.0659,-0.25297 0.0685,-0.72921 0.005,-1.05833 -0.0317,-0.16456 -0.0612,-0.1955 -0.083,-0.11214 z m -1.62052,0.20412 c -0.0223,0.0223 0.006,0.12462 0.0778,0.31316 0.0994,0.26092 0.24738,0.40758 0.32888,0.32608 0.0815,-0.0815 3e-4,-0.29491 -0.18052,-0.47439 -0.13065,-0.12968 -0.20385,-0.18716 -0.22617,-0.16485 z m 6.7596,0.13281 c -0.1237,0.0764 -0.15632,0.25005 -0.0726,0.38551 0.21398,0.34618 0.29723,0.30712 0.29723,-0.13901 0,-0.2119 -0.10097,-0.3229 -0.22461,-0.2465 z m -5.94311,0.0765 c -0.0239,0.059 -0.04,0.20495 -0.0425,0.42323 -0.005,0.43656 0.0494,0.6468 0.1219,0.46767 0.0727,-0.17913 0.077,-0.53632 0.01,-0.79375 -0.0335,-0.12871 -0.0653,-0.15618 -0.0892,-0.0971 z m -3.05118,0.0837 c -0.0288,-0.0323 -0.0684,-0.0307 -0.11205,0.0129 -0.0873,0.0873 -0.0803,0.2856 0.0156,0.4408 0.21857,0.35362 0.59127,0.36327 0.803,0.0207 0.0927,-0.14999 -0.0135,-0.19427 -0.24899,-0.10387 -0.23865,0.0916 -0.41084,0.0165 -0.41084,-0.17932 0,-0.0926 -0.0179,-0.15889 -0.0467,-0.1912 z m 5.94155,0.57154 c -0.0278,0.0278 -0.0466,0.12081 -0.0529,0.27492 -0.0115,0.27887 0.0506,0.43516 0.1385,0.34726 0.0879,-0.0879 0.0977,-0.31595 0.0213,-0.50694 -0.0422,-0.10554 -0.079,-0.14306 -0.10686,-0.11524 z m -1.79066,0.81907 c -0.0444,0.0185 -0.0474,0.0671 -0.001,0.14211 0.0889,0.14385 0.27339,0.262 0.41032,0.262 0.38059,0 0.29704,-0.18997 -0.16133,-0.36587 -0.11773,-0.0452 -0.20355,-0.0568 -0.24795,-0.0382 z m -0.89066,0.0124 c -0.0626,0.0626 0.0369,0.29548 0.22098,0.51728 0.47202,0.56875 0.59991,0.50089 0.21579,-0.1142 -0.17763,-0.28442 -0.37417,-0.46568 -0.43677,-0.40308 z m 2.60714,0.12661 c -0.0136,-0.0137 -0.1206,0.0664 -0.33043,0.23099 -0.25466,0.19972 -0.46323,0.40812 -0.46323,0.46302 0,0.21776 0.21718,0.0774 0.56283,-0.36328 0.16455,-0.20983 0.24449,-0.31707 0.23083,-0.33073 z m 3.91956,0.6129 c -0.21106,0.0844 -0.14845,0.1475 0.15977,0.1602 0.27887,0.0115 0.43493,-0.0511 0.34703,-0.13901 -0.0879,-0.0879 -0.3158,-0.0976 -0.5068,-0.0212 z m 8.45015,1.572 c -1.05502,0.0502 -0.1923,0.0915 1.91775,0.0915 2.11005,0 2.9733,-0.0413 1.91827,-0.0915 -1.05503,-0.0502 -2.78099,-0.0502 -3.83602,0 z m -22.48496,0.23978 c -0.086,0.0327 -0.18415,0.0982 -0.27389,0.18862 -0.25937,0.26131 -0.22872,0.2919 0.14836,0.14831 0.26092,-0.0994 0.40778,-0.24716 0.32628,-0.32866 -0.0407,-0.0407 -0.11476,-0.041 -0.20075,-0.008 z m 8.8589,0.28835 c -1.70987,0.0461 -0.31097,0.0837 3.10877,0.0837 3.41973,0 4.81863,-0.0376 3.10876,-0.0837 -1.70987,-0.0461 -4.50766,-0.0461 -6.21753,0 z m -9.18674,3.24063 -0.084,1.55753 c -0.0464,0.85683 -0.0221,1.72003 0.054,1.91823 0.25692,0.66941 0.28753,0.3683 0.15873,-1.55701 z m 26.6981,0.98495 c -0.02,0.13102 -0.0327,0.43057 -0.0332,0.86713 h -5.2e-4 c -0.001,0.87263 0.047,1.26213 0.10738,0.86455 0.0607,-0.39758 0.062,-1.11195 0.003,-1.5875 -0.0294,-0.23777 -0.0568,-0.2752 -0.0768,-0.14418 z m 6.11688,0.10387 c -0.0395,-0.0392 -0.0674,0.29528 -0.0674,0.89556 0,0.8004 0.0499,1.12778 0.11049,0.7276 0.0606,-0.40018 0.0606,-1.05502 0,-1.45521 -0.0152,-0.10004 -0.0299,-0.15487 -0.0431,-0.16795 z"
         sodipodi:nodetypes="cssssscccccscscssssssssscssscssscsscsccccssscssssccsscsccsccccscscccsccssscsccssssssscsssssssssscsssccsscscscsssssccsssssssssssscssssscssssss" /></g><g
       id="g34"
       transform="translate(65.098393,1.2899782)"
       style="stroke:#ffffff;stroke-opacity:1" /></g></svg>
