<?xml version="1.0" encoding="UTF-8" standalone="no"?>
<!-- Created with Inkscape (http://www.inkscape.org/) -->

<svg
   width="1080"
   height="720"
   viewBox="0 0 285.75001 190.5"
   version="1.1"
   id="svg1"
   xml:space="preserve"
   sodipodi:docname="screensaver-mockup-stripped-down.svg"
   inkscape:version="1.4 (e7c3feb100, 2024-10-09)"
   inkscape:export-filename="screensaver-mockup.png"
   inkscape:export-xdpi="96"
   inkscape:export-ydpi="96"
   xmlns:inkscape="http://www.inkscape.org/namespaces/inkscape"
   xmlns:sodipodi="http://sodipodi.sourceforge.net/DTD/sodipodi-0.dtd"
   xmlns="http://www.w3.org/2000/svg"
   xmlns:svg="http://www.w3.org/2000/svg"><sodipodi:namedview
     id="namedview1"
     pagecolor="#ffffff"
     bordercolor="#000000"
     borderopacity="0.25"
     inkscape:showpageshadow="2"
     inkscape:pageopacity="0.0"
     inkscape:pagecheckerboard="0"
     inkscape:deskcolor="#d1d1d1"
     inkscape:document-units="mm"
     inkscape:zoom="1.55"
     inkscape:cx="863.54839"
     inkscape:cy="394.83871"
     inkscape:window-width="1536"
     inkscape:window-height="897"
     inkscape:window-x="0"
     inkscape:window-y="0"
     inkscape:window-maximized="1"
     inkscape:current-layer="g12" /><defs
     id="defs1"><clipPath
       clipPathUnits="userSpaceOnUse"
       id="clipPath27"><ellipse
         style="opacity:0.383255;fill:#ff00fc;fill-opacity:0.718918;stroke:none;stroke-width:12.8405"
         id="ellipse27"
         cx="-262.73123"
         cy="147.37291"
         rx="63.499996"
         ry="63.5" /></clipPath></defs><g
     inkscape:label="Layer 1"
     inkscape:groupmode="layer"
     id="layer1"
     transform="translate(64.293747,-53.181252)"><g
       id="g12"
       transform="matrix(0.99620687,0,0,1,-5.3008065,398.94167)"><rect
         style="opacity:1;fill:#ff6600;fill-opacity:0.71764708;stroke:none;stroke-width:2.29742"
         id="rect21"
         width="54.526588"
         height="8.2181196"
         x="148.82852"
         y="-187.53963" /><rect
         style="opacity:1;fill:#ff6600;fill-opacity:0.71764708;stroke:none;stroke-width:2.08405"
         id="rect18"
         width="44.868744"
         height="8.2181196"
         x="157.68155"
         y="-269.52036" /><rect
         style="opacity:1;fill:#ff6600;fill-opacity:0.71764708;stroke:none;stroke-width:2.05397"
         id="rect19"
         width="21.52895"
         height="16.636681"
         x="182.22858"
         y="-292.29858" /><rect
         style="opacity:1;fill:#ff6600;fill-opacity:0.71764708;stroke:none;stroke-width:1.99555"
         id="rect22"
         width="20.321718"
         height="16.636681"
         x="158.08397"
         y="-292.09814" /><rect
         style="fill:#ff6600;fill-opacity:0.71764708;stroke:none;stroke-width:0.871813"
         id="rect23-3"
         width="5.0301323"
         height="12.828284"
         x="149.29532"
         y="-240.84912" /><rect
         style="fill:#ff6600;fill-opacity:0.717647;stroke:none;stroke-width:0.962456"
         id="rect27"
         width="40.382061"
         height="5.765986"
         x="68.813286"
         y="-184.32451" /><rect
         style="opacity:1;fill:#ff6600;fill-opacity:0.71764708;stroke:none;stroke-width:1.2092"
         id="rect23"
         width="16.297619"
         height="7.6167951"
         x="106.37425"
         y="-322.16443"
         inkscape:export-filename="rect23.png"
         inkscape:export-xdpi="96"
         inkscape:export-ydpi="96" /><rect
         style="opacity:1;fill:#ff6600;fill-opacity:0.71764708;stroke:none;stroke-width:2.91895"
         id="rect26"
         width="47.484409"
         height="15.233588"
         x="-34.340561"
         y="-317.97113" /><rect
         style="opacity:1;fill:#ff6600;fill-opacity:0.71764708;stroke:none;stroke-width:1.31388"
         id="rect25"
         width="31.790411"
         height="4.6101656"
         x="-34.268127"
         y="-323.71179" /><path
         id="path5"
         style="fill:#3bffda;fill-opacity:1"
         d="m -33.942347,-322.33704 v 1.19062 1.19063 h 6.04219 6.042708 l 0.04513,-1.19063 0.04513,-1.19062 h -6.087838 z m 10.775619,1.65926 c 0.548949,0.0573 0.164813,0.10527 -0.853833,0.10645 -1.018646,10e-4 -1.467737,-0.046 -0.99804,-0.10438 0.469697,-0.0585 1.302925,-0.0596 1.851873,-0.002 z m -4.224034,0.006 c 0.329119,-0.0633 0.805248,-0.061 1.058213,0.005 0.252964,0.0662 -0.01653,0.11818 -0.598617,0.11524 -0.582083,-0.003 -0.788714,-0.0571 -0.459596,-0.12041 z m -1.309798,0.006 c 0.190996,-0.0764 0.419401,-0.0667 0.507319,0.0212 0.08792,0.0879 -0.06812,0.1505 -0.347031,0.13901 -0.308225,-0.0127 -0.371354,-0.0757 -0.160288,-0.1602 z m 221.80252,32.45877 c -4.60477,0 -7.05528,4.70088 -3.95793,7.59282 1.54274,1.44042 4.01556,1.79139 5.96646,0.84698 4.51186,-2.18415 3.02315,-8.4398 -2.00853,-8.4398 z m -0.48346,0.54778 c 2.34701,-0.15772 4.68467,1.27312 4.68467,3.81785 0,2.78758 -3.14317,4.71686 -6.22427,3.82044 -2.29617,-0.66805 -3.47549,-3.64732 -2.19164,-5.5361 0.91151,-1.34101 2.32303,-2.00757 3.73124,-2.10219 z m 0.21631,1.42937 c -0.15282,0.009 -0.29259,0.13854 -0.55141,0.39739 -0.67993,0.67993 -0.68242,1.37989 -0.007,1.99109 0.70972,0.64228 0.66663,0.87929 -0.13227,0.72657 -0.3638,-0.0695 -0.66139,-0.0334 -0.66139,0.0806 0,0.18841 1.34868,1.68179 1.53441,1.69912 0.0433,0.004 0.37041,-0.30792 0.72726,-0.69298 0.86535,-0.93372 0.82064,-1.60803 -0.14317,-2.15646 -0.92891,-0.52858 -1.0287,-0.86725 -0.22928,-0.77825 0.80426,0.0895 0.85145,-0.38426 0.0934,-0.93638 -0.31154,-0.22689 -0.47744,-0.33929 -0.63026,-0.33072 z m -41.70138,7.81244 c -1.34811,0 -1.71759,0.17861 -1.27868,0.61753 0.097,0.097 0.7517,0.17622 1.45505,0.17622 0.96034,0 1.27919,-0.0988 1.27919,-0.39688 0,-0.30467 -0.33843,-0.39687 -1.45556,-0.39687 z m 10.18686,12.43593 v 0.88212 c 0,0.48507 0.0799,0.96187 0.17792,1.05988 0.098,0.098 8.34334,0.14745 18.32265,0.11007 l 18.14421,-0.0677 0.082,-0.99219 0.082,-0.99219 h -18.40461 z m 34.01428,78.84584 c -2.96738,0 -4.94315,0.10367 -5.0426,0.26458 -0.10683,0.17285 1.58478,0.26458 4.8792,0.26458 3.18541,0 5.04259,-0.0974 5.04259,-0.26458 0,-0.16683 -1.80279,-0.26458 -4.87919,-0.26458 z m -0.80922,3.4401 c -2.55764,0 -4.1011,0.0996 -4.1011,0.26458 0,0.16501 1.54346,0.26458 4.1011,0.26458 2.55764,0 4.10109,-0.0996 4.10109,-0.26458 0,-0.16501 -1.54345,-0.26458 -4.10109,-0.26458 z"
         sodipodi:nodetypes="scccccccssccsssscsssssssssssssssssscccsccccsscssccscccccsssssssssssss"
         inkscape:export-filename="screensaver-mockup.png"
         inkscape:export-xdpi="96"
         inkscape:export-ydpi="96" /><path
         id="path6"
         style="fill:#16a98d;fill-opacity:1"
         d="m -27.939581,-321.60847 c -3.880556,0 -6.085244,0.0959 -6.085244,0.26458 0,0.16868 2.204688,0.26458 6.085244,0.26458 3.880556,0 6.085764,-0.0959 6.085764,-0.26458 0,-0.16869 -2.205208,-0.26458 -6.085764,-0.26458 z m -4.819538,0.8634 c -0.768862,0.0536 -0.207659,0.098 1.24755,0.0987 1.455212,7e-4 2.084329,-0.0434 1.397983,-0.0977 -0.686346,-0.054 -1.87667,-0.0546 -2.645533,-10e-4 z m 2.504438,0.52761 c -1.564349,0.0467 -0.284491,0.0847 2.844207,0.0847 3.128698,0 4.408555,-0.038 2.844207,-0.0847 -1.564349,-0.0468 -4.124065,-0.0468 -5.688414,0 z m 222.515261,32.29511 c -0.25466,0.0665 -0.0466,0.12092 0.46271,0.12092 0.50932,0 0.71789,-0.0543 0.46323,-0.12092 -0.25466,-0.0665 -0.67128,-0.0665 -0.92594,0 z m -2.87533,0.7524 c -0.0749,0.0242 -0.22443,0.19944 -0.5234,0.54984 -0.30882,0.36198 -0.34056,0.46509 -0.0825,0.26665 0.23167,-0.17808 0.4794,-0.26528 0.5509,-0.19378 0.0715,0.0715 0.1302,-0.0484 0.1302,-0.26666 0,-0.25354 -3.8e-4,-0.38031 -0.0752,-0.35605 z m 6.86231,0.0672 c -0.088,0.001 -0.15863,0.0626 -0.23395,0.18449 -0.12021,0.19452 -0.0853,0.24905 0.0903,0.14056 0.15795,-0.0976 0.36197,-0.0564 0.45337,0.0915 v 5.1e-4 c 0.0914,0.14789 0.21851,0.26872 0.28271,0.26872 0.21794,0 0.11818,-0.19878 -0.25626,-0.50953 -0.14293,-0.11886 -0.24818,-0.17747 -0.33613,-0.17622 z m -3.71464,1.84434 c -0.0278,0.0278 -0.0466,0.1208 -0.0529,0.27491 -0.0115,0.27897 0.0511,0.43517 0.13902,0.34727 0.0879,-0.0879 0.0971,-0.31595 0.0207,-0.50695 -0.0422,-0.10553 -0.079,-0.14305 -0.10686,-0.11523 z m 1.18737,1.15703 c -0.0286,-0.009 -0.01,0.0297 0.0628,0.11731 0.145,0.17514 0.27722,0.56261 0.29412,0.86093 0.0277,0.48896 0.0432,0.49361 0.1577,0.048 0.0699,-0.27186 -0.0624,-0.65932 -0.29413,-0.86092 -0.11586,-0.1008 -0.19187,-0.15665 -0.22046,-0.16537 z m -0.43625,0.5948 c -0.14552,0 -0.33805,0.11906 -0.42795,0.26458 -0.0899,0.14553 -0.0449,0.26458 0.10063,0.26458 0.14551,0 0.33856,-0.11905 0.42846,-0.26458 0.0899,-0.14552 0.0444,-0.26458 -0.10114,-0.26458 z m -4.90929,1.94458 c -0.0537,0.0344 -0.0554,0.10947 0.0213,0.23358 0.0809,0.1309 0.21495,0.1706 0.29775,0.0879 0.2402,-0.24021 1.12446,0.68639 0.93994,0.98495 -0.0993,0.1606 -0.0353,0.18878 0.15822,0.0693 0.24091,-0.14889 0.18178,-0.3542 -0.22825,-0.79065 -0.39694,-0.42252 -1.0277,-0.688 -1.18893,-0.58498 z m 8.52588,0.23358 c 0.006,-0.0344 -0.0859,0.0277 -0.27441,0.17363 -0.25466,0.19717 -0.46323,0.27748 -0.46323,0.17828 0,-0.0992 -0.1208,-0.1053 -0.2687,-0.0139 -0.14787,0.0914 -0.20042,0.27691 -0.11672,0.41238 0.20862,0.33757 0.23554,0.3259 0.80767,-0.34468 0.20516,-0.24046 0.30931,-0.37124 0.31539,-0.40566 z m -3.43297,1.87534 c -0.21107,0.0845 -0.14845,0.14698 0.15977,0.15968 0.27887,0.0115 0.43545,-0.0511 0.34755,-0.13901 -0.0879,-0.0879 -0.31633,-0.0971 -0.50732,-0.0207 z m -42.34979,1.0175 c -1.40357,-0.0398 -1.79291,0.12629 -1.34508,0.57413 0.097,0.097 0.78172,0.15454 1.52145,0.12764 l 1.34507,-0.0491 -1.45556,-0.13436 -1.45505,-0.13488 1.45505,-0.17001 1.45556,-0.17053 z m 10.22472,12.74702 c -0.0218,0.0834 -0.0364,0.28102 -0.0379,0.57206 h 5.2e-4 c -0.003,0.5821 0.049,0.85138 0.11516,0.59841 0.0659,-0.25296 0.0677,-0.72921 0.005,-1.05833 -0.0317,-0.16456 -0.0607,-0.1955 -0.0825,-0.11214 z m 36.51251,0 c -0.0218,0.0834 -0.0364,0.28102 -0.0379,0.57206 h 5.2e-4 c -0.003,0.5821 0.049,0.85138 0.11516,0.59841 0.0659,-0.25296 0.0677,-0.72921 0.005,-1.05833 -0.0317,-0.16456 -0.0607,-0.1955 -0.0825,-0.11214 z m -2.60303,78.4913 c -2.68354,0 -4.93463,0.0893 -5.00213,0.19844 -0.0675,0.10914 2.12825,0.19844 4.87919,0.19844 2.75094,0 5.00199,-0.0893 5.00213,-0.19844 1.4e-4,-0.10914 -2.19564,-0.19844 -4.87919,-0.19844 z m -0.81078,3.56258 c -2.25482,-0.005 -4.09954,0.0842 -4.09954,0.19843 0,0.11419 1.84553,0.20774 4.1011,0.20774 2.25557,0 4.10029,-0.0893 4.09954,-0.19843 -7.6e-4,-0.1091 -1.84629,-0.20274 -4.1011,-0.20774 z"
         sodipodi:nodetypes="ssscssscssssssscssssscscccccccccsssccscccscccccccccscccccccccccssccccscccscccccccsccsccsssssssssssssssss" /><rect
         style="opacity:1;fill:#ff6600;fill-opacity:0.71764708;stroke:none;stroke-width:5.27743"
         id="rect24"
         width="57.544666"
         height="41.090591"
         x="-34.67054"
         y="-219.95505" /><rect
         style="opacity:1;fill:#ff6600;fill-opacity:0.71764708;stroke:none;stroke-width:4.00761"
         id="rect12"
         width="46.27718"
         height="29.464962"
         x="-28.43318"
         y="-214.54312" /><rect
         style="opacity:1;fill:#ff6600;fill-opacity:0.71764708;stroke:none;stroke-width:5.00722"
         id="rect13"
         width="58.349228"
         height="36.480431"
         x="-34.469334"
         y="-263.37878" /><rect
         style="opacity:1;fill:#ff6600;fill-opacity:0.71764708;stroke:none;stroke-width:2.7035"
         id="rect14"
         width="31.589207"
         height="19.643309"
         x="29.111483"
         y="-197.63387" /><rect
         style="opacity:1;fill:#ff6600;fill-opacity:0.71764708;stroke:none;stroke-width:2.29359"
         id="rect15"
         width="22.736181"
         height="19.643309"
         x="117.64175"
         y="-197.8343" /><rect
         style="opacity:1;fill:#ff6600;fill-opacity:0.71764708;stroke:none;stroke-width:4.47357"
         id="rect16"
         width="56.13623"
         height="30.266731"
         x="147.82251"
         y="-221.88733" /><rect
         style="opacity:1;fill:#ff6600;fill-opacity:0.71764708;stroke:none;stroke-width:3.45984"
         id="rect17"
         width="44.868744"
         height="22.649939"
         x="158.48637"
         y="-250.0775" /><rect
         style="opacity:1;fill:#ff6600;fill-opacity:0.71764708;stroke:none;stroke-width:4.64195"
         id="rect20"
         width="72.433846"
         height="25.255684"
         x="131.32368"
         y="-322.76575" /><rect
         style="fill:#ff6600;fill-opacity:0.71764708;stroke:none;stroke-width:3.76372"
         id="rect26-2"
         width="42.253075"
         height="28.462755"
         x="-34.630295"
         y="-296.9007" /></g><g
       id="g34"
       transform="translate(65.098393,1.2899782)"
       style="stroke:#ffffff;stroke-opacity:1" /></g></svg>
