<?xml version="1.0" encoding="UTF-8" standalone="no"?>
<!-- Created with Inkscape (http://www.inkscape.org/) -->

<svg
   width="1080"
   height="720"
   viewBox="0 0 285.75001 190.5"
   version="1.1"
   id="svg1"
   xml:space="preserve"
   sodipodi:docname="screensaver-mockup-stripped-down.svg"
   inkscape:version="1.4 (e7c3feb100, 2024-10-09)"
   inkscape:export-filename="screensaver-mockup.png"
   inkscape:export-xdpi="96"
   inkscape:export-ydpi="96"
   xmlns:inkscape="http://www.inkscape.org/namespaces/inkscape"
   xmlns:sodipodi="http://sodipodi.sourceforge.net/DTD/sodipodi-0.dtd"
   xmlns="http://www.w3.org/2000/svg"
   xmlns:svg="http://www.w3.org/2000/svg"><sodipodi:namedview
     id="namedview1"
     pagecolor="#ffffff"
     bordercolor="#000000"
     borderopacity="0.25"
     inkscape:showpageshadow="2"
     inkscape:pageopacity="0.0"
     inkscape:pagecheckerboard="0"
     inkscape:deskcolor="#d1d1d1"
     inkscape:document-units="mm"
     inkscape:zoom="5.8764695"
     inkscape:cx="691.91204"
     inkscape:cy="125.24527"
     inkscape:window-width="1536"
     inkscape:window-height="897"
     inkscape:window-x="0"
     inkscape:window-y="0"
     inkscape:window-maximized="1"
     inkscape:current-layer="g12" /><defs
     id="defs1"><clipPath
       clipPathUnits="userSpaceOnUse"
       id="clipPath27"><ellipse
         style="opacity:0.383255;fill:#ff00fc;fill-opacity:0.718918;stroke:none;stroke-width:12.8405"
         id="ellipse27"
         cx="-262.73123"
         cy="147.37291"
         rx="63.499996"
         ry="63.5" /></clipPath></defs><g
     inkscape:label="Layer 1"
     inkscape:groupmode="layer"
     id="layer1"
     transform="translate(64.293747,-53.181252)"><g
       id="g12"
       transform="matrix(0.99620687,0,0,1,-5.3008065,398.94167)"><rect
         style="opacity:1;fill:#ff6600;fill-opacity:0.71764708;stroke:none;stroke-width:2.29742"
         id="rect21"
         width="54.526588"
         height="8.2181196"
         x="148.82852"
         y="-187.53963" /><rect
         style="opacity:1;fill:#ff6600;fill-opacity:0.71764708;stroke:none;stroke-width:2.08405"
         id="rect18"
         width="44.868744"
         height="8.2181196"
         x="157.68155"
         y="-269.52036" /><rect
         style="opacity:1;fill:#ff6600;fill-opacity:0.71764708;stroke:none;stroke-width:2.05397"
         id="rect19"
         width="21.52895"
         height="16.636681"
         x="182.22858"
         y="-292.29858" /><rect
         style="opacity:1;fill:#ff6600;fill-opacity:0.71764708;stroke:none;stroke-width:1.99555"
         id="rect22"
         width="20.321718"
         height="16.636681"
         x="158.08397"
         y="-292.09814" /><rect
         style="fill:#ff6600;fill-opacity:0.71764708;stroke:none;stroke-width:0.871813"
         id="rect23-3"
         width="5.0301323"
         height="12.828284"
         x="149.29532"
         y="-240.84912" /><rect
         style="fill:#ff6600;fill-opacity:0.717647;stroke:none;stroke-width:0.962456"
         id="rect27"
         width="40.382061"
         height="5.765986"
         x="68.813286"
         y="-184.32451" /><rect
         style="opacity:1;fill:#ff6600;fill-opacity:0.71764708;stroke:none;stroke-width:1.2092"
         id="rect23"
         width="16.297619"
         height="7.6167951"
         x="106.37425"
         y="-322.16443"
         inkscape:export-filename="rect23.png"
         inkscape:export-xdpi="96"
         inkscape:export-ydpi="96" /><rect
         style="opacity:1;fill:#ff6600;fill-opacity:0.71764708;stroke:none;stroke-width:2.91895"
         id="rect26"
         width="47.484409"
         height="15.233588"
         x="-34.340561"
         y="-317.97113" /><rect
         style="opacity:1;fill:#ff6600;fill-opacity:0.71764708;stroke:none;stroke-width:1.31388"
         id="rect25"
         width="31.790411"
         height="4.6101656"
         x="-34.268127"
         y="-323.71179" /><path
         id="path5"
         style="fill:#3bffda;fill-opacity:1"
         d="m -33.942347,-322.33704 v 1.19062 1.19063 h 6.04219 6.042708 l 0.04513,-1.19063 0.04513,-1.19062 h -6.087838 z m 10.775619,1.65926 c 0.548949,0.0573 0.164813,0.10527 -0.853833,0.10645 -1.018646,10e-4 -1.467737,-0.046 -0.99804,-0.10438 0.469697,-0.0585 1.302925,-0.0596 1.851873,-0.002 z m -4.224034,0.006 c 0.329119,-0.0633 0.805248,-0.061 1.058213,0.005 0.252964,0.0662 -0.01653,0.11818 -0.598617,0.11524 -0.582083,-0.003 -0.788714,-0.0571 -0.459596,-0.12041 z m -1.309798,0.006 c 0.190996,-0.0764 0.419401,-0.0667 0.507319,0.0212 0.08792,0.0879 -0.06812,0.1505 -0.347031,0.13901 -0.308225,-0.0127 -0.371354,-0.0757 -0.160288,-0.1602 z m 76.835612,0.71004 c -0.145521,0 -0.333297,0.17859 -0.41706,0.39687 -0.131419,0.34247 -1.440588,0.39688 -9.552968,0.39688 -6.090952,0 -9.400979,-0.0932 -9.400979,-0.26458 0,-0.29257 -1.92426,-0.36878 -2.205648,-0.0873 -0.09733,0.0973 -0.0069,0.36522 0.201268,0.59531 0.337562,0.37316 1.901504,0.41023 14.477809,0.34727 8.788329,-0.044 14.197385,-0.16858 14.359537,-0.33073 0.170468,-0.17047 -1.077532,-0.25993 -3.620749,-0.25993 -3.341139,0 -3.860272,-0.0552 -3.729164,-0.39688 0.08376,-0.21828 0.03347,-0.39687 -0.112046,-0.39687 z m -7.200518,6.08541 c -8.643055,0 -13.229221,0.0912 -13.229221,0.26406 0,0.17286 4.586166,0.2651 13.229221,0.2651 8.643056,0 13.229221,-0.0922 13.229221,-0.2651 0,-0.17286 -4.586165,-0.26406 -13.229221,-0.26406 z m 8.649336,4.59438 c -0.05262,0.004 -0.126115,0.0345 -0.176368,0.0351 -0.658098,0.008 -7.711663,0.041 -15.674005,0.0734 l -14.476771,0.0589 -0.07522,2.84427 -0.07522,2.84427 -2.910086,2.1792 c -1.600729,1.19846 -3.030855,2.18074 -3.177752,2.18281 -0.146896,0.002 -0.423051,0.2534 -0.61366,0.55862 -0.190608,0.30521 -0.415907,0.48568 -0.500576,0.40101 -0.08467,-0.0847 -0.310471,0.0525 -0.502133,0.30489 -0.266402,0.35082 -0.351341,2.04791 -0.36,7.20576 -0.0062,3.71078 -0.08514,7.19336 -0.175331,7.73906 l -0.163919,0.99219 H 9.1658339 c -0.845496,0 -1.6141493,0.12432 -1.7081843,0.27647 -0.114559,0.18536 0.465705,0.25084 1.75902,0.19844 1.8041654,-0.0731 1.9421174,-0.12122 2.1133144,-0.73949 0.100736,-0.3638 0.195062,-3.88354 0.209567,-7.82175 l 0.02646,-7.16028 0.727262,-0.66818 c 0.400183,-0.36754 2.186188,-1.72216 3.968818,-3.01015 3.640667,-2.63046 3.26109,-1.93106 3.341671,-6.15983 l 0.03216,-1.66863 10.318616,-0.007 c 5.675313,-0.004 12.55365,-0.086 15.285474,-0.18294 1.98558,-0.0704 3.010203,-0.0786 3.688703,-0.0553 z m -22.340747,12.75317 c -0.102284,-0.002 -0.19567,0.0826 -0.337694,0.25373 -0.244617,0.29474 -0.957441,0.38965 -2.931354,0.38965 h -2.608703 l -1.864842,1.75906 -1.864322,1.75907 0.07366,3.31246 c 0.05714,2.56624 0.157751,3.3405 0.446628,3.43648 0.282025,0.0937 0.315632,0.002 0.138501,-0.37517 -0.12881,-0.27452 -0.272487,-1.74935 -0.319539,-3.27732 l -0.08559,-2.77813 1.535446,-1.51515 c 0.98167,-0.9685 1.845548,-1.57694 2.394467,-1.68672 1.15986,-0.23197 1.092514,0.15076 -0.238098,1.35289 l -1.096599,0.99115 0.148357,3.34502 c 0.0873,1.96303 0.04323,3.53415 -0.106859,3.80235 -0.188609,0.33703 -0.15857,0.45734 0.114121,0.45734 0.282966,0 0.410495,-0.66783 0.543631,-2.84376 0.111771,-1.82676 0.07912,-2.87565 -0.09182,-2.93263 -0.146345,-0.0488 -0.263543,-0.40621 -0.260404,-0.79427 0.0039,-0.48462 0.430344,-1.14715 1.36219,-2.11615 l 1.357003,-1.41077 1.938501,0.0811 c 2.139854,0.0893 2.859059,-0.2259 2.145476,-0.93948 -0.178602,-0.17861 -0.289877,-0.2684 -0.392162,-0.27079 z m 165.858837,8.31577 c -4.60477,0 -7.05528,4.70088 -3.95793,7.59282 1.54274,1.44042 4.01556,1.79139 5.96646,0.84698 4.51186,-2.18415 3.02315,-8.4398 -2.00853,-8.4398 z m -0.48346,0.54778 c 2.34701,-0.15772 4.68467,1.27312 4.68467,3.81785 0,2.78758 -3.14317,4.71686 -6.22427,3.82044 -2.29617,-0.66805 -3.47549,-3.64732 -2.19164,-5.5361 0.91151,-1.34101 2.32303,-2.00757 3.73124,-2.10219 z m 0.21631,1.42937 c -0.15282,0.009 -0.29259,0.13854 -0.55141,0.39739 -0.67993,0.67993 -0.68242,1.37989 -0.007,1.99109 0.70972,0.64228 0.66663,0.87929 -0.13227,0.72657 -0.3638,-0.0695 -0.66139,-0.0334 -0.66139,0.0806 0,0.18841 1.34868,1.68179 1.53441,1.69912 0.0433,0.004 0.37041,-0.30792 0.72726,-0.69298 0.86535,-0.93372 0.82064,-1.60803 -0.14317,-2.15646 -0.92891,-0.52858 -1.0287,-0.86725 -0.22928,-0.77825 0.80426,0.0895 0.85145,-0.38426 0.0934,-0.93638 -0.31154,-0.22689 -0.47744,-0.33929 -0.63026,-0.33072 z m -41.70138,7.81244 c -1.34811,0 -1.71759,0.17861 -1.27868,0.61753 0.097,0.097 0.7517,0.17622 1.45505,0.17622 0.96034,0 1.27919,-0.0988 1.27919,-0.39688 0,-0.30467 -0.33843,-0.39687 -1.45556,-0.39687 z m -128.858721,8.29045 c -0.0028,0.0119 -0.02015,0.10236 -0.02231,0.11059 -0.06549,0.25003 -1.525088,0.34392 -5.982016,0.38447 -5.226019,0.0475 -5.519784,0.0714 -2.587954,0.21084 1.81901,0.0865 4.525362,0.18134 6.014178,0.21084 1.551025,0.0307 2.173998,0.0205 2.482651,-0.0997 0.05819,-0.25959 0.142988,-0.51035 0.20438,-0.76894 z m 139.045581,4.14548 v 0.88212 c 0,0.48507 0.0799,0.96187 0.17792,1.05988 0.098,0.098 8.34334,0.14745 18.32265,0.11007 l 18.14421,-0.0677 0.082,-0.99219 0.082,-0.99219 h -18.40461 z m 34.01428,78.84584 c -2.96738,0 -4.94315,0.10367 -5.0426,0.26458 -0.10683,0.17285 1.58478,0.26458 4.8792,0.26458 3.18541,0 5.04259,-0.0974 5.04259,-0.26458 0,-0.16683 -1.80279,-0.26458 -4.87919,-0.26458 z m -0.80922,3.4401 c -2.55764,0 -4.1011,0.0996 -4.1011,0.26458 0,0.16501 1.54346,0.26458 4.1011,0.26458 2.55764,0 4.10109,-0.0996 4.10109,-0.26458 0,-0.16501 -1.54345,-0.26458 -4.10109,-0.26458 z"
         sodipodi:nodetypes="scccccccssccsssscsssssssscsssssssssscscscscccsssscccscccsccssssssssssscssssccccsccsccccccsssssssssssssssssscccsccccsscssccsccssscsscccccsssssssssssss"
         inkscape:export-filename="screensaver-mockup.png"
         inkscape:export-xdpi="96"
         inkscape:export-ydpi="96" /><path
         id="path6"
         style="fill:#16a98d;fill-opacity:1"
         d="m -27.939581,-321.60847 c -3.880556,0 -6.085244,0.0959 -6.085244,0.26458 0,0.16868 2.204688,0.26458 6.085244,0.26458 3.880556,0 6.085764,-0.0959 6.085764,-0.26458 0,-0.16869 -2.205208,-0.26458 -6.085764,-0.26458 z m -4.819538,0.8634 c -0.768862,0.0536 -0.207659,0.098 1.24755,0.0987 1.455212,7e-4 2.084329,-0.0434 1.397983,-0.0977 -0.686346,-0.054 -1.87667,-0.0546 -2.645533,-10e-4 z m 2.504438,0.52761 c -1.564349,0.0467 -0.284491,0.0847 2.844207,0.0847 3.128698,0 4.408555,-0.038 2.844207,-0.0847 -1.564349,-0.0468 -4.124065,-0.0468 -5.688414,0 z m 78.235151,0.1974 c -0.154107,0 -0.206655,0.11905 -0.116715,0.26458 0.08994,0.14552 0.215946,0.26459 0.280116,0.26459 0.06418,0 0.116714,-0.11907 0.116714,-0.26459 0,-0.14553 -0.126006,-0.26458 -0.280115,-0.26458 z m -19.535964,0.27363 c -0.02105,-9.4e-4 0.0084,0.10412 0.07366,0.31471 0.0777,0.25081 -0.02416,0.54847 -0.226167,0.66146 -0.202012,0.11303 4.078083,0.20567 9.51095,0.20567 5.432867,0 9.822683,-0.0893 9.755273,-0.19844 -0.06741,-0.10914 -4.276883,-0.19844 -9.354293,-0.19844 -8.50225,0 -9.255438,-0.0366 -9.529624,-0.46302 -0.137475,-0.21381 -0.20875,-0.321 -0.229799,-0.32194 z m -1.485648,0.0522 c -0.05115,-0.071 -0.184151,-0.0585 -0.380749,0.063 -0.157572,0.0974 -0.210035,0.30065 -0.116715,0.45165 0.109865,0.17773 0.245871,0.15047 0.386456,-0.077 0.131206,-0.21227 0.162156,-0.36668 0.111008,-0.4377 z m 25.660632,0.67645 c -1.567853,0.008 -3.338565,0.063 -4.094351,0.15813 -0.363802,0.0458 1.028114,0.10119 3.093198,0.12299 2.065083,0.0218 3.810051,-0.0495 3.877521,-0.15865 0.05658,-0.0915 -1.308515,-0.13055 -2.876368,-0.12247 z m 0.738155,5.11552 c -0.472873,0.009 -1.167031,0.0824 -2.053659,0.21962 v -5.2e-4 c -1.210678,0.18736 -1.149276,0.2027 0.727262,0.1757 1.127779,-0.0162 2.05054,-0.11875 2.050547,-0.22789 8e-6,-0.1204 -0.251278,-0.17588 -0.72415,-0.16691 z m -19.050949,0.16846 c -3.771241,-0.002 -6.683428,0.0408 -6.683342,0.13074 1.04e-4,0.10915 4.792353,0.17301 10.649567,0.14211 5.857213,-0.0309 9.399206,-0.0899 7.871238,-0.13074 -3.436142,-0.0921 -8.066221,-0.13974 -11.837463,-0.14211 z m 14.025474,4.37823 v 5.2e-4 c -0.257431,0.0671 -0.110798,0.12677 0.325764,0.13177 0.436567,0.005 0.647027,-0.05 0.467896,-0.12247 -0.179132,-0.0727 -0.536229,-0.0767 -0.79366,-0.01 z m -22.741208,0.5147 c -3.029302,0.0425 -0.626527,0.0774 5.339827,0.0775 5.966354,1e-4 8.444947,-0.035 5.507895,-0.0775 -2.937052,-0.0425 -7.818419,-0.0425 -10.847722,0 z m -6.747146,5.38768 c -0.12364,0.0764 -0.156346,0.25004 -0.07262,0.38551 0.213952,0.34617 0.297234,0.30712 0.297234,-0.13901 0,-0.2119 -0.10097,-0.3229 -0.224611,-0.2465 z m -1.206571,0.99843 c -0.06982,0.0132 -0.131939,0.0524 -0.170144,0.1142 -0.07641,0.12364 0.03452,0.2248 0.246398,0.2248 0.446132,0 0.484677,-0.0837 0.138501,-0.29766 -0.06773,-0.0419 -0.14493,-0.0545 -0.214755,-0.0413 z m -0.729337,0.7798 c -0.205479,0 -0.312529,0.0994 -0.237579,0.22065 0.07495,0.12129 0.181999,0.22066 0.237579,0.22066 0.05558,0 0.162629,-0.0994 0.237579,-0.22066 0.07495,-0.12128 -0.0321,-0.22065 -0.237579,-0.22065 z m -2.910605,2.11666 c -0.20548,0 -0.31201,0.0994 -0.23706,0.22066 0.07495,0.12128 0.18148,0.22066 0.23706,0.22066 0.05558,0 0.162629,-0.0994 0.237579,-0.22066 0.07495,-0.12129 -0.0321,-0.22066 -0.237579,-0.22066 z m -1.122536,0.54312 c -0.06983,0.0131 -0.131939,0.0524 -0.170144,0.11421 -0.07641,0.12364 0.03452,0.22479 0.246398,0.22479 0.446132,0 0.484677,-0.0837 0.138501,-0.29766 -0.06773,-0.0419 -0.144931,-0.0545 -0.214755,-0.0413 z m -0.905187,1.05007 c -0.85287,0.12912 -0.881733,0.43359 -0.750605,7.88427 l 0.132277,7.50032 0.07055,-7.26002 c 0.06004,-6.15785 0.133726,-7.33011 0.486052,-7.71943 0.309403,-0.34187 0.325099,-0.44504 0.06173,-0.40514 z m 15.209739,1.97817 c -0.04186,-0.0506 -0.101394,-0.045 -0.1717,0.0253 -0.13076,0.13076 -0.157428,0.36735 -0.05965,0.52555 0.24878,0.40253 0.297752,0.36348 0.297752,-0.23771 0,-0.15537 -0.02454,-0.26251 -0.0664,-0.31316 z m -5.102766,0.0806 c -0.732696,0.0282 -0.791958,0.0629 -0.27389,0.15916 1.051544,0.19543 1.103669,0.65526 0.187781,1.65571 l -0.849165,0.92759 0.935274,-0.85679 c 0.51452,-0.47126 0.935793,-1.09634 0.935793,-1.38906 0,-0.43968 -0.162963,-0.52641 -0.935793,-0.49661 z m 2.901268,0.0129 c -0.873125,-0.0345 -1.587199,0.0297 -1.586801,0.14262 3.98e-4,0.11298 0.714593,0.24211 1.58732,0.28681 0.872727,0.0448 1.586801,-0.0194 1.586801,-0.14263 0,-0.12325 -0.714195,-0.2523 -1.58732,-0.2868 z m -4.233371,0.48059 c -0.01366,-0.0137 -0.121129,0.0659 -0.330951,0.23047 -0.254661,0.19972 -0.462709,0.40802 -0.462709,0.46302 0,0.21776 0.217181,0.078 0.562824,-0.36276 0.164552,-0.20983 0.244493,-0.31707 0.230836,-0.33073 z m 0.08767,4.43693 c -0.02406,-0.0194 -0.05625,0.002 -0.09648,0.0656 -0.136242,0.21546 -0.249385,0.97744 -0.251585,1.69292 -0.0053,1.70299 0.148142,1.47832 0.343401,-0.50229 0.07602,-0.77104 0.07682,-1.19814 0.0047,-1.25626 z m 171.42846,3.05357 c -0.25466,0.0665 -0.0466,0.12092 0.46271,0.12092 0.50932,0 0.71789,-0.0543 0.46323,-0.12092 -0.25466,-0.0665 -0.67128,-0.0665 -0.92594,0 z m -2.87533,0.7524 c -0.0749,0.0242 -0.22443,0.19944 -0.5234,0.54984 -0.30882,0.36198 -0.34056,0.46509 -0.0825,0.26665 0.23167,-0.17808 0.4794,-0.26528 0.5509,-0.19378 0.0715,0.0715 0.1302,-0.0484 0.1302,-0.26666 0,-0.25354 -3.8e-4,-0.38031 -0.0752,-0.35605 z m 6.86231,0.0672 c -0.088,0.001 -0.15863,0.0626 -0.23395,0.18449 -0.12021,0.19452 -0.0853,0.24905 0.0903,0.14056 0.15795,-0.0976 0.36197,-0.0564 0.45337,0.0915 v 5.1e-4 c 0.0914,0.14789 0.21851,0.26872 0.28271,0.26872 0.21794,0 0.11818,-0.19878 -0.25626,-0.50953 -0.14293,-0.11886 -0.24818,-0.17747 -0.33613,-0.17622 z m -178.367543,0.47026 c -0.219142,-0.0924 -0.380121,0.18171 -0.219424,0.60048 0.08617,0.22456 0.279422,0.40876 0.42951,0.40876 0.33605,0 0.342585,-0.27436 0.01867,-0.78652 -0.07621,-0.12051 -0.155714,-0.19192 -0.228761,-0.22272 z m 2.89193,0.62942 c -0.130273,-0.0805 -0.30509,0.0311 -0.38853,0.24856 -0.09215,0.24015 10e-4,0.39584 0.237061,0.39584 0.427934,0 0.52504,-0.41352 0.151469,-0.6444 z m 171.760973,0.74466 c -0.0278,0.0278 -0.0466,0.1208 -0.0529,0.27491 -0.0115,0.27897 0.0511,0.43517 0.13902,0.34727 0.0879,-0.0879 0.0971,-0.31595 0.0207,-0.50695 -0.0422,-0.10553 -0.079,-0.14305 -0.10686,-0.11523 z m 1.18737,1.15703 c -0.0286,-0.009 -0.01,0.0297 0.0628,0.11731 0.145,0.17514 0.27722,0.56261 0.29412,0.86093 0.0277,0.48896 0.0432,0.49361 0.1577,0.048 0.0699,-0.27186 -0.0624,-0.65932 -0.29413,-0.86092 -0.11586,-0.1008 -0.19187,-0.15665 -0.22046,-0.16537 z m -0.43625,0.5948 c -0.14552,0 -0.33805,0.11906 -0.42795,0.26458 -0.0899,0.14553 -0.0449,0.26458 0.10063,0.26458 0.14551,0 0.33856,-0.11905 0.42846,-0.26458 0.0899,-0.14552 0.0444,-0.26458 -0.10114,-0.26458 z m -182.499757,0.50281 c -0.02388,0.059 -0.03984,0.20495 -0.04254,0.42323 -0.0054,0.43656 0.04943,0.6468 0.121903,0.46767 0.07247,-0.17913 0.07689,-0.53632 0.0099,-0.79375 -0.03354,-0.12871 -0.06534,-0.15623 -0.08922,-0.0971 z m -2.6937755,1.28312 c -0.3499354,-0.001 -0.5961269,0.0223 -0.6541209,0.0713 -0.115987,0.0981 0.6582425,0.18255 1.7201151,0.18655 l 1.9307203,0.008 -1.7201151,-0.18655 c -0.472943,-0.0512 -0.926664,-0.0776 -1.2765994,-0.0791 z M 188.37475,-281.562 c -0.0537,0.0344 -0.0554,0.10947 0.0213,0.23358 0.0809,0.1309 0.21495,0.1706 0.29775,0.0879 0.2402,-0.24021 1.12446,0.68639 0.93994,0.98495 -0.0993,0.1606 -0.0353,0.18878 0.15822,0.0693 0.24091,-0.14889 0.18178,-0.3542 -0.22825,-0.79065 -0.39694,-0.42252 -1.0277,-0.688 -1.18893,-0.58498 z m 8.52588,0.23358 c 0.006,-0.0344 -0.0859,0.0277 -0.27441,0.17363 -0.25466,0.19717 -0.46323,0.27748 -0.46323,0.17828 0,-0.0992 -0.1208,-0.1053 -0.2687,-0.0139 -0.14787,0.0914 -0.20042,0.27691 -0.11672,0.41238 0.20862,0.33757 0.23554,0.3259 0.80767,-0.34468 0.20516,-0.24046 0.30931,-0.37124 0.31539,-0.40566 z m -3.43297,1.87534 c -0.21107,0.0845 -0.14845,0.14698 0.15977,0.15968 0.27887,0.0115 0.43545,-0.0511 0.34755,-0.13901 -0.0879,-0.0879 -0.31633,-0.0971 -0.50732,-0.0207 z m -42.34979,1.0175 c -1.40357,-0.0398 -1.79291,0.12629 -1.34508,0.57413 0.097,0.097 0.78172,0.15454 1.52145,0.12764 l 1.34507,-0.0491 -1.45556,-0.13436 -1.45505,-0.13488 1.45505,-0.17001 1.45556,-0.17053 z m -132.943737,9.02168 c -0.842058,0.0526 -0.220903,0.0955 1.379827,0.0961 1.600724,6e-4 2.289449,-0.0423 1.530778,-0.0956 -0.758671,-0.0532 -2.068547,-0.0532 -2.910605,-5.1e-4 z m 143.168457,3.72534 c -0.0218,0.0834 -0.0364,0.28102 -0.0379,0.57206 h 5.2e-4 c -0.003,0.5821 0.049,0.85138 0.11516,0.59841 0.0659,-0.25296 0.0677,-0.72921 0.005,-1.05833 -0.0317,-0.16456 -0.0607,-0.1955 -0.0825,-0.11214 z m 36.51251,0 c -0.0218,0.0834 -0.0364,0.28102 -0.0379,0.57206 h 5.2e-4 c -0.003,0.5821 0.049,0.85138 0.11516,0.59841 0.0659,-0.25296 0.0677,-0.72921 0.005,-1.05833 -0.0317,-0.16456 -0.0607,-0.1955 -0.0825,-0.11214 z m -2.60303,78.4913 c -2.68354,0 -4.93463,0.0893 -5.00213,0.19844 -0.0675,0.10914 2.12825,0.19844 4.87919,0.19844 2.75094,0 5.00199,-0.0893 5.00213,-0.19844 1.4e-4,-0.10914 -2.19564,-0.19844 -4.87919,-0.19844 z m -0.81078,3.56258 c -2.25482,-0.005 -4.09954,0.0842 -4.09954,0.19843 0,0.11419 1.84553,0.20774 4.1011,0.20774 2.25557,0 4.10029,-0.0893 4.09954,-0.19843 -7.6e-4,-0.1091 -1.84629,-0.20274 -4.1011,-0.20774 z"
         sodipodi:nodetypes="ssscssscsssssssssscssscssccsscscsscsscssssccsscccsccccsccscsscccccscccssccssccsssscsscscsscccssscccssscsccsssccssccsssccssscssssscscccccccccsscscsscsssssccscccsccccccccsccssscscsssccscccccccccccssccccscccscccccccscsccsccsccsssssssssssssssss" /><rect
         style="opacity:1;fill:#ff6600;fill-opacity:0.71764708;stroke:none;stroke-width:5.27743"
         id="rect24"
         width="57.544666"
         height="41.090591"
         x="-34.67054"
         y="-219.95505" /><rect
         style="opacity:1;fill:#ff6600;fill-opacity:0.71764708;stroke:none;stroke-width:4.00761"
         id="rect12"
         width="46.27718"
         height="29.464962"
         x="-28.43318"
         y="-214.54312" /><rect
         style="opacity:1;fill:#ff6600;fill-opacity:0.71764708;stroke:none;stroke-width:5.00722"
         id="rect13"
         width="58.349228"
         height="36.480431"
         x="-34.469334"
         y="-263.37878" /><rect
         style="opacity:1;fill:#ff6600;fill-opacity:0.71764708;stroke:none;stroke-width:2.7035"
         id="rect14"
         width="31.589207"
         height="19.643309"
         x="29.111483"
         y="-197.63387" /><rect
         style="opacity:1;fill:#ff6600;fill-opacity:0.71764708;stroke:none;stroke-width:2.29359"
         id="rect15"
         width="22.736181"
         height="19.643309"
         x="117.64175"
         y="-197.8343" /><rect
         style="opacity:1;fill:#ff6600;fill-opacity:0.71764708;stroke:none;stroke-width:4.47357"
         id="rect16"
         width="56.13623"
         height="30.266731"
         x="147.82251"
         y="-221.88733" /><rect
         style="opacity:1;fill:#ff6600;fill-opacity:0.71764708;stroke:none;stroke-width:3.45984"
         id="rect17"
         width="44.868744"
         height="22.649939"
         x="158.48637"
         y="-250.0775" /><rect
         style="opacity:1;fill:#ff6600;fill-opacity:0.71764708;stroke:none;stroke-width:4.64195"
         id="rect20"
         width="72.433846"
         height="25.255684"
         x="131.32368"
         y="-322.76575" /><rect
         style="fill:#ff6600;fill-opacity:0.71764708;stroke:none;stroke-width:3.76372"
         id="rect26-2"
         width="42.253075"
         height="28.462755"
         x="-34.630295"
         y="-296.9007" /></g><g
       id="g34"
       transform="translate(65.098393,1.2899782)"
       style="stroke:#ffffff;stroke-opacity:1" /></g></svg>
