<?xml version="1.0" encoding="UTF-8" standalone="no"?>
<!-- Created with Inkscape (http://www.inkscape.org/) -->

<svg
   width="1080"
   height="720"
   viewBox="0 0 285.75001 190.5"
   version="1.1"
   id="svg1"
   xml:space="preserve"
   sodipodi:docname="screensaver-mockup-stripped-down.svg"
   inkscape:version="1.4 (e7c3feb100, 2024-10-09)"
   inkscape:export-filename="screensaver-mockup.png"
   inkscape:export-xdpi="96"
   inkscape:export-ydpi="96"
   xmlns:inkscape="http://www.inkscape.org/namespaces/inkscape"
   xmlns:sodipodi="http://sodipodi.sourceforge.net/DTD/sodipodi-0.dtd"
   xmlns="http://www.w3.org/2000/svg"
   xmlns:svg="http://www.w3.org/2000/svg"><sodipodi:namedview
     id="namedview1"
     pagecolor="#ffffff"
     bordercolor="#000000"
     borderopacity="0.25"
     inkscape:showpageshadow="2"
     inkscape:pageopacity="0.0"
     inkscape:pagecheckerboard="0"
     inkscape:deskcolor="#d1d1d1"
     inkscape:document-units="mm"
     inkscape:zoom="0.44"
     inkscape:cx="501.13636"
     inkscape:cy="340.90909"
     inkscape:window-width="1536"
     inkscape:window-height="897"
     inkscape:window-x="0"
     inkscape:window-y="0"
     inkscape:window-maximized="1"
     inkscape:current-layer="g12" /><defs
     id="defs1"><clipPath
       clipPathUnits="userSpaceOnUse"
       id="clipPath27"><ellipse
         style="opacity:0.383255;fill:#ff00fc;fill-opacity:0.718918;stroke:none;stroke-width:12.8405"
         id="ellipse27"
         cx="-262.73123"
         cy="147.37291"
         rx="63.499996"
         ry="63.5" /></clipPath></defs><g
     inkscape:label="Layer 1"
     inkscape:groupmode="layer"
     id="layer1"
     transform="translate(64.293747,-53.181252)"><g
       id="g12"
       transform="matrix(0.99620687,0,0,1,-5.3008065,398.94167)"><rect
         style="opacity:1;fill:#ff6600;fill-opacity:0.71764708;stroke:none;stroke-width:2.29742"
         id="rect21"
         width="54.526588"
         height="8.2181196"
         x="148.82852"
         y="-187.53963" /><rect
         style="opacity:1;fill:#ff6600;fill-opacity:0.71764708;stroke:none;stroke-width:2.08405"
         id="rect18"
         width="44.868744"
         height="8.2181196"
         x="157.68155"
         y="-269.52036" /><rect
         style="opacity:1;fill:#ff6600;fill-opacity:0.71764708;stroke:none;stroke-width:2.05397"
         id="rect19"
         width="21.52895"
         height="16.636681"
         x="182.22858"
         y="-292.29858" /><rect
         style="opacity:1;fill:#ff6600;fill-opacity:0.71764708;stroke:none;stroke-width:1.99555"
         id="rect22"
         width="20.321718"
         height="16.636681"
         x="158.08397"
         y="-292.09814" /><rect
         style="fill:#ff6600;fill-opacity:0.71764708;stroke:none;stroke-width:0.871813"
         id="rect23-3"
         width="5.0301323"
         height="12.828284"
         x="149.29532"
         y="-240.84912" /><rect
         style="fill:#ff6600;fill-opacity:0.717647;stroke:none;stroke-width:0.962456"
         id="rect27"
         width="40.382061"
         height="5.765986"
         x="68.813286"
         y="-184.32451" /><rect
         style="opacity:1;fill:#ff6600;fill-opacity:0.71764708;stroke:none;stroke-width:1.2092"
         id="rect23"
         width="16.297619"
         height="7.6167951"
         x="106.37425"
         y="-322.16443"
         inkscape:export-filename="rect23.png"
         inkscape:export-xdpi="96"
         inkscape:export-ydpi="96" /><rect
         style="opacity:1;fill:#ff6600;fill-opacity:0.71764708;stroke:none;stroke-width:2.91895"
         id="rect26"
         width="47.484409"
         height="15.233588"
         x="-34.340561"
         y="-317.97113" /><rect
         style="opacity:1;fill:#ff6600;fill-opacity:0.71764708;stroke:none;stroke-width:1.31388"
         id="rect25"
         width="31.790411"
         height="4.6101656"
         x="-34.268127"
         y="-323.71179" /><path
         id="path5"
         style="fill:#3bffda;fill-opacity:1"
         d="m -33.942347,-322.33704 v 1.19062 1.19063 h 6.04219 6.042708 l 0.04513,-1.19063 0.04513,-1.19062 h -6.087838 z m 10.775619,1.65926 c 0.548949,0.0573 0.164813,0.10527 -0.853833,0.10645 -1.018646,10e-4 -1.467737,-0.046 -0.99804,-0.10438 0.469697,-0.0585 1.302925,-0.0596 1.851873,-0.002 z m -4.224034,0.006 c 0.329119,-0.0633 0.805248,-0.061 1.058213,0.005 0.252964,0.0662 -0.01653,0.11818 -0.598617,0.11524 -0.582083,-0.003 -0.788714,-0.0571 -0.459596,-0.12041 z m -1.309798,0.006 c 0.190996,-0.0764 0.419401,-0.0667 0.507319,0.0212 0.08792,0.0879 -0.06812,0.1505 -0.347031,0.13901 -0.308225,-0.0127 -0.371354,-0.0757 -0.160288,-0.1602 z m 224.03513,133.53013 c -2.96738,0 -4.94315,0.10367 -5.0426,0.26458 -0.10683,0.17285 1.58478,0.26458 4.8792,0.26458 3.18541,0 5.04259,-0.0974 5.04259,-0.26458 0,-0.16683 -1.80279,-0.26458 -4.87919,-0.26458 z m -0.80922,3.4401 c -2.55764,0 -4.1011,0.0996 -4.1011,0.26458 0,0.16501 1.54346,0.26458 4.1011,0.26458 2.55764,0 4.10109,-0.0996 4.10109,-0.26458 0,-0.16501 -1.54345,-0.26458 -4.10109,-0.26458 z"
         sodipodi:nodetypes="scccccccssccsssscsssssssssssssssss"
         inkscape:export-filename="screensaver-mockup.png"
         inkscape:export-xdpi="96"
         inkscape:export-ydpi="96" /><path
         id="path6"
         style="fill:#16a98d;fill-opacity:1"
         d="m -27.939581,-321.60847 c -3.880556,0 -6.085244,0.0959 -6.085244,0.26458 0,0.16868 2.204688,0.26458 6.085244,0.26458 3.880556,0 6.085764,-0.0959 6.085764,-0.26458 0,-0.16869 -2.205208,-0.26458 -6.085764,-0.26458 z m -4.819538,0.8634 c -0.768862,0.0536 -0.207659,0.098 1.24755,0.0987 1.455212,7e-4 2.084329,-0.0434 1.397983,-0.0977 -0.686346,-0.054 -1.87667,-0.0546 -2.645533,-10e-4 z m 2.504438,0.52761 c -1.564349,0.0467 -0.284491,0.0847 2.844207,0.0847 3.128698,0 4.408555,-0.038 2.844207,-0.0847 -1.564349,-0.0468 -4.124065,-0.0468 -5.688414,0 z m 225.506751,133.0202 c -2.68354,0 -4.93463,0.0893 -5.00213,0.19844 -0.0675,0.10914 2.12825,0.19844 4.87919,0.19844 2.75094,0 5.00199,-0.0893 5.00213,-0.19844 1.4e-4,-0.10914 -2.19564,-0.19844 -4.87919,-0.19844 z m -0.81078,3.56258 c -2.25482,-0.005 -4.09954,0.0842 -4.09954,0.19843 0,0.11419 1.84553,0.20774 4.1011,0.20774 2.25557,0 4.10029,-0.0893 4.09954,-0.19843 -7.6e-4,-0.1091 -1.84629,-0.20274 -4.1011,-0.20774 z"
         sodipodi:nodetypes="ssscssscsssssssssssssss" /><rect
         style="opacity:1;fill:#ff6600;fill-opacity:0.71764708;stroke:none;stroke-width:5.27743"
         id="rect24"
         width="57.544666"
         height="41.090591"
         x="-34.67054"
         y="-219.95505" /><rect
         style="opacity:1;fill:#ff6600;fill-opacity:0.71764708;stroke:none;stroke-width:4.00761"
         id="rect12"
         width="46.27718"
         height="29.464962"
         x="-28.43318"
         y="-214.54312" /><rect
         style="opacity:1;fill:#ff6600;fill-opacity:0.71764708;stroke:none;stroke-width:5.00722"
         id="rect13"
         width="58.349228"
         height="36.480431"
         x="-34.469334"
         y="-263.37878" /><rect
         style="opacity:1;fill:#ff6600;fill-opacity:0.71764708;stroke:none;stroke-width:2.7035"
         id="rect14"
         width="31.589207"
         height="19.643309"
         x="29.111483"
         y="-197.63387" /><rect
         style="opacity:1;fill:#ff6600;fill-opacity:0.71764708;stroke:none;stroke-width:2.29359"
         id="rect15"
         width="22.736181"
         height="19.643309"
         x="117.64175"
         y="-197.8343" /><rect
         style="opacity:1;fill:#ff6600;fill-opacity:0.71764708;stroke:none;stroke-width:4.47357"
         id="rect16"
         width="56.13623"
         height="30.266731"
         x="147.82251"
         y="-221.88733" /><rect
         style="opacity:1;fill:#ff6600;fill-opacity:0.71764708;stroke:none;stroke-width:3.45984"
         id="rect17"
         width="44.868744"
         height="22.649939"
         x="158.48637"
         y="-250.0775" /><rect
         style="opacity:1;fill:#ff6600;fill-opacity:0.71764708;stroke:none;stroke-width:4.64195"
         id="rect20"
         width="72.433846"
         height="25.255684"
         x="131.32368"
         y="-322.76575" /><rect
         style="fill:#ff6600;fill-opacity:0.71764708;stroke:none;stroke-width:3.76372"
         id="rect26-2"
         width="42.253075"
         height="28.462755"
         x="-34.630295"
         y="-296.9007" /></g><g
       id="g34"
       transform="translate(65.098393,1.2899782)"
       style="stroke:#ffffff;stroke-opacity:1" /></g></svg>
