<?xml version="1.0" encoding="UTF-8" standalone="no"?>
<!-- Created with Inkscape (http://www.inkscape.org/) -->

<svg
   width="1080"
   height="720"
   viewBox="0 0 285.75001 190.5"
   version="1.1"
   id="svg1"
   xml:space="preserve"
   sodipodi:docname="screensaver-mockup-stripped-down.svg"
   inkscape:version="1.4 (e7c3feb100, 2024-10-09)"
   inkscape:export-filename="screensaver-mockup.png"
   inkscape:export-xdpi="96"
   inkscape:export-ydpi="96"
   xmlns:inkscape="http://www.inkscape.org/namespaces/inkscape"
   xmlns:sodipodi="http://sodipodi.sourceforge.net/DTD/sodipodi-0.dtd"
   xmlns="http://www.w3.org/2000/svg"
   xmlns:svg="http://www.w3.org/2000/svg"><sodipodi:namedview
     id="namedview1"
     pagecolor="#ffffff"
     bordercolor="#000000"
     borderopacity="0.25"
     inkscape:showpageshadow="2"
     inkscape:pageopacity="0.0"
     inkscape:pagecheckerboard="0"
     inkscape:deskcolor="#d1d1d1"
     inkscape:document-units="mm"
     inkscape:zoom="2.62"
     inkscape:cx="832.82443"
     inkscape:cy="246.94656"
     inkscape:window-width="1536"
     inkscape:window-height="897"
     inkscape:window-x="0"
     inkscape:window-y="0"
     inkscape:window-maximized="1"
     inkscape:current-layer="g12" /><defs
     id="defs1"><clipPath
       clipPathUnits="userSpaceOnUse"
       id="clipPath27"><ellipse
         style="opacity:0.383255;fill:#ff00fc;fill-opacity:0.718918;stroke:none;stroke-width:12.8405"
         id="ellipse27"
         cx="-262.73123"
         cy="147.37291"
         rx="63.499996"
         ry="63.5" /></clipPath></defs><g
     inkscape:label="Layer 1"
     inkscape:groupmode="layer"
     id="layer1"
     transform="translate(64.293747,-53.181252)"><g
       id="g12"
       transform="matrix(0.99620687,0,0,1,-5.3008065,398.94167)"><rect
         style="opacity:1;fill:#ff6600;fill-opacity:0.71764708;stroke:none;stroke-width:2.08405"
         id="rect18"
         width="44.868744"
         height="8.2181196"
         x="157.68155"
         y="-269.52036" /><rect
         style="opacity:1;fill:#ff6600;fill-opacity:0.71764708;stroke:none;stroke-width:2.05397"
         id="rect19"
         width="21.52895"
         height="16.636681"
         x="182.22858"
         y="-292.29858" /><rect
         style="opacity:1;fill:#ff6600;fill-opacity:0.71764708;stroke:none;stroke-width:1.99555"
         id="rect22"
         width="20.321718"
         height="16.636681"
         x="158.08397"
         y="-292.09814" /><rect
         style="fill:#ff6600;fill-opacity:0.71764708;stroke:none;stroke-width:0.871813"
         id="rect23-3"
         width="5.0301323"
         height="12.828284"
         x="149.29532"
         y="-240.84912" /><rect
         style="fill:#ff6600;fill-opacity:0.717647;stroke:none;stroke-width:0.962456"
         id="rect27"
         width="40.382061"
         height="5.765986"
         x="68.813286"
         y="-184.32451" /><rect
         style="opacity:1;fill:#ff6600;fill-opacity:0.71764708;stroke:none;stroke-width:1.2092"
         id="rect23"
         width="16.297619"
         height="7.6167951"
         x="106.37425"
         y="-322.16443"
         inkscape:export-filename="rect23.png"
         inkscape:export-xdpi="96"
         inkscape:export-ydpi="96" /><rect
         style="opacity:1;fill:#ff6600;fill-opacity:0.71764708;stroke:none;stroke-width:2.91895"
         id="rect26"
         width="47.484409"
         height="15.233588"
         x="-34.340561"
         y="-317.97113" /><rect
         style="opacity:1;fill:#ff6600;fill-opacity:0.71764708;stroke:none;stroke-width:2.29742"
         id="rect21"
         width="54.526588"
         height="8.2181196"
         x="148.82852"
         y="-187.53963" /><rect
         style="opacity:1;fill:#ff6600;fill-opacity:0.71764708;stroke:none;stroke-width:1.31388"
         id="rect25"
         width="31.790411"
         height="4.6101656"
         x="-34.268127"
         y="-323.71179" /><path
         id="path5"
         style="fill:#3bffda;fill-opacity:1"
         d="m 137.02599,-322.56028 c -2.50627,-0.0235 -5.16493,0.0718 -5.53746,0.3085 -0.25657,0.16301 -0.33095,2.87975 -0.33095,12.11658 v 11.83648 c 0.13328,0.14254 0.26591,0.28569 0.39787,0.42944 3.36017,0.20716 10.16708,0.27853 23.14997,0.23874 8.07641,-0.0247 22.32563,-0.0576 31.66495,-0.0729 15.10671,-0.0247 17.027,-0.0742 17.39931,-0.44649 0.37121,-0.37121 0.4107,-1.75347 0.34962,-12.23698 l -0.069,-11.8184 -4.98034,-0.0723 c -3.3428,-0.0484 -4.92501,0.0169 -4.8128,0.19843 0.10355,0.16755 1.9242,0.27079 4.78427,0.27079 h 4.61775 l -0.069,11.70781 -0.069,11.70781 -35.91699,0.063 -35.91752,0.0636 v -11.74295 c 0,-10.14909 0.0536,-11.76335 0.39371,-11.89385 0.21642,-0.0831 2.42792,-0.14404 4.91447,-0.13591 2.48656,0.008 4.58028,-0.045 4.65303,-0.11782 0.23794,-0.23794 -2.11563,-0.38006 -4.62191,-0.40359 z m -170.968337,0.22324 v 1.19062 1.19063 h 6.04219 6.042708 l 0.04513,-1.19063 0.04513,-1.19062 h -6.087838 z m 160.337447,0.26458 c -0.16853,-0.26079 -0.25129,2.32481 -0.24173,7.54063 0.009,4.67416 0.10783,7.71994 0.24173,7.40833 0.12507,-0.29104 0.23373,-3.68432 0.24173,-7.54062 0.009,-4.10414 -0.0916,-7.17603 -0.24173,-7.40834 z m 47.78663,1.05834 -16.02208,0.0315 c -8.81212,0.0172 -16.37917,0.12197 -16.81573,0.23306 -0.43656,0.11108 6.74846,0.21584 15.96657,0.23306 15.87436,0.0297 16.79741,0.0575 17.46259,0.52296 0.38626,0.2703 0.8809,0.55877 1.09919,0.64079 0.74122,0.27852 24.3415,0.2069 24.3415,-0.0739 0,-0.17254 -4.2159,-0.26459 -12.11913,-0.26459 h -12.11966 l -0.89637,-0.66146 z m -38.32755,0.33434 c -0.76399,0.0534 -0.13933,0.0971 1.38864,0.0971 1.52797,0 2.15316,-0.0437 1.38917,-0.0971 -0.76398,-0.0534 -2.01383,-0.0534 -2.77781,0 z m -159.020908,0.002 c 0.548949,0.0573 0.164813,0.10527 -0.853833,0.10645 -1.018646,10e-4 -1.467737,-0.046 -0.99804,-0.10438 0.469697,-0.0585 1.302925,-0.0596 1.851873,-0.002 z m -4.224034,0.006 c 0.329119,-0.0633 0.805248,-0.061 1.058213,0.005 0.252964,0.0662 -0.01653,0.11818 -0.598617,0.11524 -0.582083,-0.003 -0.788714,-0.0571 -0.459596,-0.12041 z m -1.309798,0.006 c 0.190996,-0.0764 0.419401,-0.0667 0.507319,0.0212 0.08792,0.0879 -0.06812,0.1505 -0.347031,0.13901 -0.308225,-0.0127 -0.371354,-0.0757 -0.160288,-0.1602 z m 76.835612,0.71004 c -0.145521,0 -0.333297,0.17859 -0.41706,0.39687 -0.131419,0.34247 -1.440588,0.39688 -9.552968,0.39688 -6.090952,0 -9.400979,-0.0932 -9.400979,-0.26458 0,-0.29257 -1.92426,-0.36878 -2.205648,-0.0873 -0.09733,0.0973 -0.0069,0.36522 0.201268,0.59531 0.337562,0.37316 1.901504,0.41023 14.477809,0.34727 8.788329,-0.044 14.197385,-0.16858 14.359537,-0.33073 0.170468,-0.17047 -1.077532,-0.25993 -3.620749,-0.25993 -3.341139,0 -3.860272,-0.0552 -3.729164,-0.39688 0.08376,-0.21828 0.03347,-0.39687 -0.112046,-0.39687 z m 93.523738,3.175 c -0.15497,0 -1.24081,2.53193 -1.24081,2.89336 0,0.42453 0.5243,0.338 0.69822,-0.11524 0.0838,-0.21829 0.36464,-0.39687 0.62455,-0.39687 0.2599,0 0.54131,0.17859 0.62507,0.39687 0.21504,0.56038 0.6115,0.49239 0.77499,-0.1328 0.0762,-0.29124 0.049,-0.4742 -0.0602,-0.4067 -0.10921,0.0675 -0.32115,-0.27653 -0.471,-0.76481 -0.23446,-0.76393 -0.21246,-0.87613 0.15717,-0.80408 0.23626,0.046 0.57804,0.0927 0.75994,0.10386 0.21259,0.013 0.33095,0.44546 0.33095,1.21078 0,1.58578 0.47797,1.53131 0.58047,-0.0661 0.0558,-0.86994 0.19598,-1.25677 0.45544,-1.25677 0.20615,0 0.4249,-0.14883 0.48554,-0.33073 0.0785,-0.23567 -0.27673,-0.33073 -1.23511,-0.33073 -0.75072,0 -1.34455,0.121 -1.34455,0.27388 0,0.1888 -0.15922,0.1888 -0.51199,0 -0.28148,-0.15064 -0.56429,-0.27388 -0.6287,-0.27388 z m 7.63625,0 c -0.48509,0 -0.98771,0.67194 -0.92853,1.24127 0.0888,0.85437 -0.005,1.17507 -0.29256,0.99735 -0.15498,-0.0958 -0.26141,-0.49016 -0.23654,-0.87591 0.0747,-1.15797 0.008,-1.35323 -0.40773,-1.19373 -0.21828,0.0838 -0.39735,0.3708 -0.39735,0.63769 0,0.26688 -0.11903,0.55861 -0.26455,0.64854 -0.39988,0.24714 -0.31703,0.66146 0.13228,0.66146 0.21828,0 0.39735,0.11906 0.39735,0.26458 0,0.42705 -0.72251,0.30313 -0.89793,-0.154 -0.0883,-0.23018 -0.16081,-0.82549 -0.16081,-1.32291 0,-1.46938 -0.47195,-1.03123 -0.5706,0.52968 -0.0498,0.78871 -0.0473,1.39002 0.007,1.33584 0.0537,-0.0542 0.27055,0.0739 0.4819,0.28525 0.49377,0.49378 0.85491,0.48571 1.42807,-0.0331 0.41037,-0.37138 0.53021,-0.37441 1.07948,-0.0258 1.30788,0.82992 2.44305,-0.48298 1.2792,-1.4795 -0.29104,-0.2492 -0.52963,-0.38791 -0.52963,-0.30799 0,0.0799 -0.12918,0.0657 -0.28738,-0.032 -0.20652,-0.12763 -0.20634,-0.25877 -5.1e-4,-0.46457 0.20581,-0.20581 0.38708,-0.14895 0.64374,0.20205 0.2276,0.31127 0.42125,0.38608 0.53274,0.20568 0.20479,-0.33136 -0.50411,-1.11983 -1.00686,-1.11983 z m -9.27233,0.0682 c -0.31003,-0.0451 -0.84507,-0.0371 -1.74346,0.005 -1.4768,0.0682 -2.212,0.2155 -2.37683,0.47594 -0.37606,0.59421 -0.30018,0.76849 0.54519,1.24954 0.43564,0.24789 0.79274,0.53991 0.79366,0.64905 0.002,0.29363 -0.73462,0.2409 -0.92438,-0.0661 -0.20588,-0.33312 -0.66138,-0.34638 -0.66138,-0.0191 0,0.30337 0.75272,1.07745 1.04783,1.07745 0.11901,0 0.49732,-0.23812 0.84087,-0.52916 l 0.62507,-0.52917 -0.59914,-0.5085 c -0.32937,-0.27956 -0.74598,-0.56046 -0.92593,-0.62477 -0.17996,-0.0643 -0.23248,-0.21803 -0.11672,-0.34158 0.11576,-0.12356 0.44336,-0.0789 0.72778,0.0987 0.34125,0.21311 0.51666,0.2267 0.51666,0.0403 0,-0.15535 0.11955,-0.20879 0.26507,-0.11885 0.14552,0.0899 0.26456,0.0137 0.26456,-0.1695 0,-0.20958 0.0915,-0.23979 0.24743,-0.0817 0.13634,0.13825 0.28538,0.78693 0.33095,1.44177 0.10953,1.57399 0.59022,1.52808 0.69251,-0.0661 0.0566,-0.88236 0.19477,-1.25677 0.46323,-1.25677 0.21031,0 0.3823,-0.18447 0.3823,-0.4098 0,-0.17212 -0.0852,-0.27065 -0.39527,-0.31574 z m 1.79222,1.09037 c 0.0278,-0.0278 0.0646,0.009 0.10686,0.11473 0.0764,0.19099 0.0666,0.41902 -0.0213,0.50694 -0.0879,0.0879 -0.14998,-0.0684 -0.1385,-0.34726 0.006,-0.15411 0.0251,-0.24659 0.0529,-0.27441 z m 7.1419,0.70745 v 5.2e-4 c 0.30172,0.0186 0.72156,0.26887 0.72156,0.50643 0,0.3591 -0.71352,0.35194 -0.93683,-0.009 v -5.2e-4 c -0.0959,-0.1552 -0.10805,-0.34838 -0.027,-0.42943 0.0544,-0.0544 0.14168,-0.0739 0.24225,-0.0677 z m -108.022296,1.04439 c -8.643055,0 -13.229221,0.0912 -13.229221,0.26406 0,0.17286 4.586166,0.2651 13.229221,0.2651 8.643056,0 13.229221,-0.0922 13.229221,-0.2651 0,-0.17286 -4.586165,-0.26406 -13.229221,-0.26406 z m 149.622006,1.32291 c -3.96875,0 -6.21752,0.0957 -6.21752,0.26459 0,0.16889 2.24877,0.26406 6.21752,0.26406 3.96875,0 6.21752,-0.0952 6.21752,-0.26406 0,-0.16888 -2.24877,-0.26459 -6.21752,-0.26459 z m -42.46547,2.11098 v 0.64699 c 0,0.55645 0.11935,0.64366 0.85953,0.62891 0.47294,-0.009 1.00911,-0.13488 1.19101,-0.27906 0.19854,-0.15737 0.33044,-0.16226 0.33044,-0.0124 0,0.13733 0.59568,0.27686 1.32328,0.31006 0.86925,0.0397 1.32277,-0.0459 1.32277,-0.2496 0,-0.20587 0.11083,-0.22548 0.33043,-0.0584 0.46199,0.35153 3.37383,0.40004 3.37383,0.0563 0,-0.15314 0.14644,-0.18429 0.33043,-0.0703 0.54538,0.338 4.2111,0.38362 4.60427,0.0574 0.19799,-0.16432 0.35689,-0.18319 0.35689,-0.0424 0,0.13949 0.77371,0.24511 1.71959,0.23461 1.5958,-0.0177 1.72012,-0.0613 1.72012,-0.60771 v -0.58911 l -8.7313,-0.0129 z m 17.99169,0.003 v 0.64596 c 0,0.64393 0.008,0.64589 2.64554,0.61288 2.20643,-0.0276 2.64682,-0.10173 2.6502,-0.44648 0.003,-0.34033 0.0449,-0.3486 0.23654,-0.046 0.34451,0.54401 1.82996,0.58938 2.13614,0.0651 0.21538,-0.36878 0.25406,-0.37307 0.26092,-0.0279 0.006,0.31657 0.33978,0.40317 1.52922,0.39688 1.35065,-0.007 1.5306,-0.0713 1.60237,-0.57464 0.0803,-0.56345 0.0456,-0.56729 -5.49026,-0.59635 z m -30.1627,0.002 v 0.66146 c 0,0.3638 0.11903,0.66146 0.26455,0.66146 0.14552,0 0.26647,-0.14883 0.2687,-0.33073 0.003,-0.26371 0.0463,-0.26398 0.2132,-0.001 0.13883,0.21862 0.80614,0.31235 1.98052,0.27853 1.40091,-0.0404 1.7719,-0.13689 1.7751,-0.46199 0.003,-0.34676 0.0413,-0.35182 0.24277,-0.0336 0.1313,0.20747 0.66503,0.4106 1.18634,0.45166 0.77685,0.0612 0.94824,-0.0147 0.94824,-0.42117 0,-0.27277 0.14853,-0.55602 0.33043,-0.62942 0.1819,-0.0734 -1.36604,-0.14302 -3.43971,-0.15451 z m 8.82674,0 c -0.77225,0 -0.88911,0.0871 -0.88911,0.66146 0,0.55262 0.12568,0.66146 0.76306,0.66146 0.60366,0 0.78906,-0.13807 0.88911,-0.66146 0.11459,-0.59944 0.0429,-0.66146 -0.76306,-0.66146 z m 2.16934,0 c -0.75307,0 -1.0585,0.3721 -0.81856,0.99736 0.14628,0.38122 0.20404,0.38895 0.41602,0.0537 0.16669,-0.26357 0.24781,-0.28277 0.25055,-0.0589 0.002,0.1819 0.18218,0.33073 0.40046,0.33073 0.24695,0 0.39735,-0.24989 0.39735,-0.66146 0,-0.5249 -0.13331,-0.66146 -0.64582,-0.66146 z m 49.85792,0.15865 c -0.14552,0.0145 -2.9433,0.0442 -6.21752,0.0661 -3.61493,0.0241 -5.95297,0.14026 -5.95297,0.29508 0,0.35223 12.28088,0.23012 12.36916,-0.12299 0.0364,-0.14552 -0.0531,-0.25278 -0.19867,-0.23823 z m -147.19019,0.99684 c -0.05262,0.004 -0.126115,0.0345 -0.176368,0.0351 -0.658098,0.008 -7.711663,0.041 -15.674005,0.0734 l -14.476771,0.0589 -0.07522,2.84427 -0.07522,2.84427 -2.910086,2.1792 c -1.600729,1.19846 -3.030855,2.18074 -3.177752,2.18281 -0.146896,0.002 -0.423051,0.2534 -0.61366,0.55862 -0.190608,0.30521 -0.415907,0.48568 -0.500576,0.40101 -0.08467,-0.0847 -0.310471,0.0525 -0.502133,0.30489 -0.266402,0.35082 -0.351341,2.04791 -0.36,7.20576 -0.0062,3.71078 -0.08514,7.19336 -0.175331,7.73906 l -0.163919,0.99219 H 9.1658339 c -0.845496,0 -1.6141493,0.12432 -1.7081843,0.27647 -0.114559,0.18536 0.465705,0.25084 1.75902,0.19844 1.8041654,-0.0731 1.9421174,-0.12122 2.1133144,-0.73949 0.100736,-0.3638 0.195062,-3.88354 0.209567,-7.82175 l 0.02646,-7.16028 0.727262,-0.66818 c 0.400183,-0.36754 2.186188,-1.72216 3.968818,-3.01015 3.640667,-2.63046 3.26109,-1.93106 3.341671,-6.15983 l 0.03216,-1.66863 10.318616,-0.007 c 5.675313,-0.004 12.55365,-0.086 15.285474,-0.18294 1.98558,-0.0704 3.010203,-0.0786 3.688703,-0.0553 z m 137.00385,1.22576 c -1.14653,0 -1.98415,0.11171 -1.98415,0.26459 0,0.15287 0.83762,0.26458 1.98415,0.26458 1.14653,0 1.98467,-0.11171 1.98467,-0.26458 0,-0.15288 -0.83814,-0.26459 -1.98467,-0.26459 z m 6.2336,0 c -1.82085,0 -3.22876,0.1121 -3.323,0.26459 -0.1057,0.17102 1.01119,0.26458 3.15908,0.26458 2.03888,0 3.323,-0.10224 3.323,-0.26458 0,-0.16162 -1.22921,-0.26459 -3.15908,-0.26459 z m -43.94178,0.3452 c -0.15641,0.0215 -0.32855,0.0792 -0.50888,0.1757 -0.30542,0.16346 -0.68119,0.21918 -0.83516,0.12402 -0.21984,-0.13587 -3.82241,-0.21794 -5.72835,-0.13074 -0.1819,0.008 -0.33095,0.25311 -0.33095,0.54416 0,0.5064 0.17644,0.52916 4.10109,0.52916 3.94578,0 4.1011,-0.0204 4.1011,-0.53743 0,-0.50838 -0.32962,-0.76924 -0.79885,-0.70487 z m 2.51274,0.017 c -0.23886,0.0917 -0.59581,0.16692 -0.79315,0.16692 -0.19733,0 -0.34094,0.23812 -0.31902,0.52917 0.0364,0.48339 0.22965,0.52916 2.23263,0.52916 1.56659,0 2.1985,-0.0944 2.21343,-0.33073 0.0167,-0.26458 0.0478,-0.26458 0.15458,0 0.10297,0.25521 2.12646,0.33073 8.86098,0.33073 8.71377,0 8.72752,-8.3e-4 8.64311,-0.555 -0.084,-0.5514 -0.14961,-0.55533 -9.94046,-0.59532 -9.22539,-0.0377 -9.85541,-0.0106 -9.85539,0.42272 4e-5,0.64971 -0.43773,0.57795 -0.61522,-0.10077 -0.10204,-0.39019 -0.28078,-0.51227 -0.58149,-0.39688 z m -11.43752,0.0346 c -0.58616,0 -0.86093,0.12634 -0.86369,0.39687 -0.004,0.35278 -0.0353,0.35278 -0.28479,0 -0.23018,-0.32547 -0.3066,-0.33192 -0.42484,-0.0362 -0.0823,0.2058 -0.21577,0.25168 -0.31072,0.10697 -0.0915,-0.13948 -0.61263,-0.32419 -1.15833,-0.41031 -0.90782,-0.14325 -0.99233,-0.104 -0.99233,0.46095 0,0.60067 0.0672,0.61867 2.47746,0.64957 2.41604,0.031 2.47686,0.0164 2.44738,-0.56844 -0.0249,-0.494 -0.18181,-0.59944 -0.89014,-0.59944 z m 36.22772,0.0191 c -3.11074,0.0542 -2.86569,0.002 -3.03303,0.64234 -0.13233,0.50604 -0.008,0.52916 2.84317,0.52916 2.96732,0 2.98063,-0.003 2.86496,-0.60823 -0.11242,-0.58808 -0.19956,-0.60639 -2.6751,-0.56327 z m 10.38345,2.26136 c -1.5219,0.0228 -1.8777,0.086 -1.30098,0.23202 0.73923,0.18711 3.03733,0.0758 3.28513,-0.15916 0.0606,-0.0575 -0.83211,-0.0901 -1.98415,-0.0729 z m 7.61706,0.0362 c -1.06139,-0.0503 -2.72836,-0.0497 -3.70426,0.001 -0.9759,0.0508 -0.10761,0.092 1.92968,0.0915 2.03729,-4.1e-4 2.83598,-0.0421 1.77458,-0.0925 z m -21.72449,0.55707 -2.59262,0.063 c -1.42596,0.0346 -2.68216,0.0723 -2.7913,0.0842 -0.10914,0.0119 -0.19816,0.25192 -0.19816,0.5333 0,0.59544 0.48463,0.6884 3.43972,0.65991 1.91257,-0.0184 1.98674,-0.0427 2.06299,-0.67955 h 5.2e-4 z m -34.11648,0.0367 c -2.27801,0 -2.42195,0.033 -2.42196,0.55139 0,0.30317 0.0495,0.60082 0.10997,0.66146 0.163,0.16362 4.33775,0.04 4.62398,-0.13694 0.13528,-0.0836 0.21524,-0.35983 0.17792,-0.61392 -0.0589,-0.40098 -0.38753,-0.46199 -2.48991,-0.46199 z m 14.20547,0.0367 c -5.57987,-0.0344 -10.29389,-0.0141 -10.47579,0.045 -0.18191,0.0591 -0.33095,0.32615 -0.33095,0.59325 0,0.3819 0.24034,0.50299 1.12461,0.56844 0.61846,0.0458 1.20077,0.0539 1.29424,0.0176 0.0935,-0.0363 1.96901,-0.0809 4.16749,-0.0987 3.50607,-0.0285 3.99827,-0.0858 4.00565,-0.46509 0.007,-0.37753 0.0547,-0.37149 0.37348,0.0491 0.33349,0.43995 0.82113,0.4788 5.61424,0.44338 8.33261,-0.0616 8.15913,-0.0478 8.15913,-0.66042 0,-0.43655 -0.16198,-0.52166 -0.92593,-0.48628 -0.50933,0.0236 -1.19402,0.0534 -1.52144,0.0661 -0.37821,0.0148 -0.59846,0.19211 -0.60381,0.48628 -0.008,0.43329 -0.0317,0.43216 -0.37193,-0.0165 -0.33838,-0.44632 -1.06612,-0.48385 -10.50899,-0.54209 z m 38.12576,1.41852 c -3.47082,0 -5.25068,0.0915 -5.14374,0.26459 0.0999,0.1617 2.16337,0.26458 5.30714,0.26458 3.25278,0 5.14375,-0.0973 5.14375,-0.26458 0,-0.1676 -1.94535,-0.26459 -5.30715,-0.26459 z m -63.40097,0.23565 c -0.0501,0.0274 -0.0835,0.099 -0.0835,0.22634 0,0.0618 0.17832,0.56756 0.25055,0.81545 0.20585,0.19278 0.4104,0.38691 0.61366,0.5824 -0.1025,-0.34265 -0.31008,-0.85853 -0.31487,-0.99994 -0.0133,-0.39176 -0.31547,-0.70645 -0.46582,-0.62425 z m -100.029157,6.52931 c -0.102284,-0.002 -0.19567,0.0826 -0.337694,0.25373 -0.244617,0.29474 -0.957441,0.38965 -2.931354,0.38965 h -2.608703 l -1.864842,1.75906 -1.864322,1.75907 0.07366,3.31246 c 0.05714,2.56624 0.157751,3.3405 0.446628,3.43648 0.282025,0.0937 0.315632,0.002 0.138501,-0.37517 -0.12881,-0.27452 -0.272487,-1.74935 -0.319539,-3.27732 l -0.08559,-2.77813 1.535446,-1.51515 c 0.98167,-0.9685 1.845548,-1.57694 2.394467,-1.68672 1.15986,-0.23197 1.092514,0.15076 -0.238098,1.35289 l -1.096599,0.99115 0.148357,3.34502 c 0.0873,1.96303 0.04323,3.53415 -0.106859,3.80235 -0.188609,0.33703 -0.15857,0.45734 0.114121,0.45734 0.282966,0 0.410495,-0.66783 0.543631,-2.84376 0.111771,-1.82676 0.07912,-2.87565 -0.09182,-2.93263 -0.146345,-0.0488 -0.263543,-0.40621 -0.260404,-0.79427 0.0039,-0.48462 0.430344,-1.14715 1.36219,-2.11615 l 1.357003,-1.41077 1.938501,0.0811 c 2.139854,0.0893 2.859059,-0.2259 2.145476,-0.93948 -0.178602,-0.17861 -0.289877,-0.2684 -0.392162,-0.27079 z m 130.907197,4.34186 c -9.50574,0.004 -18.98522,0.0928 -19.45453,0.2713 -0.54577,0.2075 -0.90506,0.51432 -1.5453,1.19062 0.0821,0.12546 0.16367,0.25121 0.24484,0.37724 l 1.3181,-1.30431 h 9.9804 9.45649 z m 34.95164,3.97391 c -4.60477,0 -7.05528,4.70088 -3.95793,7.59282 1.54274,1.44042 4.01556,1.79139 5.96646,0.84698 4.51186,-2.18415 3.02315,-8.4398 -2.00853,-8.4398 z m -0.48346,0.54778 c 2.34701,-0.15772 4.68467,1.27312 4.68467,3.81785 0,2.78758 -3.14317,4.71686 -6.22427,3.82044 -2.29617,-0.66805 -3.47549,-3.64732 -2.19164,-5.5361 0.91151,-1.34101 2.32303,-2.00757 3.73124,-2.10219 z m 0.21631,1.42937 c -0.15282,0.009 -0.29259,0.13854 -0.55141,0.39739 -0.67993,0.67993 -0.68242,1.37989 -0.007,1.99109 0.70972,0.64228 0.66663,0.87929 -0.13227,0.72657 -0.3638,-0.0695 -0.66139,-0.0334 -0.66139,0.0806 0,0.18841 1.34868,1.68179 1.53441,1.69912 0.0433,0.004 0.37041,-0.30792 0.72726,-0.69298 0.86535,-0.93372 0.82064,-1.60803 -0.14317,-2.15646 -0.92891,-0.52858 -1.0287,-0.86725 -0.22928,-0.77825 0.80426,0.0895 0.85145,-0.38426 0.0934,-0.93638 -0.31154,-0.22689 -0.47744,-0.33929 -0.63026,-0.33072 z m -41.70138,7.81244 c -1.34811,0 -1.71759,0.17861 -1.27868,0.61753 0.097,0.097 0.7517,0.17622 1.45505,0.17622 0.96034,0 1.27919,-0.0988 1.27919,-0.39688 0,-0.30467 -0.33843,-0.39687 -1.45556,-0.39687 z m -128.858721,8.29045 c -0.0028,0.0119 -0.02015,0.10236 -0.02231,0.11059 -0.06549,0.25003 -1.525088,0.34392 -5.982016,0.38447 -5.226019,0.0475 -5.519784,0.0714 -2.587954,0.21084 1.81901,0.0865 4.525362,0.18134 6.014178,0.21084 1.551025,0.0307 2.173998,0.0205 2.482651,-0.0997 0.05819,-0.25959 0.142988,-0.51035 0.20438,-0.76894 z m 130.377051,0.89865 c -0.15355,0.0515 -0.32601,0.41514 -0.55608,1.10329 -0.18883,0.56479 -0.20818,1.01013 -0.0524,1.19786 0.2523,0.304 0.35099,9.16165 0.11153,10.00766 -0.11407,0.40301 -0.48835,0.46302 -2.89089,0.46302 -0.57207,0 -0.93798,0.0272 -1.34611,0.0486 0.004,0.13762 0.007,0.27525 0.01,0.41289 0.45314,0.0118 0.87743,0.0273 1.55204,0.0103 l 2.977,-0.0749 0.19608,-5.29115 c 0.11658,-3.14103 0.30494,-5.32675 0.46323,-5.37952 0.33794,-0.11264 0.33368,-0.45344 -0.0207,-1.73013 -0.15517,-0.55884 -0.28996,-0.81945 -0.44351,-0.76791 z m 8.66853,3.24683 v 0.88212 c 0,0.48507 0.0799,0.96187 0.17792,1.05988 0.098,0.098 8.34334,0.14745 18.32265,0.11007 l 18.14421,-0.0677 0.082,-0.99219 0.082,-0.99219 h -18.40461 z m -0.0384,11.37709 -4.58818,4.6302 -4.58819,4.63021 h -3.49677 -1.53026 c -0.0403,0.18881 -0.0814,0.37743 -0.12346,0.56586 0.51298,-0.0154 0.97496,-0.0367 1.60185,-0.0367 h 3.64098 l 4.62605,-4.63176 4.62605,-4.63176 20.77106,0.0677 20.77107,0.0677 0.0685,12.38633 c 0.052,9.37129 -0.006,12.34021 -0.23913,12.19615 -0.17743,-0.10965 -0.23723,-0.076 -0.1411,0.0796 0.0918,0.14856 -0.0811,0.49432 -0.38386,0.76843 -0.52964,0.47945 -1.361,0.49868 -21.8879,0.49868 h -21.33752 l -0.0669,-8.20208 -0.0674,-8.20209 2.55995,-2.57968 2.55994,-2.57969 15.76322,-0.0331 c 8.82479,-0.0185 15.23979,-0.12635 14.57326,-0.24495 -0.65485,-0.11652 -7.79602,-0.22072 -15.86957,-0.23151 l -14.67959,-0.0196 -2.71712,2.74712 -2.71712,2.7466 v 8.21449 c 0,7.43714 0.0432,8.25754 0.45804,8.67234 0.42679,0.42678 1.33734,0.44613 13.29562,0.2837 7.06044,-0.0959 16.65044,-0.1745 21.31106,-0.17466 h 8.47349 l 0.8528,-0.77877 0.85279,-0.77876 v -12.2313 c 0,-11.00983 -0.0436,-12.27944 -0.43781,-12.71498 -0.41712,-0.46091 -1.42177,-0.48369 -21.18605,-0.48369 z m -24.03908,41.93645 c -0.22333,0 -0.43519,0.28924 -0.48501,0.66146 -0.0487,0.3638 -0.19776,0.77437 -0.33095,0.91261 -0.366,0.37986 -0.2927,0.62471 0.22098,0.73897 0.5924,0.13177 0.71673,0.0222 0.77498,-0.68161 0.0261,-0.31534 0.0856,-0.81122 0.13228,-1.10226 0.0532,-0.33169 -0.0636,-0.52917 -0.31228,-0.52917 z m -107.625461,4.85242 c -0.398565,0.075 -0.929727,0.49843 -0.77291,0.75241 0.174071,0.28191 7.07478,0.10109 7.59216,-0.19896 0.240761,-0.13963 -0.909205,-0.23334 -2.923573,-0.23822 -1.826286,-0.004 -3.433743,-0.11956 -3.571988,-0.25528 -0.07294,-0.0716 -0.190834,-0.085 -0.323689,-0.0599 z m 8.869798,0.38499 c -0.327422,0.0631 -0.05934,0.11472 0.595504,0.11472 0.654844,0 0.922408,-0.0517 0.594986,-0.11472 -0.327421,-0.0631 -0.863069,-0.0631 -1.19049,0 z m 91.265693,4.96766 c -6.95916,-0.0123 -10.4775,0.0712 -10.36945,0.24598 0.20366,0.32955 19.60631,0.32955 20.3732,0 0.30775,-0.13224 -3.8782,-0.23517 -10.00375,-0.24598 z m -93.000852,0.293 c -5.114139,-0.0309 -7.698964,0.043 -7.591123,0.21756 0.182654,0.29554 5.141702,0.30078 11.376829,0.0124 v 5.2e-4 c 3.544672,-0.16394 3.14035,-0.18861 -3.785706,-0.23048 z m 66.189682,11.87318 c -0.19695,0.0469 -0.35897,0.21411 -0.35897,0.47077 0,0.74393 0.67091,1.13641 1.14018,0.66714 0.0937,-0.0937 1.94736,-0.14533 4.11925,-0.11524 2.56059,0.0355 4.01017,-0.0445 4.12288,-0.22686 0.11997,-0.19412 -1.13758,-0.28112 -4.0596,-0.28112 -2.53682,0 -4.29878,-0.10603 -4.39677,-0.26458 -0.13828,-0.22373 -0.37003,-0.297 -0.56697,-0.25011 z m -19.806228,1.91823 c -7.421565,-6.7e-4 -12.957609,0.0822 -12.302765,0.18396 1.608678,0.2501 20.729366,0.26232 23.547836,0.015 1.29579,-0.11372 -3.470341,-0.19824 -11.245071,-0.19895 z m 112.199128,1.24282 c -2.96738,0 -4.94315,0.10367 -5.0426,0.26458 -0.10683,0.17285 1.58478,0.26458 4.8792,0.26458 3.18541,0 5.04259,-0.0974 5.04259,-0.26458 0,-0.16683 -1.80279,-0.26458 -4.87919,-0.26458 z m -0.80922,3.4401 c -2.55764,0 -4.1011,0.0996 -4.1011,0.26458 0,0.16501 1.54346,0.26458 4.1011,0.26458 2.55764,0 4.10109,-0.0996 4.10109,-0.26458 0,-0.16501 -1.54345,-0.26458 -4.10109,-0.26458 z"
         sodipodi:nodetypes="ssscccsscccsscccccscccscccccccccscscsccscsssscccsscsccccsscscsscssssccsssssssssssssccssscsssssssccssssssccsscsscsssssccsscsssccssssssssssssccscscsccsccscsssssssssscscsssssscssssccccsscssccscccsscccccsssccsssssssscsssscssscsscccccscscccsssscccscccsccsssssssssscsscssscssssssssssssscssssssssscsssccscccccccssscccsscssssssssccssssccsssssssssccsscssccccsccccscccssssccccsccsccccccssssssssssccsssssssssssssscccsccccssssscccccssscssccccccccccccsccccccsssscccccssscccsssccccssscssssssscsscscsscsscssscccsssssssssscssssssssssss" /><path
         id="path6"
         style="fill:#16a98d;fill-opacity:1"
         d="m 134.18386,-322.59801 c -1.05503,0.0502 -0.19179,0.0909 1.91827,0.0909 2.11005,0 2.97329,-0.0408 1.91827,-0.0909 -1.05503,-0.0502 -2.78152,-0.0502 -3.83654,0 z m -8.10518,0.21343 c -0.0187,0.005 0.0124,0.11569 0.0814,0.33538 0.0837,0.26656 0.18033,3.65984 0.21423,7.54062 l 0.0617,7.0559 0.0747,-7.09311 c 0.0508,-4.79967 -0.0182,-7.23795 -0.21372,-7.54062 -0.13096,-0.20273 -0.19971,-0.30329 -0.21838,-0.29817 z m 5.3559,0.10748 c -0.0926,0.009 -0.16658,0.0416 -0.20023,0.0961 -0.0673,0.10896 0.10705,0.21548 0.38801,0.23668 0.60763,0.0458 0.66109,-0.0791 0.12243,-0.28577 -0.10681,-0.041 -0.21761,-0.0554 -0.31021,-0.0465 z m 10.08778,0.001 c -0.0445,-0.0184 -0.12942,-0.007 -0.24691,0.0377 -0.22584,0.0867 -0.41084,0.20428 -0.41084,0.26148 0,0.21429 0.50445,0.0938 0.65983,-0.15761 0.0461,-0.0747 0.0423,-0.1229 -0.002,-0.14159 z m 55.7891,0.0749 c -1.76912,-0.0379 -3.16099,0.0206 -3.09319,0.12971 0.0678,0.10916 2.22956,0.17527 4.80397,0.14727 4.74678,-0.0517 4.12936,-0.15171 -1.71078,-0.27698 z m -225.251041,0.59273 c -3.880556,0 -6.085244,0.0959 -6.085244,0.26458 0,0.16868 2.204688,0.26458 6.085244,0.26458 3.880556,0 6.085764,-0.0959 6.085764,-0.26458 0,-0.16869 -2.205208,-0.26458 -6.085764,-0.26458 z m 173.512721,0.5457 c -1.15661,-0.0265 -3.72329,0.1021 -4.3117,0.26148 -0.46032,0.1247 0.37353,0.15309 1.98467,0.0677 1.52796,-0.081 2.8277,-0.192 2.8883,-0.2465 0.0533,-0.0479 -0.17573,-0.0738 -0.56127,-0.0827 z m 19.83164,0.0506 c -1.63711,0.0464 -0.29773,0.0842 2.97649,0.0842 3.27422,0 4.61359,-0.0378 2.97648,-0.0842 -1.6371,-0.0464 -4.31586,-0.0464 -5.95297,0 z m -17.05487,0.001 c -0.98832,0.051 -0.24894,0.0935 1.64283,0.094 1.89174,5e-4 2.70034,-0.0415 1.79688,-0.093 -0.90345,-0.0515 -2.45139,-0.0521 -3.43971,-0.001 z m 10.58058,0.002 c -0.69561,0.0547 -0.19338,0.1 1.11631,0.10077 1.30965,8.3e-4 1.87874,-0.0442 1.26467,-0.0997 -0.61407,-0.055 -1.68536,-0.0557 -2.38098,-0.001 z m -5.15101,0.0145 c -0.21107,0.0845 -0.14845,0.14698 0.15977,0.15968 0.27887,0.0115 0.43545,-0.0511 0.34755,-0.13901 -0.0879,-0.0879 -0.31632,-0.0971 -0.50732,-0.0207 z m -186.538599,0.2496 c -0.768862,0.0536 -0.207659,0.098 1.24755,0.0987 1.455212,7e-4 2.084329,-0.0434 1.397983,-0.0977 -0.686346,-0.054 -1.87667,-0.0546 -2.645533,-0.001 z m 168.530819,5.2e-4 c -0.76399,0.0535 -0.13932,0.0971 1.38865,0.0971 1.52797,0 2.15315,-0.0437 1.38916,-0.0971 -0.76398,-0.0534 -2.01383,-0.0534 -2.77781,0 z m 38.64657,0.093 c -0.1237,0.0764 -0.15634,0.24953 -0.0726,0.38499 0.21398,0.34618 0.29775,0.30712 0.29775,-0.13901 0,-0.21191 -0.10149,-0.32238 -0.22513,-0.24598 z m -204.672951,0.43409 c -1.564349,0.0467 -0.284491,0.0847 2.844207,0.0847 3.128698,0 4.408555,-0.038 2.844207,-0.0847 -1.564349,-0.0468 -4.124065,-0.0468 -5.688414,0 z m 78.235151,0.1974 c -0.154107,0 -0.206655,0.11905 -0.116715,0.26458 0.08994,0.14552 0.215946,0.26459 0.280116,0.26459 0.06418,0 0.116714,-0.11907 0.116714,-0.26459 0,-0.14553 -0.126006,-0.26458 -0.280115,-0.26458 z m 127.4125,0.0879 c -0.20553,0 -0.31258,0.0994 -0.23758,0.22066 0.075,0.12128 0.18198,0.22066 0.23758,0.22066 0.0556,0 0.16206,-0.0994 0.23706,-0.22066 0.075,-0.12129 -0.0316,-0.22066 -0.23706,-0.22066 z m 12.84795,0.17673 c -7.64169,0 -11.9492,0.0946 -12.05429,0.26459 -0.1081,0.17489 3.92165,0.26458 11.89037,0.26458 7.85972,0 12.05429,-0.0921 12.05429,-0.26458 0,-0.17248 -4.13967,-0.26459 -11.89037,-0.26459 z m -159.796414,0.009 c -0.02105,-9.4e-4 0.0084,0.10412 0.07366,0.31471 0.0777,0.25081 -0.02416,0.54847 -0.226167,0.66146 -0.202012,0.11303 4.078083,0.20567 9.51095,0.20567 5.432867,0 9.822683,-0.0893 9.755273,-0.19844 -0.06741,-0.10914 -4.276883,-0.19844 -9.354293,-0.19844 -8.50225,0 -9.255438,-0.0366 -9.529624,-0.46302 -0.137475,-0.21381 -0.20875,-0.321 -0.229799,-0.32194 z m -1.485648,0.0522 c -0.05115,-0.071 -0.184151,-0.0585 -0.380749,0.063 -0.157572,0.0974 -0.210035,0.30065 -0.116715,0.45165 0.109865,0.17773 0.245871,0.15047 0.386456,-0.077 0.131206,-0.21227 0.162156,-0.36668 0.111008,-0.4377 z m 25.660632,0.67645 c -1.567853,0.008 -3.338565,0.063 -4.094351,0.15813 -0.363802,0.0458 1.028114,0.10119 3.093198,0.12299 2.065083,0.0218 3.810051,-0.0495 3.877521,-0.15865 0.05658,-0.0915 -1.308515,-0.13055 -2.876368,-0.12247 z m 90.31538,2.21691 c -0.0288,-0.0236 -0.0684,-0.0168 -0.11205,0.0269 -0.0874,0.0873 -0.0803,0.28611 0.0156,0.44131 0.0959,0.15519 0.37537,0.26805 0.62144,0.25115 0.40338,-0.0277 0.40192,-0.0423 -0.0156,-0.15141 -0.25466,-0.0666 -0.46271,-0.25121 -0.46271,-0.41031 0,-0.0795 -0.0179,-0.13397 -0.0467,-0.15762 z m -4.38173,0.031 v 5.2e-4 c -0.40218,0.0608 -0.13573,0.1122 0.59187,0.1142 0.72725,0.002 1.05632,-0.0478 0.7309,-0.11059 -0.32542,-0.0632 -0.92059,-0.065 -1.32277,-0.004 z m 5.15568,0.003 c -0.32742,0.0631 -0.0593,0.11472 0.5955,0.11472 0.65481,0 0.92293,-0.0516 0.59551,-0.11472 -0.32742,-0.0631 -0.86359,-0.0631 -1.19101,0 z m 3.72242,0.0842 c -0.1192,0.0737 -0.21631,0.42458 -0.21631,0.7798 0,0.88732 0.17971,0.81175 0.3185,-0.13384 0.0629,-0.42888 0.017,-0.71966 -0.10219,-0.64596 z m -9.87043,0.2279 c -0.0444,0.0185 -0.048,0.0671 -0.002,0.14211 0.0889,0.14385 0.27391,0.262 0.41084,0.262 0.38059,0 0.29651,-0.18997 -0.16185,-0.36587 -0.11748,-0.0451 -0.20245,-0.0567 -0.24691,-0.0382 z m -0.89585,0.14314 c -0.28961,0.003 -0.21403,0.1242 0.23083,0.37104 0.87572,0.48589 0.91548,0.48778 0.52911,0.0222 -0.18115,-0.21828 -0.52309,-0.39526 -0.75994,-0.39326 z m 67.36875,0.0806 c -0.042,-3.32053 -0.0762,-0.67954 -0.0763,5.86889 0,6.54844 0.0342,9.26526 0.0763,6.03736 0.0421,-3.2279 0.042,-8.58571 0,-11.90625 z m -63.89429,0.009 c -0.0107,-0.0136 -0.0977,-0.0124 -0.26196,0.002 -0.36377,0.0323 -0.48591,0.32314 -0.54881,1.30276 -0.0535,0.83327 -0.17982,1.1998 -0.37193,1.08107 -0.1762,-0.10895 -0.21516,-0.0576 -0.0991,0.13023 0.3533,0.57165 0.6842,0.0154 0.6842,-1.15032 0,-0.80272 0.12274,-1.19384 0.40202,-1.28054 0.14107,-0.0436 0.20629,-0.0717 0.19556,-0.0853 z m 2.22951,0.23358 c -0.0465,0.024 -0.11102,0.0934 -0.18155,0.20257 -0.14106,0.21828 -0.25626,0.51594 -0.25626,0.66146 0,0.14552 0.1152,0.086 0.25626,-0.13229 0.14107,-0.21828 0.25677,-0.51594 0.25677,-0.66146 0,-0.0728 -0.0287,-0.0943 -0.0752,-0.0703 z m 7.62381,0.0258 c -0.20543,0 -0.31206,0.0994 -0.23706,0.22065 0.075,0.12129 0.18146,0.22066 0.23706,0.22066 0.0556,0 0.16258,-0.0994 0.23758,-0.22066 0.075,-0.12128 -0.0321,-0.22065 -0.23758,-0.22065 z m -14.38081,0.0501 c -0.0626,0.0626 0.0369,0.29498 0.22098,0.51677 0.47202,0.56875 0.59991,0.50139 0.21579,-0.11369 -0.17763,-0.28443 -0.37417,-0.46568 -0.43677,-0.40308 z m 3.21043,0.75551 c -0.0278,0.0278 -0.0466,0.12081 -0.0529,0.27492 -0.0115,0.27896 0.0511,0.43517 0.13902,0.34727 0.0879,-0.0879 0.0971,-0.31596 0.0207,-0.50695 -0.0422,-0.10553 -0.079,-0.14306 -0.10686,-0.11524 z m 11.36957,0.0734 c -0.10914,-0.0675 -0.19867,0.21187 -0.19867,0.62064 0,0.40877 0.0895,0.68751 0.19867,0.62011 0.10914,-0.0675 0.19816,-0.34624 0.19816,-0.62011 0,-0.27386 -0.089,-0.55314 -0.19816,-0.62064 z m -14.33827,0.35605 c -0.15411,0 -0.28011,0.11907 -0.28011,0.26459 0,0.14552 0.0525,0.26458 0.11671,0.26458 0.0642,0 0.19022,-0.11906 0.28012,-0.26458 0.0899,-0.14552 0.0374,-0.26459 -0.11672,-0.26459 z m 12.29914,0.0879 c -0.21202,0 -0.44771,0.16176 -0.52341,0.35915 -0.10803,0.28153 -0.025,0.29814 0.38542,0.0786 0.62326,-0.33356 0.65632,-0.4377 0.13799,-0.4377 z m -94.795155,0.73743 c -0.472873,0.009 -1.167031,0.0824 -2.053659,0.21962 v -5.2e-4 c -1.210678,0.18736 -1.149276,0.2027 0.727262,0.1757 1.127779,-0.0162 2.05054,-0.11875 2.050547,-0.22789 8e-6,-0.1204 -0.251278,-0.17588 -0.72415,-0.16691 z m -19.050949,0.16846 c -3.771241,-0.002 -6.683428,0.0408 -6.683342,0.13074 1.04e-4,0.10915 4.792353,0.17301 10.649567,0.14211 5.857213,-0.0309 9.399206,-0.0899 7.871238,-0.13074 -3.436142,-0.0921 -8.066221,-0.13974 -11.837463,-0.14211 z m 112.329844,0.14831 c -0.21107,0.0844 -0.14845,0.14698 0.15977,0.15968 0.27887,0.0115 0.43493,-0.0511 0.34703,-0.13901 -0.0879,-0.0879 -0.3158,-0.0971 -0.5068,-0.0207 z m 44.89625,1.10691 c -2.83764,0 -5.15938,0.0893 -5.15931,0.19844 7e-5,0.10914 2.32166,0.19844 5.15931,0.19844 2.83766,0 5.1594,-0.0893 5.15931,-0.19844 -1e-4,-0.10913 -2.32168,-0.19844 -5.15931,-0.19844 z m -25.53199,1.98128 v 0.63923 c 0,0.61686 0.0666,0.63894 1.91828,0.63924 1.05503,1.7e-4 2.05642,-0.11381 2.22536,-0.25373 0.1986,-0.1645 0.36742,-0.15658 0.47827,0.0227 0.26895,0.43518 0.66983,0.32501 0.67383,-0.18552 0.003,-0.36908 0.051,-0.38863 0.23654,-0.0956 0.34451,0.54399 1.82996,0.58936 2.13614,0.0651 0.21539,-0.36872 0.25392,-0.37311 0.26092,-0.0279 0.006,0.31658 0.33978,0.40288 1.52922,0.39688 1.35065,-0.007 1.53057,-0.0713 1.60237,-0.57464 0.0803,-0.56345 0.0457,-0.56725 -5.49026,-0.59635 z m -19.16662,0.002 c -0.75308,0 -1.05902,0.3721 -0.81908,0.99736 0.14628,0.38124 0.20456,0.38897 0.41654,0.0537 0.16665,-0.26354 0.24755,-0.28275 0.25055,-0.0589 0.002,0.1819 0.18218,0.33073 0.40046,0.33073 0.24695,0 0.39735,-0.24988 0.39735,-0.66146 0,-0.5249 -0.13331,-0.66146 -0.64582,-0.66146 z m 18.63752,0.01 -8.7313,0.0114 -8.73129,0.0109 v 0.62787 c 0,0.53494 0.12635,0.62438 0.85954,0.60978 0.47294,-0.009 1.0091,-0.13487 1.191,-0.27905 0.19854,-0.15743 0.33044,-0.1623 0.33044,-0.0124 0,0.13733 0.59516,0.27686 1.32276,0.31006 0.86925,0.0397 1.32329,-0.0459 1.32329,-0.2496 0,-0.20585 0.11083,-0.22548 0.33043,-0.0584 0.46199,0.35154 3.37383,0.4006 3.37383,0.0568 0,-0.1531 0.14644,-0.18429 0.33043,-0.0703 0.54538,0.33802 4.2111,0.38362 4.60427,0.0574 0.19799,-0.16432 0.35689,-0.18317 0.35689,-0.0424 0,0.13952 0.77371,0.24511 1.71959,0.23461 1.60015,-0.0178 1.72012,-0.0604 1.72012,-0.61289 z m -25.83285,0.0429 -3.74006,0.0191 0.0358,0.62529 c 0.0365,0.63545 0.42978,0.90085 0.43678,0.29507 0.003,-0.26367 0.0463,-0.26394 0.21319,-0.001 0.13883,0.21858 0.80614,0.31233 1.98052,0.27853 1.40091,-0.0403 1.7721,-0.13688 1.7751,-0.46198 0.003,-0.3468 0.0413,-0.35185 0.24277,-0.0336 0.1313,0.20746 0.66503,0.41055 1.18634,0.45165 0.77685,0.0612 0.94824,-0.0147 0.94824,-0.42117 0,-0.27277 0.14853,-0.55795 0.33043,-0.63355 0.1819,-0.0757 -1.35205,-0.12884 -3.4091,-0.11834 z m 5.04259,0.0331 c -0.78455,-0.0209 -0.90571,0.0602 -0.90571,0.60616 0,0.53129 0.13149,0.63045 0.83776,0.63045 0.46082,0 0.76262,-0.075 0.67072,-0.16691 -0.0919,-0.0919 -0.0613,-0.36468 0.0679,-0.60617 0.19679,-0.36771 0.0878,-0.44333 -0.67072,-0.46353 z m 44.66853,0.51004 c -1.41883,0.0476 -0.25801,0.0868 2.57965,0.0868 2.83765,0 3.99847,-0.0392 2.57965,-0.0868 -1.41883,-0.0476 -3.74047,-0.0476 -5.1593,0 z m -4.36565,0.0109 c -0.32743,0.0631 -0.0593,0.11524 0.5955,0.11524 0.65481,0 0.92293,-0.0521 0.59551,-0.11524 -0.32742,-0.0631 -0.86359,-0.0631 -1.19101,0 z m -136.65215,0.53279 v 5.2e-4 c -0.257431,0.0671 -0.110798,0.12677 0.325764,0.13177 0.436567,0.005 0.647027,-0.05 0.467896,-0.12247 -0.179132,-0.0727 -0.536229,-0.0767 -0.79366,-0.01 z m -22.741208,0.5147 c -3.029302,0.0425 -0.626527,0.0774 5.339827,0.0775 5.966354,10e-5 8.444947,-0.035 5.507895,-0.0775 -2.937052,-0.0425 -7.818419,-0.0425 -10.847722,0 z m 105.648058,0.69246 c -0.0463,-0.33393 -0.0832,0.97568 -0.10997,3.93774 -0.0293,3.23783 0.0361,5.88727 0.14525,5.8875 0.10919,2.2e-4 0.16728,-1.75594 0.12968,-3.9026 -0.0632,-3.61113 -0.11864,-5.58871 -0.16496,-5.92264 z m 55.26674,0.0346 c -1.09141,0 -1.98415,0.0893 -1.98415,0.19844 0,0.10914 0.89274,0.19844 1.98415,0.19844 1.09141,0 1.98467,-0.0893 1.98467,-0.19844 0,-0.10914 -0.89326,-0.19844 -1.98467,-0.19844 z m 6.3721,0.0584 c -1.73415,-0.0419 -3.24688,0.0173 -3.36138,0.13126 -0.1145,0.1139 1.30473,0.14802 3.15337,0.076 l 3.36087,-0.13074 z m -44.08028,0.28732 c -0.15641,0.0215 -0.32855,0.0792 -0.50888,0.1757 -0.30542,0.16347 -0.68119,0.21922 -0.83516,0.12402 -0.21984,-0.13616 -3.82241,-0.21846 -5.72835,-0.13126 -0.1819,0.008 -0.33095,0.25362 -0.33095,0.54467 0,0.50636 0.17644,0.52917 4.10109,0.52917 3.94578,0 4.1011,-0.0208 4.1011,-0.53795 0,-0.50837 -0.32962,-0.76872 -0.79885,-0.70435 z m 2.51274,0.017 c -0.23886,0.0917 -0.5958,0.1664 -0.79314,0.1664 -0.19771,0 -0.34029,0.24187 -0.31799,0.53847 0.0374,0.49726 0.20271,0.53476 2.16623,0.49506 1.23249,-0.0249 2.20759,-0.16744 2.32029,-0.33952 0.13754,-0.21003 0.19515,-0.20043 0.19815,0.0336 0.003,0.25783 1.93295,0.33073 8.75412,0.33073 8.73611,0 8.7493,-8e-4 8.6649,-0.555 -0.084,-0.55141 -0.14961,-0.55531 -9.94046,-0.59531 -9.22539,-0.0377 -9.85541,-0.0107 -9.85539,0.42271 4e-5,0.64971 -0.43773,0.57847 -0.61522,-0.10025 -0.10204,-0.38987 -0.28078,-0.51227 -0.58149,-0.39688 z m -11.43752,0.0346 c -0.58616,0 -0.86069,0.12583 -0.86369,0.39636 -0.004,0.35278 -0.033,0.35278 -0.26456,0 -0.23159,-0.35277 -0.28973,-0.35277 -0.52132,0 -0.14329,0.21829 -0.26255,0.26159 -0.26455,0.0956 -0.002,-0.16598 -0.41716,-0.35027 -0.92231,-0.40927 -0.86218,-0.10066 -1.19827,0.13399 -1.19827,0.83716 0,0.11856 1.11477,0.23003 2.47746,0.24753 2.416,0.031 2.47688,0.0169 2.44738,-0.56793 -0.0249,-0.494 -0.18181,-0.59945 -0.89014,-0.59945 z m 36.22772,0.0191 c -3.11071,0.0542 -2.86569,0.002 -3.03303,0.64234 -0.13233,0.50606 -0.008,0.52917 2.84317,0.52917 2.96732,0 2.98063,-0.003 2.86496,-0.60823 -0.11242,-0.58805 -0.19956,-0.60638 -2.6751,-0.56328 z m 9.95861,2.57814 v 5.2e-4 c -0.21107,0.0845 -0.14794,0.14698 0.16029,0.15968 0.27886,0.0115 0.43493,-0.0511 0.34703,-0.13901 -0.0879,-0.0879 -0.31633,-0.0976 -0.50732,-0.0212 z m -47.72956,0.31368 c -2.45776,0 -2.66007,0.0953 -2.35038,1.11156 0.0558,0.18295 0.35549,0.26073 0.70548,0.18293 0.76868,-0.1709 3.08774,-0.15628 3.37487,0.0212 0.27819,0.17194 0.71049,-0.40427 0.68939,-0.91881 -0.0132,-0.32248 -0.46677,-0.39687 -2.41936,-0.39687 z m 31.44138,0.0264 c -1.41882,0.0345 -2.66919,0.0723 -2.77833,0.0842 -0.10914,0.0119 -0.19816,0.25193 -0.19816,0.5333 0,0.35976 0.21561,0.53833 0.72727,0.60203 0.40018,0.0498 1.05776,0.006 1.46075,-0.0977 0.43574,-0.11197 0.67042,-0.0878 0.57942,0.0594 -0.0842,0.13616 0.099,0.24753 0.4072,0.24753 0.30822,0 0.49477,-0.10672 0.41447,-0.23668 -0.0841,-0.13608 0.24075,-0.14875 0.76513,-0.0305 1.03665,0.2338 1.2019,0.14343 1.2019,-0.65526 0,-0.5481 -0.0962,-0.56673 -2.57965,-0.50643 z m -17.30542,0.0103 c -5.57987,-0.0344 -10.29389,-0.0147 -10.47579,0.0444 -0.18191,0.0591 -0.33095,0.33647 -0.33095,0.6165 0,0.41641 0.16692,0.49802 0.9166,0.44752 0.50418,-0.034 0.99736,0.0186 1.09556,0.11679 0.0982,0.0983 0.31044,0.0962 0.47205,-0.004 0.1616,-0.10047 1.35128,-0.15472 2.64346,-0.12092 1.45535,0.0381 2.48733,-0.0529 2.71193,-0.23926 0.20828,-0.17283 0.36259,-0.19071 0.36259,-0.0419 0,0.14255 0.53565,0.2589 1.19049,0.2589 0.91374,0 1.19331,-0.0985 1.19931,-0.42478 0.007,-0.37576 0.0485,-0.37269 0.35429,0.03 0.40571,0.53413 0.19332,0.52291 7.83908,0.4191 5.7498,-0.0781 5.95348,-0.0987 5.95348,-0.60979 0,-0.43657 -0.16198,-0.52167 -0.92593,-0.48627 -0.50933,0.0235 -1.19402,0.0534 -1.52144,0.0661 -0.37821,0.0148 -0.59881,0.19211 -0.60381,0.48627 -0.008,0.4333 -0.0317,0.43217 -0.37193,-0.0165 -0.33838,-0.44629 -1.06612,-0.48388 -10.50899,-0.54208 z m -133.621714,1.31568 c -0.12364,0.0764 -0.156346,0.25004 -0.07262,0.38551 0.213952,0.34617 0.297234,0.30712 0.297234,-0.13901 0,-0.2119 -0.10097,-0.3229 -0.224611,-0.2465 z m 170.001944,0.30386 c -1.91461,-0.0378 -3.42607,0.0206 -3.35827,0.12971 0.0678,0.10916 2.46816,0.17462 5.3336,0.14572 5.21836,-0.0527 4.54498,-0.14652 -1.97533,-0.27543 z m -61.4744,0.0636 c -0.27702,0 -0.2612,0.22849 -0.0586,0.95601 0.18904,0.17714 0.377,0.35542 0.56386,0.53485 -0.127,-0.27755 -0.24069,-0.67221 -0.24069,-0.94464 0,-0.30061 -0.11903,-0.54622 -0.26455,-0.54622 z m -109.734115,0.63097 c -0.06982,0.0132 -0.131939,0.0524 -0.170144,0.1142 -0.07641,0.12364 0.03452,0.2248 0.246398,0.2248 0.446132,0 0.484677,-0.0837 0.138501,-0.29766 -0.06773,-0.0419 -0.14493,-0.0545 -0.214755,-0.0413 z m -0.729337,0.7798 c -0.205479,0 -0.312529,0.0994 -0.237579,0.22065 0.07495,0.12129 0.181999,0.22066 0.237579,0.22066 0.05558,0 0.162629,-0.0994 0.237579,-0.22066 0.07495,-0.12128 -0.0321,-0.22065 -0.237579,-0.22065 z m -2.910605,2.11666 c -0.20548,0 -0.31201,0.0994 -0.23706,0.22066 0.07495,0.12128 0.18148,0.22066 0.23706,0.22066 0.05558,0 0.162629,-0.0994 0.237579,-0.22066 0.07495,-0.12129 -0.0321,-0.22066 -0.237579,-0.22066 z m -1.122536,0.54312 c -0.06983,0.0131 -0.131939,0.0524 -0.170144,0.11421 -0.07641,0.12364 0.03452,0.22479 0.246398,0.22479 0.446132,0 0.484677,-0.0837 0.138501,-0.29766 -0.06773,-0.0419 -0.144931,-0.0545 -0.214755,-0.0413 z m 153.759933,0.73277 c -16.9366,0.0197 -32.74074,0.10255 -35.24784,0.22325 l 0.0394,0.0419 c 1.845,0.10308 15.87321,0.16901 34.74726,0.14263 20.39515,-0.0285 36.94482,-0.13999 36.77706,-0.24805 -0.20821,-0.13411 -18.22597,-0.18072 -36.3159,-0.15968 z m -154.66512,0.3173 c -0.85287,0.12912 -0.881733,0.43359 -0.750605,7.88427 l 0.132277,7.50032 0.07055,-7.26002 c 0.06004,-6.15785 0.133726,-7.33011 0.486052,-7.71943 0.309403,-0.34187 0.325099,-0.44504 0.06173,-0.40514 z m 15.209739,1.97817 c -0.04186,-0.0506 -0.101394,-0.045 -0.1717,0.0253 -0.13076,0.13076 -0.157428,0.36735 -0.05965,0.52555 0.24878,0.40253 0.297752,0.36348 0.297752,-0.23771 0,-0.15537 -0.02454,-0.26251 -0.0664,-0.31316 z m -5.102766,0.0806 c -0.732696,0.0282 -0.791958,0.0629 -0.27389,0.15916 1.051544,0.19543 1.103669,0.65526 0.187781,1.65571 l -0.849165,0.92759 0.935274,-0.85679 c 0.51452,-0.47126 0.935793,-1.09634 0.935793,-1.38906 0,-0.43968 -0.162963,-0.52641 -0.935793,-0.49661 z m 2.901268,0.0129 c -0.873125,-0.0345 -1.587199,0.0297 -1.586801,0.14262 3.98e-4,0.11298 0.714593,0.24211 1.58732,0.28681 0.872727,0.0448 1.586801,-0.0194 1.586801,-0.14263 0,-0.12325 -0.714195,-0.2523 -1.58732,-0.2868 z m -4.233371,0.48059 c -0.01366,-0.0137 -0.121129,0.0659 -0.330951,0.23047 -0.254661,0.19972 -0.462709,0.40802 -0.462709,0.46302 0,0.21776 0.217181,0.078 0.562824,-0.36276 0.164552,-0.20983 0.244493,-0.31707 0.230836,-0.33073 z m 123.21232,3.24114 v 5.2e-4 c -2.79164,0.0428 -0.43248,0.0776 5.24283,0.0775 5.67531,-10e-5 7.95946,-0.0352 5.07579,-0.078 -2.88367,-0.0428 -7.52698,-0.0428 -10.31862,0 z m -6.17343,0.57361 c -0.0402,0.0277 -0.0543,0.0923 -0.0337,0.1881 0.04,0.18611 -0.10593,0.34957 -0.32421,0.36277 -0.18885,0.0115 -0.30309,0.13198 -0.31435,0.27285 0.0683,0.10195 0.1362,0.2041 0.20386,0.30644 0.50825,-0.57306 0.80647,-1.00562 0.65931,-1.09657 -0.0841,-0.052 -0.15068,-0.0613 -0.1909,-0.0336 z m -116.951225,0.62218 c -0.02406,-0.0194 -0.05625,0.002 -0.09648,0.0656 -0.136242,0.21546 -0.249385,0.97744 -0.251585,1.69292 -0.0053,1.70299 0.148142,1.47832 0.343401,-0.50229 0.07602,-0.77104 0.07682,-1.19814 0.0047,-1.25626 z m 171.428455,3.05357 c -0.25466,0.0665 -0.0466,0.12092 0.46271,0.12092 0.50932,0 0.71789,-0.0543 0.46323,-0.12092 -0.25466,-0.0665 -0.67128,-0.0665 -0.92594,0 z m -2.87533,0.7524 c -0.0749,0.0242 -0.22443,0.19944 -0.5234,0.54984 -0.30882,0.36198 -0.34055,0.46509 -0.0825,0.26665 0.23167,-0.17808 0.4794,-0.26528 0.5509,-0.19378 0.0715,0.0715 0.1302,-0.0484 0.1302,-0.26666 0,-0.25354 -3.8e-4,-0.38031 -0.0752,-0.35605 z m 6.86231,0.0672 c -0.088,0.001 -0.15863,0.0626 -0.23395,0.18449 -0.12021,0.19452 -0.0853,0.24905 0.0903,0.14056 0.15795,-0.0976 0.36197,-0.0564 0.45337,0.0915 v 5.1e-4 c 0.0914,0.14789 0.21851,0.26872 0.28271,0.26872 0.21794,0 0.11818,-0.19878 -0.25626,-0.50953 -0.14293,-0.11886 -0.24818,-0.17747 -0.33613,-0.17622 z m -178.367538,0.47026 c -0.219142,-0.0924 -0.380121,0.18171 -0.219424,0.60048 0.08617,0.22456 0.279422,0.40876 0.42951,0.40876 0.33605,0 0.342585,-0.27436 0.01867,-0.78652 -0.07621,-0.12051 -0.155714,-0.19192 -0.228761,-0.22272 z m 2.89193,0.62942 c -0.130273,-0.0805 -0.30509,0.0311 -0.38853,0.24856 -0.09215,0.24015 0.001,0.39584 0.237061,0.39584 0.427934,0 0.52504,-0.41352 0.151469,-0.6444 z m 171.760968,0.74466 c -0.0278,0.0278 -0.0466,0.1208 -0.0529,0.27491 -0.0115,0.27897 0.0511,0.43517 0.13902,0.34727 0.0879,-0.0879 0.0971,-0.31595 0.0207,-0.50695 -0.0422,-0.10553 -0.079,-0.14305 -0.10686,-0.11523 z m 1.18737,1.15703 c -0.0286,-0.009 -0.01,0.0297 0.0628,0.11731 0.145,0.17514 0.27722,0.56261 0.29412,0.86093 0.0277,0.48896 0.0432,0.49361 0.1577,0.048 0.0699,-0.27186 -0.0624,-0.65932 -0.29413,-0.86092 -0.11586,-0.1008 -0.19187,-0.15665 -0.22046,-0.16537 z m -0.43625,0.5948 c -0.14552,0 -0.33805,0.11906 -0.42795,0.26458 -0.0899,0.14553 -0.0449,0.26458 0.10063,0.26458 0.14552,0 0.33857,-0.11905 0.42847,-0.26458 0.0899,-0.14552 0.0444,-0.26458 -0.10115,-0.26458 z m -182.499752,0.50281 c -0.02388,0.059 -0.03984,0.20495 -0.04254,0.42323 -0.0054,0.43656 0.04943,0.6468 0.121903,0.46767 0.07247,-0.17913 0.07689,-0.53632 0.0099,-0.79375 -0.03354,-0.12871 -0.06534,-0.15623 -0.08922,-0.0971 z m -2.6937755,1.28312 c -0.3499354,-0.001 -0.5961269,0.0223 -0.6541209,0.0713 -0.115987,0.0981 0.6582425,0.18255 1.7201151,0.18655 l 1.9307203,0.008 -1.7201151,-0.18655 c -0.472943,-0.0512 -0.926664,-0.0776 -1.2765994,-0.0791 z m 180.2842475,0.15865 c -0.0537,0.0344 -0.0554,0.10947 0.0213,0.23358 0.0809,0.1309 0.21495,0.1706 0.29775,0.0879 0.2402,-0.24021 1.12446,0.68639 0.93994,0.98495 -0.0993,0.1606 -0.0353,0.18878 0.15822,0.0693 0.24091,-0.14889 0.18178,-0.3542 -0.22825,-0.79065 -0.39694,-0.42252 -1.0277,-0.688 -1.18893,-0.58498 z m 8.52588,0.23358 c 0.006,-0.0344 -0.0859,0.0277 -0.27441,0.17363 -0.25466,0.19717 -0.46323,0.27748 -0.46323,0.17828 0,-0.0992 -0.1208,-0.1053 -0.2687,-0.0139 -0.14787,0.0914 -0.20042,0.27691 -0.11672,0.41238 0.20862,0.33757 0.23554,0.3259 0.80767,-0.34468 0.20516,-0.24046 0.30931,-0.37124 0.31539,-0.40566 z m -3.43297,1.87534 c -0.21107,0.0845 -0.14845,0.14698 0.15977,0.15968 0.27887,0.0115 0.43545,-0.0511 0.34755,-0.13901 -0.0879,-0.0879 -0.31633,-0.0971 -0.50732,-0.0207 z m -42.34979,1.0175 c -1.40357,-0.0398 -1.79291,0.12629 -1.34508,0.57413 0.097,0.097 0.78172,0.15454 1.52145,0.12764 l 1.34507,-0.0491 -1.45556,-0.13436 -1.45505,-0.13488 1.45505,-0.17001 1.45556,-0.17053 z m -132.943737,9.02168 c -0.842058,0.0526 -0.220903,0.0955 1.379827,0.0961 1.600724,6e-4 2.289449,-0.0423 1.530778,-0.0956 -0.758671,-0.0532 -2.068547,-0.0532 -2.910605,-5.1e-4 z m 134.329787,0.0651 c -0.14385,0.0889 -0.26144,0.27338 -0.26144,0.41031 0,0.38058 0.18929,0.29662 0.36519,-0.16175 0.0904,-0.23547 0.0462,-0.34126 -0.10375,-0.24856 z m 0.34132,0.49506 c -0.0278,0.0278 -0.0466,0.12029 -0.0529,0.2744 -0.0115,0.27897 0.0511,0.43517 0.13902,0.34727 0.0879,-0.0879 0.0971,-0.31596 0.0207,-0.50695 -0.0422,-0.10553 -0.079,-0.14254 -0.10686,-0.11472 z m -1.05925,1.32705 c -0.0694,0.0693 -0.0471,0.25303 0.0488,0.40824 0.26088,0.42213 0.41337,0.34013 0.23447,-0.12609 -0.0862,-0.22459 -0.21383,-0.35155 -0.28323,-0.28215 z m 0.84398,1.4242 c -0.0269,-0.0206 -0.0574,-0.001 -0.0908,0.0594 -0.119,0.21828 -0.16236,0.90288 -0.0965,1.52135 0.16968,1.59232 0.32957,1.39367 0.32057,-0.39687 -0.004,-0.70397 -0.0526,-1.12191 -0.13331,-1.18391 z m 8.71262,0.41393 c -0.0218,0.0834 -0.0364,0.28102 -0.0379,0.57206 h 5.2e-4 c -0.003,0.5821 0.049,0.85138 0.11516,0.59841 0.0659,-0.25296 0.0677,-0.72921 0.005,-1.05833 -0.0317,-0.16456 -0.0607,-0.1955 -0.0825,-0.11214 z m 36.51251,0 c -0.0218,0.0834 -0.0364,0.28102 -0.0379,0.57206 h 5.2e-4 c -0.003,0.5821 0.049,0.85138 0.11516,0.59841 0.0659,-0.25296 0.0677,-0.72921 0.005,-1.05833 -0.0317,-0.16456 -0.0607,-0.1955 -0.0825,-0.11214 z m -45.78069,3.62562 c -0.0219,0.0839 -0.0353,0.26365 -0.0353,0.51831 0,0.50932 0.0544,0.71768 0.12087,0.46302 0.0666,-0.25466 0.0666,-0.67138 0,-0.92604 -0.0333,-0.12733 -0.0636,-0.13921 -0.0856,-0.0553 z m -0.0768,5.0214 c -0.0211,0.002 3.7e-4,0.0881 0.0539,0.25941 0.10611,0.33972 -0.29031,0.38366 -2.75291,0.30696 -0.62167,-0.0193 -0.96582,-0.004 -1.38242,0.002 0.004,0.14193 0.008,0.28386 0.0109,0.42581 1.70706,0.10105 4.27482,0.0734 4.41441,-0.15244 0.0717,-0.11609 0.008,-0.38399 -0.14162,-0.59532 -0.11746,-0.16592 -0.18126,-0.24828 -0.2023,-0.24649 z m 43.95163,2.43551 -6.79746,0.0594 6.87891,0.14572 c 3.78354,0.0802 6.91586,0.17246 6.96086,0.20516 0.0449,0.0327 0.008,-0.0596 -0.0814,-0.20516 -0.10372,-0.16778 -2.6494,-0.24285 -6.96087,-0.20515 z m -14.93377,0.008 c -1.05503,0.0502 -0.19178,0.0915 1.91827,0.0915 2.11006,0 2.9733,-0.0413 1.91827,-0.0915 -1.05502,-0.0502 -2.78152,-0.0502 -3.83654,0 z m -7.14346,0.003 c -0.61847,0.0557 -0.11232,0.10129 1.12461,0.10129 1.23692,0 1.74257,-0.0456 1.1241,-0.10129 -0.61846,-0.0557 -1.63025,-0.0557 -2.24871,0 z m -13.34126,0.91261 c -0.0822,-0.13301 -0.78461,0.38577 -1.56087,1.15238 -0.77625,0.76662 -1.36241,1.47378 -1.30201,1.57148 0.15032,0.24321 -1.57913,1.89233 -1.80519,1.72134 -0.0995,-0.0753 -0.12024,-0.0564 -0.0462,0.0419 0.19368,0.25708 -0.96007,1.4204 -1.23821,1.2485 -0.12797,-0.0791 -0.19977,0.008 -0.15977,0.19431 0.04,0.18611 -0.0759,0.34336 -0.25781,0.35036 -0.18188,0.007 -0.30147,0.0917 -0.26507,0.18914 0.10454,0.27995 -1.16238,1.52543 -1.49032,1.46503 -0.16262,-0.0299 -0.27537,0.0648 -0.25107,0.21032 0.0369,0.22093 -1.49844,0.22948 -5.05141,0.0868 -0.0271,0.12583 -0.0546,0.25158 -0.0825,0.37724 0.50194,0.009 0.89328,0.0294 1.55776,0.0217 l 3.74472,-0.0434 4.17839,-4.17236 c 2.29827,-2.29491 4.11171,-4.28169 4.02951,-4.41471 z m -0.10634,0.0749 c 0.0728,0 -0.45412,0.59531 -1.17078,1.32291 -0.71667,0.72761 -1.36253,1.32292 -1.43533,1.32292 -0.0728,0 0.45412,-0.59531 1.17078,-1.32292 0.71667,-0.7276 1.36253,-1.32291 1.43533,-1.32291 z m 42.77204,1.00304 c -0.036,-0.0376 -0.0608,0.52823 -0.0602,1.5105 h -5.2e-4 c 8.1e-4,1.30969 0.0459,1.81182 0.10063,1.11621 0.0552,-0.69562 0.0545,-1.76718 -0.001,-2.38125 -0.0139,-0.15352 -0.0269,-0.23293 -0.0389,-0.24546 z m -38.71712,2.51147 c -0.40018,0.0606 -0.0731,0.11007 0.72727,0.11007 0.80041,0 1.12796,-0.0495 0.72778,-0.11007 -0.40019,-0.0606 -1.05487,-0.0606 -1.45505,0 z m 21.10046,0.004 -7.5408,0.0393 6.21804,0.14676 c 9.94475,0.23517 11.44028,0.23319 10.05406,-0.0134 -0.65485,-0.11649 -4.58396,-0.1941 -8.7313,-0.1726 z m -22.19861,0.22273 c -0.0267,0.003 -0.0166,0.035 0.0374,0.0946 0.10792,0.11908 0.0635,0.37677 -0.0986,0.57206 -0.16208,0.1953 -0.23516,0.35501 -0.16236,0.35501 0.0728,0 0.27155,-0.1683 0.44195,-0.37362 0.23876,-0.28763 0.23098,-0.41878 -0.0337,-0.57154 -0.0945,-0.0545 -0.15794,-0.0798 -0.18467,-0.0765 z m -0.92334,1.387 c -0.56306,0.0826 -3.62187,3.09123 -3.44075,3.38429 0.20291,0.32835 0.37804,0.26388 0.30294,-0.11163 -0.0364,-0.18193 0.0916,-0.29838 0.28426,-0.25838 0.19235,0.04 0.28327,-0.0358 0.20127,-0.16846 -0.15968,-0.25836 0.47128,-0.90951 0.67954,-0.70125 0.0684,0.0685 0.63983,-0.40088 1.26985,-1.04283 0.70337,-0.71668 0.97489,-1.14164 0.70289,-1.10174 z m -0.18986,0.16381 c 0.0728,0 -0.27148,0.41671 -0.76513,0.92604 -0.49366,0.50932 -0.9574,0.92604 -1.0302,0.92604 -0.0728,0 0.272,-0.41672 0.76565,-0.92604 0.49366,-0.50933 0.95688,-0.92604 1.02968,-0.92604 z m -3.84329,3.97909 c -0.0219,0.0839 -0.0358,0.26365 -0.0358,0.51831 0,0.50932 0.0548,0.71768 0.12139,0.46302 0.0665,-0.25466 0.0665,-0.67138 0,-0.92604 -0.0333,-0.12733 -0.0637,-0.13921 -0.0856,-0.0553 z m 44.75983,0.0501 c -0.0411,-0.0321 -0.07,0.24113 -0.07,0.73226 0,0.65482 0.0515,0.92273 0.11464,0.59531 0.0631,-0.32742 0.0631,-0.86321 0,-1.19063 -0.0158,-0.0819 -0.0309,-0.12624 -0.0446,-0.13694 z m -3.1347,16.12408 -1.63764,0.0455 1.7196,0.17311 c 0.94589,0.0953 1.75656,0.19401 1.80156,0.21911 0.0449,0.0251 0.008,-0.0736 -0.082,-0.21911 -0.0899,-0.14552 -0.90064,-0.24369 -1.80156,-0.21859 z m -36.6121,0.54984 c -2.44672,0.0437 -0.51953,0.0795 4.28265,0.0796 4.80219,1e-4 6.80412,-0.0353 4.44865,-0.0791 -2.35547,-0.0438 -6.28459,-0.0442 -8.7313,-5.2e-4 z m -26.35833,14.77119 c -0.22999,0.0152 -0.22646,0.0568 0.013,0.15348 0.22958,0.0928 0.12551,0.39779 -0.34599,1.01596 -0.63376,0.83091 -0.64518,0.89961 -0.19556,1.16117 0.2629,0.15293 0.49915,0.28229 0.52495,0.28629 0.0257,0.004 8.4e-4,-0.35302 -0.055,-0.79427 -0.0684,-0.54048 -0.006,-0.74303 0.19245,-0.62064 0.16965,0.10486 0.2202,0.062 0.11931,-0.10128 -0.0962,-0.15557 -0.0337,-0.32966 0.1385,-0.38706 0.38371,-0.12791 0.0463,-0.74265 -0.39165,-0.71365 z m -107.553876,4.77594 c -0.0821,0.0231 -0.153504,0.18259 -0.279597,0.49609 -0.146326,0.36383 -0.273509,0.49244 -0.282709,0.28629 -0.0092,-0.20604 -0.088,-0.30331 -0.175331,-0.21601 -0.08721,0.0872 -0.09915,0.25585 -0.02646,0.37465 0.13794,0.22442 7.450961,0.0528 7.683457,-0.18035 0.07256,-0.0727 -1.296593,-0.0927 -3.042363,-0.0439 -2.833907,0.0793 -3.212232,0.0367 -3.532045,-0.39688 -0.169773,-0.23018 -0.26286,-0.34299 -0.344957,-0.31987 z m 9.673313,0.58497 c -0.181901,0.0734 -0.03285,0.13385 0.330951,0.13385 0.363799,0 0.512852,-0.0604 0.330951,-0.13385 -0.181901,-0.0734 -0.48,-0.0734 -0.661902,0 z m 84.947543,5.13354 c -2.9994,-0.002 -4.8464,0.0428 -4.79671,0.13281 0.0791,0.10884 4.60952,0.1719 10.08726,0.14004 5.48483,-0.032 8.36516,-0.0911 6.40063,-0.13126 -4.53475,-0.0927 -8.68691,-0.13994 -11.69118,-0.14159 z m -4.79671,0.13281 c -1.1e-4,-1.4e-4 -0.008,-3.8e-4 -0.008,-5.2e-4 v 5.2e-4 c -9e-5,-1.5e-4 0.008,1.4e-4 0.008,0 z m -86.433196,0.12919 c -1.983985,-0.0219 -3.875907,0.008 -3.812679,0.11007 0.07594,0.12282 2.006029,0.21407 4.289394,0.20257 2.283365,-0.0115 4.03238,-0.0618 3.886859,-0.11214 -0.303927,-0.10498 -2.379588,-0.17859 -4.363574,-0.2005 z m 69.988866,11.75225 c -0.29135,-0.0569 -0.39936,0.0197 -0.28634,0.20258 0.10005,0.16188 0.29156,0.22687 0.42536,0.14417 0.1338,-0.0827 0.17242,0.0334 0.0861,0.25839 -0.0863,0.22505 -0.28193,0.33211 -0.43469,0.23771 -0.1621,-0.10024 -0.19896,-0.0445 -0.0887,0.13384 0.10383,0.168 0.35975,0.30541 0.56853,0.30541 0.55256,0 0.30603,-1.1694 -0.27026,-1.2821 z m 7.04023,0.68937 c -1.1899,0.004 -2.79602,0.0551 -4.40299,0.15141 -0.7276,0.0436 0.36673,0.10126 2.43181,0.12816 2.06509,0.0269 3.81066,-0.0402 3.87856,-0.14935 0.0567,-0.091 -0.71747,-0.13423 -1.90738,-0.13022 z m -29.564604,1.33118 c -5.278466,-0.018 -10.217298,0.003 -9.630777,0.0816 0.654844,0.0873 5.893309,0.15706 11.641382,0.15606 5.74807,-10e-4 10.093802,-0.0391 9.657232,-0.0837 -0.771615,-0.0788 -6.389372,-0.13606 -11.667837,-0.154 z m 114.871114,1.11466 c -2.68354,0 -4.93463,0.0893 -5.00213,0.19844 -0.0675,0.10914 2.12825,0.19844 4.87919,0.19844 2.75094,0 5.00199,-0.0893 5.00213,-0.19844 1.4e-4,-0.10914 -2.19564,-0.19844 -4.87919,-0.19844 z m -0.81078,3.56258 c -2.25482,-0.005 -4.09954,0.0842 -4.09954,0.19843 0,0.11419 1.84553,0.20774 4.1011,0.20774 2.25557,0 4.10029,-0.0893 4.09954,-0.19843 -7.6e-4,-0.1091 -1.84629,-0.20274 -4.1011,-0.20774 z"
         sodipodi:nodetypes="sscscscccsccscscccssccsscsssssscssscsssscsscsccscsscsscscsscsssscsccssssssssssssssssccssssssscsscssscscsscssccsccsssssscsccssccsscscssscscsscssssssssssssssssscssssscssssssssccsccccsccssccssssssssscssscccscccccssscssscccsccssssscsssscsccccscscscssssscsssssssssccsccssssssscsssssscsccccsccssscssssscsssscsscssssssssscsssccsscscsssscssscssssscssssccssssccsscccsssssscsccsccssssscsssssssssssccsccsccsssccccsccssscccsccscsscssccsscccsscsscccsssccsssscscssssccssccsccsssssssssscsssccssscssssscsscccccccccscscsccsscssccssccsccccccccsccssssscsssccsccccccsccccssccccscscsccccccsscsccccsssssssssssssssssscsccsccssssssscccsssssscccsccssssscssscscsssssssssccsssssscccsccssssscssssccsssssscccsssscscccscccccscscscssscsscssscsccsscssssssssss" /><rect
         style="opacity:1;fill:#ff6600;fill-opacity:0.71764708;stroke:none;stroke-width:5.27743"
         id="rect24"
         width="57.544666"
         height="41.090591"
         x="-34.67054"
         y="-219.95505" /><rect
         style="opacity:1;fill:#ff6600;fill-opacity:0.71764708;stroke:none;stroke-width:4.00761"
         id="rect12"
         width="46.27718"
         height="29.464962"
         x="-28.43318"
         y="-214.54312" /><rect
         style="opacity:1;fill:#ff6600;fill-opacity:0.71764708;stroke:none;stroke-width:5.00722"
         id="rect13"
         width="58.349228"
         height="36.480431"
         x="-34.469334"
         y="-263.37878" /><rect
         style="opacity:1;fill:#ff6600;fill-opacity:0.71764708;stroke:none;stroke-width:2.7035"
         id="rect14"
         width="31.589207"
         height="19.643309"
         x="29.111483"
         y="-197.63387" /><rect
         style="opacity:1;fill:#ff6600;fill-opacity:0.71764708;stroke:none;stroke-width:2.29359"
         id="rect15"
         width="22.736181"
         height="19.643309"
         x="117.64175"
         y="-197.8343" /><rect
         style="opacity:1;fill:#ff6600;fill-opacity:0.71764708;stroke:none;stroke-width:4.47357"
         id="rect16"
         width="56.13623"
         height="30.266731"
         x="147.82251"
         y="-221.88733" /><rect
         style="opacity:1;fill:#ff6600;fill-opacity:0.71764708;stroke:none;stroke-width:3.45984"
         id="rect17"
         width="44.868744"
         height="22.649939"
         x="158.48637"
         y="-250.0775" /><rect
         style="opacity:1;fill:#ff00fc;fill-opacity:0.718918;stroke:none;stroke-width:4.64195"
         id="rect20"
         width="72.433846"
         height="25.255684"
         x="131.32368"
         y="-322.76575" /><rect
         style="fill:#ff6600;fill-opacity:0.71764708;stroke:none;stroke-width:3.76372"
         id="rect26-2"
         width="42.253075"
         height="28.462755"
         x="-34.630295"
         y="-296.9007" /></g><g
       id="g34"
       transform="translate(65.098393,1.2899782)"
       style="stroke:#ffffff;stroke-opacity:1" /></g></svg>
